<mxfile host="app.diagrams.net" agent="Mozilla/5.0 (Windows NT 10.0; Win64; x64) AppleWebKit/537.36 (KHTML, like Gecko) Chrome/134.0.0.0 Safari/537.36" version="26.1.0" pages="4">
  <diagram id="C5RBs43oDa-KdzZeNtuy" name="Page-1">
    <mxGraphModel dx="1223" dy="898" grid="1" gridSize="10" guides="1" tooltips="1" connect="1" arrows="1" fold="1" page="1" pageScale="1" pageWidth="827" pageHeight="1169" math="0" shadow="0">
      <root>
        <mxCell id="WIyWlLk6GJQsqaUBKTNV-0" />
        <mxCell id="WIyWlLk6GJQsqaUBKTNV-1" parent="WIyWlLk6GJQsqaUBKTNV-0" />
        <mxCell id="WIyWlLk6GJQsqaUBKTNV-2" value="" style="rounded=0;html=1;jettySize=auto;orthogonalLoop=1;fontSize=11;endArrow=block;endFill=0;endSize=8;strokeWidth=1;shadow=0;labelBackgroundColor=none;edgeStyle=orthogonalEdgeStyle;" parent="WIyWlLk6GJQsqaUBKTNV-1" source="WIyWlLk6GJQsqaUBKTNV-3" target="WIyWlLk6GJQsqaUBKTNV-6" edge="1">
          <mxGeometry relative="1" as="geometry" />
        </mxCell>
        <mxCell id="WIyWlLk6GJQsqaUBKTNV-3" value="Lamp doesn&#39;t work" style="rounded=1;whiteSpace=wrap;html=1;fontSize=12;glass=0;strokeWidth=1;shadow=0;" parent="WIyWlLk6GJQsqaUBKTNV-1" vertex="1">
          <mxGeometry x="160" y="80" width="120" height="40" as="geometry" />
        </mxCell>
        <mxCell id="WIyWlLk6GJQsqaUBKTNV-4" value="Yes" style="rounded=0;html=1;jettySize=auto;orthogonalLoop=1;fontSize=11;endArrow=block;endFill=0;endSize=8;strokeWidth=1;shadow=0;labelBackgroundColor=none;edgeStyle=orthogonalEdgeStyle;" parent="WIyWlLk6GJQsqaUBKTNV-1" source="WIyWlLk6GJQsqaUBKTNV-6" target="WIyWlLk6GJQsqaUBKTNV-10" edge="1">
          <mxGeometry y="20" relative="1" as="geometry">
            <mxPoint as="offset" />
          </mxGeometry>
        </mxCell>
        <mxCell id="WIyWlLk6GJQsqaUBKTNV-5" value="No" style="edgeStyle=orthogonalEdgeStyle;rounded=0;html=1;jettySize=auto;orthogonalLoop=1;fontSize=11;endArrow=block;endFill=0;endSize=8;strokeWidth=1;shadow=0;labelBackgroundColor=none;" parent="WIyWlLk6GJQsqaUBKTNV-1" source="WIyWlLk6GJQsqaUBKTNV-6" target="WIyWlLk6GJQsqaUBKTNV-7" edge="1">
          <mxGeometry y="10" relative="1" as="geometry">
            <mxPoint as="offset" />
          </mxGeometry>
        </mxCell>
        <mxCell id="WIyWlLk6GJQsqaUBKTNV-6" value="Lamp&lt;br&gt;plugged in?" style="rhombus;whiteSpace=wrap;html=1;shadow=0;fontFamily=Helvetica;fontSize=12;align=center;strokeWidth=1;spacing=6;spacingTop=-4;" parent="WIyWlLk6GJQsqaUBKTNV-1" vertex="1">
          <mxGeometry x="170" y="170" width="100" height="80" as="geometry" />
        </mxCell>
        <mxCell id="WIyWlLk6GJQsqaUBKTNV-7" value="Plug in lamp" style="rounded=1;whiteSpace=wrap;html=1;fontSize=12;glass=0;strokeWidth=1;shadow=0;" parent="WIyWlLk6GJQsqaUBKTNV-1" vertex="1">
          <mxGeometry x="320" y="190" width="120" height="40" as="geometry" />
        </mxCell>
        <mxCell id="WIyWlLk6GJQsqaUBKTNV-8" value="No" style="rounded=0;html=1;jettySize=auto;orthogonalLoop=1;fontSize=11;endArrow=block;endFill=0;endSize=8;strokeWidth=1;shadow=0;labelBackgroundColor=none;edgeStyle=orthogonalEdgeStyle;" parent="WIyWlLk6GJQsqaUBKTNV-1" source="WIyWlLk6GJQsqaUBKTNV-10" target="WIyWlLk6GJQsqaUBKTNV-11" edge="1">
          <mxGeometry x="0.3333" y="20" relative="1" as="geometry">
            <mxPoint as="offset" />
          </mxGeometry>
        </mxCell>
        <mxCell id="WIyWlLk6GJQsqaUBKTNV-9" value="Yes" style="edgeStyle=orthogonalEdgeStyle;rounded=0;html=1;jettySize=auto;orthogonalLoop=1;fontSize=11;endArrow=block;endFill=0;endSize=8;strokeWidth=1;shadow=0;labelBackgroundColor=none;" parent="WIyWlLk6GJQsqaUBKTNV-1" source="WIyWlLk6GJQsqaUBKTNV-10" target="WIyWlLk6GJQsqaUBKTNV-12" edge="1">
          <mxGeometry y="10" relative="1" as="geometry">
            <mxPoint as="offset" />
          </mxGeometry>
        </mxCell>
        <mxCell id="WIyWlLk6GJQsqaUBKTNV-10" value="Bulb&lt;br&gt;burned out?" style="rhombus;whiteSpace=wrap;html=1;shadow=0;fontFamily=Helvetica;fontSize=12;align=center;strokeWidth=1;spacing=6;spacingTop=-4;" parent="WIyWlLk6GJQsqaUBKTNV-1" vertex="1">
          <mxGeometry x="170" y="290" width="100" height="80" as="geometry" />
        </mxCell>
        <mxCell id="WIyWlLk6GJQsqaUBKTNV-11" value="Repair Lamp" style="rounded=1;whiteSpace=wrap;html=1;fontSize=12;glass=0;strokeWidth=1;shadow=0;" parent="WIyWlLk6GJQsqaUBKTNV-1" vertex="1">
          <mxGeometry x="160" y="430" width="120" height="40" as="geometry" />
        </mxCell>
        <mxCell id="WIyWlLk6GJQsqaUBKTNV-12" value="Replace Bulb" style="rounded=1;whiteSpace=wrap;html=1;fontSize=12;glass=0;strokeWidth=1;shadow=0;" parent="WIyWlLk6GJQsqaUBKTNV-1" vertex="1">
          <mxGeometry x="320" y="310" width="120" height="40" as="geometry" />
        </mxCell>
      </root>
    </mxGraphModel>
  </diagram>
  <diagram id="TAAjqQZOFPnD0peIvCv9" name="IGinX多语言运行环境">
    <mxGraphModel dx="783" dy="428" grid="1" gridSize="10" guides="1" tooltips="1" connect="1" arrows="1" fold="1" page="1" pageScale="1" pageWidth="827" pageHeight="1169" math="0" shadow="0">
      <root>
        <mxCell id="0" />
        <mxCell id="1" parent="0" />
        <mxCell id="LcjQ42n0fO6VPhbINmEc-1" value="&lt;font style=&quot;font-size: 24px;&quot;&gt;IGinX&lt;/font&gt;" style="rounded=1;whiteSpace=wrap;html=1;align=center;verticalAlign=top;fillColor=#ffe6cc;strokeColor=#d79b00;" vertex="1" parent="1">
          <mxGeometry x="210" y="150" width="490" height="230" as="geometry" />
        </mxCell>
        <mxCell id="LcjQ42n0fO6VPhbINmEc-3" value="&lt;font style=&quot;font-size: 24px;&quot;&gt;System&lt;/font&gt;" style="rounded=1;whiteSpace=wrap;html=1;verticalAlign=bottom;fillColor=#dae8fc;strokeColor=#6c8ebf;" vertex="1" parent="1">
          <mxGeometry x="260" y="210" width="155.91" height="130" as="geometry" />
        </mxCell>
        <mxCell id="LcjQ42n0fO6VPhbINmEc-2" value="" style="shape=image;verticalLabelPosition=bottom;labelBackgroundColor=default;verticalAlign=top;aspect=fixed;imageAspect=0;image=data:image/png,iVBORw0KGgoAAAANSUhEUgAAAZ4AAAG4CAIAAAD66xZzAAAgAElEQVR4Ae2dh3cbWXbm9x/ps2uv7WPveu1dhzle79rrddi112HWyxl10nQO06PWdFCr03Sre6gsURIlUWKUKDBnEsxgBBOYCQaABAmSIAmCYABzQsYOGxo0hFD1UAEoVH19eE5XvXrvvnt/t+pTFerVe//Gg/9AAARAQHQE/o3oIkJAIAACIOCBtOEkAAEQECEBSJsIk4qQQAAEIG04B0AABERIANImwqQiJBAAAUgbzgEQAAEREoC0iTCpCAkEQADShnMABEBAhAQgbSJMKkICARCAtOEcAAEQECEBSJsIk4qQQAAEIG04B0AABERIANImwqQiJBAAAUgbzgEQAAEREoC0iTCpCAkEQADShnMABEBAhAQgbSJMKkICARCAtOEcAAEQECEBSJsIk4qQQAAEIG04B0AABERIANImwqQiJBAAAUgbzgEQAAEREoC0iTCpCAkEQADShnMABEBAhAQgbSJMKkICARCAtOEcAAEQECEBSJsIk4qQQAAEIG04B0AABERIANImwqQiJBAAAUgbzgEQAAEREoC0iTCpYg3JoX4g1tAQF+cEIG2cI4VBvgg4ey865+v5sg674iIAaRNXPkUdjVNXYiv7B7f9UNRRIjhuCEDauOEIK1Eg4Fofs6Y95+i/FoW+0EW8E4C0xXsGpeS/02ZNe86a9pzb1COlsBErEwKQNibU0CZWBGx5Pzi5cWt4PVYOoN94IQBpi5dMwc8TAva6n3hv3FyLLSACAhQEIG0UcHBIcAQcvZe80oYbN8HlRmAOQdoElhC4Q0nAMXjLK23W9N9w7y9T1sVBSROAtEk6/XEX/PfSlvacc6oo7vyHw1EjAGmLGmp0xAEBf2mzt7zPgUWYECkBSJtIEyvSsPylzZr7pyKNEmFxQADSxgFEmIgagWekLe051+pQ1LpGR/FFANIWX/mSurcB0uYcfSh1Iog/DAFIWxgwKBYkgQBps1efEqSbcCr2BCBtsc8BPCAn4Gg/93Twx3dfXNlK/568LWpKigCkTVLpjvtgbZU/fEba8v9r3IeEAPghAGnjhyus8kPA+vg/+Eub9fF/5KcfWI17ApC2uE+hhAI4XHtG1757JpVQ+Ag1EgKQtkhooW5MCbhMPYHS9uh3Y+oROhcuAUibcHMDzwIIODVPAqTNhlG7AYyw+2sCkLZfk8D/BU/Arng3UNqK/krwXsPB2BCAtMWGO3qNlIDbabem/7sAabNX/HOkdlBfIgQgbRJJdNyH6ZouC9A1a9pzdky3G/eJ5SsASBtfZGGXWwKOpsCnUWvac87hu9z2AmuiIQBpE00qxRyI27pjffS7wXdtrsVWMYeN2FgQgLSxgIem0SLgmikP1jVr2nMeTLQbrRTEXT+QtrhLmRQdtte/EixttsK/kCILxExGANJGxgm1YkfANVMRrGsn7xBaP4idU+hZ6AQgbULPEPyzV/xLSGlzzdcBDgiEIwBpC0cG5YIg4Jx4HFLXbAX/zeNyCMJFOCFIApA2QaYFTnkJWLdtBX8RUtocql8CEghQEIC0UcDBoRgTCJhT11/jXCZVjJ1D98ImAGkTdn4k7J1rSemvZf7b+L5KwucFaeiQNlJSqBdVArZ9W/k/+suZ/7ZzMj+qzqCzOCQAaYvDpEnAZUf3BX8t89+2lf8fCQBAiGwJQNrYEkR7zgk4Zyr9tSxgG7dsnAMXpUFImyjTGsdBuXfmbPl/HiBnvl3cssVxaqPrOqQturzRGzUB57G95nmfkAVv4JaNmh+O+ghA2nwosBF7Ao7Ws8Fy5ivBLVvsMxQ/HkDa4idXYvfU3vG5T8VCbrjmG8TOAPFxRgDSxhlKGGJDwNF7OaSc+QodXV+xsY+2UiMAaZNaxoUYr2Pgpk/CQm7Yiv+n58giRNfhk1AJQNqEmhnJ+EUxhM0nc059lWR4IFBuCEDauOEIK8wI2Ns+9ulXuA1Hx6fMjKOVlAlA2qSc/RjHHnIllwCBs+X/uRuzhMc4UXHZPaQtLtMmAqfttS8FqFjIXedMuQiCRQjRJwBpiz5z9Oih+N7AX+Ac/dcBCwSYEYC0MeOGVgwJuLdnbZm/6a9f4bYdincY9oFmIODxQNpwFkSPgEtfFU7IAspPRnvgPxBgQQDSxgIemkZCgHZQrr+6eQ7XIrGNuiAQSADSFkgE+3wQsLd96K9c1NsuUw8fPpDadLtIa6KegAlA2gScHHG45nLY635CrWX+R52aJ9GP2+04cptUzsmC6HeNHnkiAGnjCSzMnhBwb0zYyv7BX7mot53D96IJzr027Bi6ba97xdF3BaPnokk+Cn1B2qIAWaJduJbabbk/oNYy/6POsYzokHKv9Dn6r3k116F422XsjE6/6CWaBCBt0aQtob5ckwWEgzy86ubU5vBNx7Xc5ey9ZCv5W2+P9uK/dmpkfHcK+7EiAGmLFXkx9+tQJfrfjtFuu3Ql/OFwrfQ7er6xF/2VvxuOnm/dO/P8dQrLMScAaYt5CkTlgHvHYK9/1V9EaLdds9W8IHDZndOlwW8w7LUvuxZbeOkRRoVEANImpGzEuS+uxVZb4V/Qapl/BddCE+dBu7dnHYO3bIX/w7+jk23ZHznHszwuO+c9wqAACUDaBJiUuHTJOZYRKCVpz1GXcP77vWux1dH2gTX9N4L7dSjPuzZ1cUkWTjMiAGljhA2N/Ak4juwdnwarCXWJe0Pjb4PNtvt4y6V5Yq/615A92iv+GYsqsMEbp20hbXGaOKG47d7Q2OU/CqkpYQuzfsfjOOIkANf6+Mkri5w/Dt1X5m85Bm977Aec9AUj8UUA0hZf+RKWt65ZuU32X0LLSpinUVvZ33MSg3tr2tH1lTX934br3d70rnt9jJO+YCQeCUDa4jFrgvDZOXQ7nKyEK7c3n2HvunvHcHKnlvnb4Xqx5f7ApStm3xEsxDUBSFtcpy9mzpOs1RIgPc6h2yzddR+sOPqv27J/P8Cy/+7JzdrOHMuO0FwEBCBtIkhiVENwO+321p/7qwnJtmtWztLLkzewsj+i6ivz3zvH0ln2guaiIQBpE00qoxGI+3CdcE0Dfw1i+TLUZR6w1Z72Nxi8ba/+sds8GA0E6CNOCEDa4iRRAnDTvTVjy/3TYFmhKmH5MtRpdw7eonhX4O3a0XfF43YKgBBcEBABSJuAkiFkV1zmASoJC/U+lOXLUNdiq73yh9Sd2vL+zDlfL2Ru8C1WBCBtsSIfT/065xupJSb4KMuXoY6+K8E2A0rstS+7t2biiSN8jSIBSFsUYcdnV86R+wGaQrvL6mXo/rK98S3aLhw933gw03d8nlHR8RrSFh3O8dqLveUsrcoEVGDzMtRl7LQV/3WAwcDdjN/EPGvxej5F0W9IWxRhx1tX9upTgbIS6jc1/zpsXoY6NU+sGSG+bPe3by/5G9dyd7yBhL8xIABpiwH0uOiSwSAPNl+GkowBtpf8DX5ci4uTRwhOQtqEkAXB+WBvPuN/r0Sy7bHuMAzDabUr3qHtwl7yN54jC8Mu0Ex6BCBt0ss5XcSO7q9phSaggmtLT2c19HG3ddfR8FqAteDdE13DfyAQCQFIWyS0JFDXMXgrWFmoS1wmFTMwJ9821DxPbdya9py94p+Y2UcrKROAtEk5+4Gxu5aUtEITUIH5ygb7yza6EbnQtcAMYZ+YAKSNGJXoK9r2beX/GKBc1LvOicfMqLi29bbS/01t3Jr2nK3gvzOzj1YgAGnDOfCUAMk7Sn8xcvReZMjO5SCZmNf25D+5dw0Mu0AzyROAtEn+FPgOgHOm0l+2aLft1ac8bgczdiQfUVnTnnMttjGzj1Yg4PF4IG04DTzu/WVb/p/Typmvgu3R77nXRpiBcy00+exQbDgGbjKzj1Yg4CUAacOZ4HF0fkmhMsGHGH/n5D6y2Er+LthgQImt4l88ThsSAwJsCEDa2NATQ1vXYmuAslDvOpSfMA7b0fk5tXHvUdcCVndnzBgNnxKAtEn9VLBX/T8SufHWsZf+b88xw08CnLpSko7YSKfUc4n4/QhA2vxgSG/TtdhGIje+Os7JfMaQaOeV9PbixtfvjBGjoR8BSJsfDOltRvRNla38/zAm5NTLffpIsWGvfZFxF2gIAv4EIG3+NCS3bc36HQqhCTjE6pat7icB1kLuYv1QyZ2CvAUMaeMNreANR/QCgc0tm3t9PKSQBRe694yCxwYH44MApC0+8sSHl86xzGBxCVfC5pbNqX4Yzqx/ua3of/IRJmxKkwCkTZp5P4macCjGifpk/pbnaIMxKXvNi/4SFm7b0f4x4y7QEAQCCEDaAoBIaJd8fnB73U8Yc3EfroXTsoByR+9lxr2gIQgEEIC0BQCR0C65tDlHUxlzIf9FD3dtjCGjYTABSFswE6mUkEube2eeMRTyuS3t9a8y7gUNQSCAAKQtAIiEdgmlzV7yt2ygEPZyMjtb/p+x6QhtQcCfAKTNn4a0tkkWWzmZ57bpXTZcyKXtZCIjpmsssPEQbUVJANImyrQSBeXovRLwQ37I3ZN12ln8F5G0sRliwsJHNBUhAUibCJNKGJJzqiCklgUUsnmH4PF4IpI2B7s7RMLAUU0KBCBtUshy6BhdJlWAioXcdc5UhG5PVmon+8TK17XboiEzjFogQEUA0kZFR/THrFm/7dOUcBuM1+Lz0rO3vB/OcshyZ98V0WNHgFEgAGmLAmThdkHyJsE1U84mAEfXL0JKWLhC25M/dG/PsukRbUEAayNI/RxwjtN/RupUP2CDyTFwI5yKhSvHbJRsgKOtlwDu2iR9JpDMyeHo+gUbRpHOdunVO9dCE5tO0RYEIG1SPwccHZ+Fu3vyltsb32DFyLZPbT/kUXvVv7LqFI0lTwDSJvVTgPbGzZbzxywZ2etOh9Qv6kKH+iHLftFcygQgbVLO/tPYaW/cXKvDbDCRf0bqL3Z4n8CGOdpC2nAOeNwWrTXz3/vLSsA2ywWPT+ynPcfgz972IdIDAswIQNqYcRNbK4cqkUJ67PIfsQzYXv8qhX2KQ05NDsuu0VyaBCBt0sx7YNTu3UXrkz+kkBjXpi6wTST7zsl8CuNUh7J/372B7xMiYY263xGAtOFEeEqA+hcxls+knuNNa84fUUlY+CdWe90rSBIIREoA0hYpMTHXtze8Fk59bIV/6XHZ2QTv6L8WzjhtuWPoDpuu0VaCBCBtEkx62JBdmzqKeyuWX1y5dw3WR79Lq2LhKriMHWH9xgEQCCIAaQtCIu0C13RpOHGxN7zGko2j+0I447TltvJ/9Nj2WTqA5tIhAGmTTq5JI3V0fx1OaFz6SlIroeq5NjThLJOUs/29L5RLKBMrAUibWDPLIi7Hoa3ihyG1xl7+Tx63k4Vpj3PkfkjLJIW27N9nswANG7fRNu4IQNriLmXRcNi10mvN+I2QcuMcS2fpgaPxjZCWSQpZzmbO0nM0jyMCkLY4SlZUXXWMpofUGlvuDzz7y2xccW/qrLL/HNI4fWH6v3NvTLDpHW0lQgDSJpFEMwkz3CyS7OdTc04SLcsQUukcg7eYBIM2EiMAaZNYwiMM197wekh9celZLZjg8XgcXV+FtExbaGO3LmqEAFA9XglA2uI1c1Hz21b698FyYy/6H57DNVY+uBz26ueDLZOUuNZGWHWNxhIgAGmTQJLZheg+XLc9+YNgxXF0fsHOsMdtmbTl/kmwZdoSRy+WhmHJXvzNIW3izzH7CF0bEyHlxjVXy9K4c7Y6pGXqQrviHZb9ornoCUDaRJ9ibgJ0LbQEy4295G891i2WHVB/lh/cqTXtOXvp/2LZKZqLngCkTfQp5izAkBMTcTLQzN7685ASFrYw67c5iwqGREoA0ibSxPITVsg7LJdBwbY367a94l/CClnwfEe5f8q2R7QXOwFIm9gzzHV8wepmL/sHj/2AZT8uYye5tNmrT7HsDs1FTwDSJvoUcx9gsLo5ey+x74bis/wA1XMoP2XfHSyImwCkTdz55Su6YHVzLbWx7ezAZH38ewEqFnLXqc1l2xfai50ApE3sGeYtvgB1s1f+0OO0seyNcMVStqOFWXqJ5vFAANIWD1kSqo8B6uYcuM7SU+dISsjbNP9CR8PrLHtBcykQgLRJIcs8xhigbu7lbjadhRsb7C9tTo2MTRdoKxECkDaJJJrHMP3V7bsVS91sOqNe7Nma8yfu42029tFWIgQgbRJJNL9hOobv+W6sWE46ZK8+5TMVvOFQJfIbCayLhQCkTSyZjHUcTm3eUyXK+E02M3PYyv4hWNGeljz+jy4stxzrRMdL/5C2eMlUHPjpmqvzapC98U3G7toK/zKctDnGshibRUOpEYC0SS3j/MbrWmz1CpNzMo9ZT1bZfwkpbfbGt5gZRCtpEoC0STPvPEbtMqlOtCnvz5iNPrNm/U4Iacv9U5dlkkenYVp0BCBtokupAAJyramtac8xeZ9wuBZC19Kec5lUAggLLsQTAUhbPGUrjnx1b03bcv8k0hs3/3EkPo0TiK7ZnS6NwTw8s9ytMbSMzNT1T5V3jdcPTI3Omda2say94M5NSJvgUiIah9x7S5HeuNlL/s6naN4NNi9b2ZNc2dzr1hpyW4a/zG5ISJRR/D1/OfejtOpsxeDM8jr7fmGBPQFIG3uGcWlh78hq3NjRGMwBf9wG4z7aIL9xcxk7AnVtdYhbf8it6YzrSWVKCi2jOHQuo6a4Y3TevEneHWpyTgDSxjlSYRk0mDebh2dkzUP3qrov5jd/klHz1p2SU5dyExJlL1zJu1LYWtc/adzY4c9pt530Yc2h/MRf2lzsvtliE1GRUu1VrlduFCbmNSVXdGYrBvPbRlJrVdeL2z94WEWha75DL1/Lr+jGatBs8sCqLaSNFT4BNl7d2u+cmM9WDH75uN4rYb6Lzbvx8wdV6XV93RrDwTHbiToIw3e7nbQ1XfP1z+jaYgttE54qtKj1v8xtKu0cm1wMuxrh7IqloG3k06zaALbBu189aRzRL/PkKsxSEIC0UcCJj0MHx7Zxg1neq71Z0v7W7dLgqyshUXb6WsGVwla5SjOzvCHEqJw2e8U/eaXNVvRXzvmGWDlp3NhZXIvgG9XOifmL+c0hmfsXFinVsYpIsv1C2uI19Uvr2+Vd419mN5y6fPJ0GfLvrdslmfV9fVOL+0dWIcfpezFqb/25e98kZFdD+tai1ofk718IdQuJjr9CSBt/bHmxvHNw3Dw8fbmwxf+yCd6+XNDSMjITtUdONqG6V4dO7tcyf8s5HsffURk3doKzEFACdWNznkTaFtIWKbGY1R/QLaVU97x6syjggvHf/eBhVUHbSHy9m7M++QN75f91mQdiRpajjg+Obf65CLmtGJrmqDeYoSEAaaMBFPPDa9v75d3jH6VVh7xUfIXnM2ubhuPvsrFV/tDZdyXmkLlyoF+36MtIyI2P0uRWu4Or7mCHggCkjQJOjA9pDOa02t7T1wpCXiS+wjgVNc/xlqPnG/ex2AZ/tYzM+FITcqNKpYnxiSWN7iFtgsuzw+lqG9Un5tG/dzt9rSAe79S8xN0WYV3hHL5puSBThBQ1b+G7d8t2Do4Fd9qJziFIm7BSWqRUn02ppLgwfId+/qAK3/QwS96h1T63YumamC/pGMtq6F9Y22JmJ1yrvimax9L6galwbVHOFQFIG1ck2doZ1i9/mCr3KRftRtfEPNsuJdDe5nAaVrdUkwvlXeMp8p4vH9e/nlSckCg7c7+itHOMv7unX1B+c3qpIGYDkiWQ86chQtoEkesUeQ+tlgVUwEiCgMwdfXcvdqJi3eMPqnu+ftL49p0QA5jfvlMq5//XrsqeiYB8BeweWqP0KUgAJensQtpin2vfF4sBZz/tbl7r8Nb+UewDiK4Hbrd7Y+dg2rjeMT5X0jF2r6rri8f1b9w6uRej/ctq6I/OBEQmyy61M5246eb5tIG08QyYwPyrNwupLwOKo6/eLEyu7Owcn+PwV3ACl3mvYrU7TJadcYNZOT5X3j2eWd93vbj908zat26XUNCgOHS1qE1jMPPut18HL17Jo/AHN91+qHjZhLTxgjUio58/qqO4BggPvXyt4MvH9el1vS1qPa8zeUQUWnBlu9O1tX+0tL49ubg2oFtqU+vlvdr8tpH0ut5bZR2/zG36MFX+yg3mWh+M66O06rZRfbAnfJeEfBz2uQdp45s/pI1vwvT2jRs75zNqfCc9JxunLuW8llT0fkrlZ1l1v8xrSipVptX25rYMlXePK4amuzWGkdll7cLqtHFdb7LMmzcX17aWLTvmzb217X3L7sHOwfHekfXQaju2ORxOl9vtdrpcVrtj78i6tXe0urVn3NiZN29OL29oDGb1rGlAt9SjNSjHZpu/m35WrtKUdo7ltg6n1vbeLFV+k6M4l17zbnLZS9fyOYmOxMg7yaXXituKlOojq50+BzzU+DidapQ1pI0H5M+YhLQ9gyNWO06Xq6Zv8sz9CpKLFnXCEfjycX22YqBzfE4I963Uo9sgbXxfa5A2vglHYH/vyFqkVFNfEuGuagmWn7qc+0lGzb2q7pq+SZ1x3eF0RcCa/6rUj9WQNr4zAGnjmzAT+2vb+22j+hsl7RIULIqQ30+pvFHSXqQcVU0uLPM5MzCTnD3bhnYikGHMT/ksMc73IG2cI+XY4Lx5s1Wtz2ro/0V2w0tXo/dbFYXE8H3o9aTi8xk114vbHjUOyFWaHq1Bb9qwO+in6uUYPQtznRPz1JT2DgU9gx6L0IXSFNImlEwQ+mGy7A7NGJtHZko7Tz4SSipVfvWk4UxKxctR/IWe+qIlOfrytYIz9yu+fFx/o6Q9va63uGO0Va0fm18xWXZscSVh4bKWUd9HweFcenW4hijnigCkjSuSsbdzbHOsbe/rTZZh/XLbqL5KpclpHkqR91wuaPnqSeNnWXXn0ms+SK06k1Lx7t2yN24Vv3Kj8KWr+RST9FJcnAmJsucv556+XvDGreL37pV/8LDqk4yaLx/Xf5vbdLmwJalUea+qK7VG9aixP7dluEipVgxN900t6ozr5q29Y1tsXllGLUNr2/vU87Wk1mLFaN6zAWnjHbHwO3C73XaH88hq3zs8Gduxtr1vsuwurm3NrVh0S2sag3lmeWNhbctk2d3YPdg7tB7b7C6XW/hxxcrD0s4x6n8V8ENbFFIDaYsCZHQhIQJ2h/PsA6q5W5LKlBLCEbtQIW2xY4+exUigpldLfcsW5e+9xMiYKCZIGxEmVAIBEgJ6k+VlylmRU+Q9JHZQhz0BSBt7hrAAAk8J0K5JqjdZACs6BCBt0eEsiF5s9ngaGiYIZJE4UdpB8/YgJl/pRxKBqOpC2kSVznDBLK5taxdWwx1FOXsCg9NG6p/YojD/JfsoxGQB0iambIaIZUC3dKusA7oWAg13RQbzpnde8nDqllHXx11vsEREANJGhCnuKm3tHVX3aj/Nqk1IlA3oluLO//hymHq0x0dp+PYgBvmEtMUAOq9dmiy7mfV9vmknMMMEr7Q9Hg/1Ci8vXc3j2wHYD0kA0hYSS7wWVvdq/VcJ+DBVHquJGOOVYIR+ZysGwz2EJiTKPs2sjdAeqnNGANLGGcrYGlLPmr7JCVzZF7dsvCYlq6GfQtfuVXXz2juMUxOAtFHziY+jOS1DIa8xSBt/+btZqgzJ3FtY2TPBX9ewTEIA0kZCSdB1bpd3hLvG3rhVbN7aE7T37Jw7OLZNLq42DumiORR2Y+fgi8f14ZifSakcnDayCwutOSAAaeMAYgxNDM3QDKe6VNAimpEfm3uH6lmTXKW5L+8+n1nrvxre67eKe7QLUUjEhMH83r3ycLr2WDGwsXsQBTfQBS0BSBstIkFXeFhNtOx8Yl5zq1pv3oynO7iVzd2+qcWyrvHkis5PMmqev5wbTlB85Xw/Btb0acO5cbLOKQZFC+lagbQJKRuR+3K5oMV3YZNsvJtcdqWwtbBdPThtnDdvWnYPYz4xt28GTZXWUNwxeqtM+VGq/EcX6ZeCDxnvlcLWmeWNyEHStDCYN68Xh16q4sNUeZs6Buuc0ngs+cOQtvg+BYqU6pBXeESFL1/L/+nd8s+y6i4VtNyr6spWDFR0TzSPzPRNLU4uri5bdhlM5G93OLf3j5Y3dqaN6yOzy92aecWQrqJ73Dfx72dZte/dK+dj3vMXLueVdo5xmNeaPq1vnKA/2Bev5he2qw9jtM4phwGK0hSkLb7TSrtykv+lKKntj9LkZV3jJssumwSHu1l7Pak4WzEwb95kYxxteSUAaeMVbzSMawzmc+kcLz4vGhF88WrevaquoRkmryxD3qydz6yVqzTb+0fRSC36YEEA0sYCnmCaHlrtOc2hh7aJRqQiDeS9e+VZDf2Ti0zmO/mVFAaPf75W1Badl7CCOa3i2xFIW3znz9/70bmVr580RioBYqr/3r3yFHmPisUokIW1rfvybn8mr9wozKjv0xnX/VFjW/gEIG3Cz1FkHg7NGNNqe9++U+p/fYp4+2xKZYq8p21Uz/Ih8eDYVqhU+15rnLqUe624rWFQt7GDcWqRnYECqQ1pE0giOHbDand0awx3K7soxpfGqd6dTam8U94pV2k0BjNXH/+3jMx88LAqIVH28rWCu5VdyrHZLfyaxvEpGW1zkLZoE49+f4trW22j+oz6vg9T5fEoZ3xomS8L6zv7F/ObX71Z+LBG1Te1eGxz+A5hI64JQNriOn0RO793ZB3WL8t7tQ9rVF9mN4QcrhUr+Xvxav6HqfKrRW2PFQN1/VNDM0bjxg7fI4oz6/tG50wRc0QDwROAtAk+RTw7uLV/NG4wNwzqclqG7su7LxW0nM+sfTe57AWCD5siEsEfX8x5Pan47IOqLx7VXS5ouVvZ9ahxoEipVo7PTS2t4wGQ5zxLzjykTXIpJw/48Nhm3trTGddH50xDM8a+qcVujaF9dLZ5ZKZ+YKq6V1vePV6kVJd3T8h7tXX9U4qh6bbR2c6JedXkwvS0yiQAACAASURBVMD00oh+ecJgnjNvrm3vH1pt5P2iJgiwJwBpY88QFkAABARHANImuJTAIRAAAfYEIG3sGcICCICA4AhA2gSXEjgEAiDAngCkjT1DWAABEBAcAUib4FICh0AABNgTgLSxZxiXFg6ObWVdXM7XGJcU4LR4CUDaxJvbMJF5V4oxbuyEOY5iEBADAUibGLJIEoPOuJ7bOuz9fqBHayBpgjogEL8EIG3xmztSz40bO8mVnb6PorDuMik41ItnApC2eM4ege/VvdpXbxb6dC0hUcZmpkaCDlEFBARBANImiDTw4YRxY+fb3CZ/UfNu3yhp3z+y8tEjbIKAcAhA2oSTCy49MW7sUMzO9vmjus7xuXgROOPGjkq7UKRUJ5Up5SoNl5hgS7wEIG3izO3t8o7g+7WAkldvFiZXdjYO6aaW1vieFo2cslfIijtGk8qUIdX5bEolXoOQ85RsTUibCFO/tr0foGK0u89fzj2fWZNaq5KrNMqxudFZ08La1s7BMX90jm32te19vcmi0i5QCFk4zy8XtAzrl/lzD5bjnQCkLd4zGMJ/vckSThEYlL9xq/jjtOrE/OZ7VV2y5iGf9mkMZtq/Ad1Sy8hMefd4tmLwbmXX03ku75a9eCWPgSfBTW6VdWgZLccXghqKxEUA0iaufH4XzbHNcfZBZbAQiLXkQXWP3mQRYSIREgsCkDYW8ATcdGppTaxCFi6ui/nNLSMzh1a7gNMC16JHANIWPdZR7qlpeDqcCoi4/M3bJVkN/XhKjfLJJsDuIG0CTApnLrWN6kWsYiFDeye59EnT4DQWe+fsJIpXQ5C2eM0cod96k+V8Zm1IFRBT4UtX82+Xd/RNLRJiQTXRE4C0iT7FnmObo7Jn4lx6tZi0zBdLYl5z/cDUNhZ7F/+JHFmEkLbIeMV17R6t4Xpxm08U4nrj2xxFkVI9b96M64zAef4IQNr4YytQy3rTxq8mofwmRxF30vbevfKMur5ujWFz71CgcOGWYAhA2gSTiqg7Yt7caxqeTipVvnrjmalBhCZ53+Qo5CoNbtCifoLEd4eQNoHmb2PnYGpprXNivqJ7okip9v3V9GqVY3PDM0ar3cGV68c2x+TiWv3A1MPqnpCfbUZT7F5LKvpFdkNqraq6VzusX+YwTK5wwU5cEIC0CShNhtWtmr7Ji/nNJFLy5q2SJ02DfNzL7B5a1bOmIqX6vrz7a1nju8llJP4wqPPqjcKP0uSXC1qeNA02D89MLa3tHcblbEvmrT0BnUZw5TsCkLYYnwjmzd320dmH1T3vJJeGU4cLMsW9yq6CNnXT0PTwjHFxbfvw2BZNv50u98rm7uicSTE0XdiuftTYf6+q+1px2wWZ4pOMmp/dr3jtZtGpS7mnLuW+fC3/tZtFb98p/dn9ig8eVp3LqPn8Ud3XTxqTSpWPFQNVKk3H+JzGYF7Z3BXZ7Vjf1CIG00XznKTtC9JGi4iXChqDObtp8LOssCPOXrice6WwtXFQt3vI4/QbvMQmVaPFHaPXi9ulGr3g4oa0RTUlu4fHjYO6C7KwbydPXcq5VaZUjs1C0aKaGC46M27sJCTKLhe0cGEMNtgSgLSxJUjYXmMwZ9T3vZ5UHO6p87Os2sqeiZXNXUKDqCZAAt6XMNmKQQH6JjWXIG38Zpz2Nu31W8Xpdb2jcyZ+/YD1qBB47165958urK0TFd5UnUDaqOiwOXZks5d3j799J+zLgYREWVZDv2UXo0/ZYBZQ25nldd8tOVZEjHliIG28pKBhUPfzB1W+Ez3kBv5h5wV9jIweHNs+f1TnSzSSG6M8fN8tpO17Fpxsza1YvpY1+k7xcBv4V50T2gIxYtzYuV7c7sv1+cxagTgmZTcgbVxmn3D2xxR5D5e9wlbsCNgdzrKu8Vf8vlT7yfVCzK0Uu4R83zOk7XsWLLeGZoy+f7epN64WtbHsC81jTsC8uVvZPfFJRo1/rj9Kq55Z3oi5b3DA4/FA2rg5DfTLG/6nOO12irwHU4xxgz7qVnonF+5UdD5/OTcgy1cKWzElSdSzEbZDSFtYNBEd+Czr+5+QA874cLvv3Suv659c3tiJqCNUjgmBte19xZAuubLr3bshvqj9MFXeMKiL1DGX2x1pE9QnJwBpI2cVtqbGYA6nXyTl3+QoKron5lYwq2JYwjE5sHt4rDGYc5qHAp46/XP6s/sV1b1aZt/DbmFmYD7zCmnjgG5N36T/6c54+/NHddmKAZV2AV9ZcZCVCE1Y7Y6Z5Y2WkZlsxcAvc5vevF1CncczKZWlnWN7RwynKunWGCJ0ENUjIwBpi4xXyNo64/djNamvB/KjXz6uz20ZxlcKIYGzLDw4ts2tWLo1hvKu8RR5z9dPGqlHVvtn7Z3k0rTa3sFpo5vF4+TBse3j9GqWUaA5NQFIGzUf0qMPqnv8LwBut3/+sOp6cXte60jbqH7auH4Q3RmNSBEIst72wbHOuK4cmy1SjiZXdH7+qO61m0UMsvN6UnGKvEc1uWBzOFkGunNwfKWwFQMbWWKkbQ5po0VEWkGu0jC4Zpg1efN2yQWZ4m5lV17rcOOgbmB6aW7FIsHHWLfbvXdoNVl2dUtrQzPG9tHZ6l5tbuvwzdL2cxk1L1/LZ4bX1+rj9Oqshv5ujWGfo39OxufNn2bWnr5egB/aSK8rpvUgbUzJhWq3sLqV2zL81h2an2l8Vw7nGy9czvvZ/YoLMsW1orb7Vd2PGweKlaM1vdo2tb5vanHCYJ5bsaxu7e0fWdk8T4UKneOyI6t9bXt/bsUyOmfqmphvGNSVdIw9auy/W9l1qaDls6y6MykV/gNlOST54pW8GyXtjYO6xbVtDqPaOTjObhr0+nmjBNO6cYg2tClIW2gubEp3D49r+ye/fFz/wpU8Di85zk2dvlbwbnLZR2nVXz1pvFLYereyK6uhv7BdXdo5Vt41XtkzUdWjqe7V1vZN1g9MNQ7qmoanW0Zm2kZnlWNznRPz3RqDanKhb2pxcNo4PLM8ol8enTWNz69oDGb1rKlvarFzYr5VrW8YmKru1ZZ2juW3jTxpGsyo63tQ3XO7vON6cfvF/OavnzR+/qjuo7Tq91Mq30kufe1m0cvX8n90MYfzYGkNns+oyWkZ0hjMnI/JcLpcTcPTZx9Uen149WYh5kRgc30RtoW0EYJiUu3YZtcZ1xVD0ynVPR+kymmvLlSIJoGzD6ruVnbV9U9OL29wLmfe0+Xg2Fbdqw1YSQevhphcS5G3gbRFzoxpC7vDadzYGZox1vVPPVYMXC1q+zBV/uJVtr8HRVMO4rqvt++UXi9uK+8aH5tfObTyu7jE2vZ+aeeYb/o2H7eMul6mpw/aRUYA0hYZLz5qb+0fTS2tK8fnThaRqur+6kkD+VgE3zWDDX8Cp68VnM+ouV3eWdiuVo7NTRvXo7ZWVt/UYnJFZ8jfIh5UY1oEPi6g0DYhbaG5xLzU/xbvSdNgckXnt7lNH6bKmY1d8L/sRbb9elLx+czaGyUng2Na1frJxbWYfJw7b94saBv54GHoSfqev5zL4EusmJ+Ece0ApC3+0ud0uSy7B3qTZWB6qWl4uqRjNKOu70ZJ+xeP69+7Vy7KJ1yvfl0rasuo76vonvCu+Le6tWd3sh1lxjL92sXVsq5x6qVjv8lR6E2YDoQl6YibQ9oiRib8BgfHtuWNHY3BPDC9pBybaxjUlXeN57QMpdf13invvFLY+ovsho/Tq396t+yVG4UxeR3pvXP8UaLs1ZuFZ1IqPsuqS8xrvlPemVHfl982IldpWr8braIxmIWgXwEZ39w7bBmZSa7opF18mtln8wHdYZcZAUgbM26ianVktW/uHRrXt6eXN8bnV8bmVkb0y4PTxr6pRZXW0K0xdIzPtY3OtozMKIZ09QNTtf2T8l5tZc9EWddYccdoacfJYJGqHk1Nr7au/2SYSPPwTKtarxyb7ZqYV2kN3w0QWToZHTJn8o6tW9vej69vKpwu98mn8i1D59KrSZ7o2Xw2L6pzK3bBQNpixx49C5vA3qG1X7f0pGnwi8f1JHLmrfPTu+VsPpsXNpJ48g7SFk/Zgq98E1jZ3G0bnX1Y0+MbYUsuat/mKJpHZo5sdr6dhH0SApA2EkqoI04CLrfbuLHTr1us7Jm4Wap841bYBbApBO70tYLUGtW4wSxORnEbFaQtblMHxyMksLF7MD6/0jiky1YMXipoOXO/gkKwaA+9faf0XlV388jM+s5+hI6gejQIQNqiQZmTPpqGp5MrOos7Rrs1hrkVC7OZXTnxRPhGLLuHOuN6x/hcYbv6VlnHuYyalzj66uOCTFHVo5nG2i6CPwkgbYJP0bMOjuiXf7Xm/PspT7+1fu9e+be5Tel1vVUqTb9ucdZkseweOF2uZxuJc8+rXyrtQk3fZLZiIKlM+eXj+neSS2lvuCKq8NLV/G9zFPltIwPTS/jnJI7OJEhbHCXrGVe9GvdxWuixCK8lFX2cVp2Y13yvqjunZai6V9s5MT9hMBvXd/aZznn9TPd87jicrp2D45XN3ZnldfWsqVtjaBqeruyZ4E+/AsTug1T5g+qepuHphdUtPgOFbR4JQNp4hBsd0zsHx6OzJrlKc7ey6+yD0B/6BFy6P76Y8+qNwnfvln2UJv/icX1iXnNSqTJF3vNYMVDYrq5SaRRD0x3jc4PTRo3BHNHf+PyKetY0NGMc0C31Ti52a71j4vTNJ2PipusHpmr6JuUqTUX3RGnneEHbSGZ9X3Ll01HEH6bK37pTwtWTY0DIFLuv3Sy6IFM8auxvHpmZXt7ArVl0zlu+e4G08U042va9SlfeNX69uA2f2Qco2pu3Sz7Nqr1W3JbZ0C9XadSzpq29o2hnCP1FhQCkLSqYY9fJ3pFVZ1xvVevzWodvlLR/mCo/dSlwbeCA6z+ud398Meend8t+kd1wq6zjSdNgda+2R2uYWlpb3zngaVK22OUWPVMRgLRR0RHrMfPW3tj8SrfG0DCoK+0cz1YM3KvsulLY+sWj+vdTKgQ7uciLV/Leul3yQar8y8f1lwtakiu7Muv7CtpGGgamBnRLsyZLTOb8EOtJEu9xQdriPYN8+W+1O3cPj9d3Dozr27MrFs3C6oh+WTW5oBybaxzUVfdqSzpGc1uGsxr6TyYEL+u4WtT6TY7igozh3y9zm5JKlam1vTnNQ+Vd441D010T8yP65enljeWNne39I7tTEq99+Uqn9OxC2qSXc0QMAhIgAGmTQJIRIghIjwCkTXo5R8QgIAECkDYJJBkhgoD0CEDapJdzRAwCEiAAaZNAkhEiCEiPAKRNejlHxCAgAQKQNgkkGSGCgPQIQNqkl3NEDAISIABpk0CSESIISI8ApE16OUfEICABApA2CSQZIYKA9AhA2qSXc0QMAhIgAGmTQJIRIghIjwCkTXo5R8QgIAECkDYJJBkhgoD0CEDa+Mp5kVId/FfcMRpQqMGq43xlAHYlTQDSxlf6iztGSRYZgLTxlQDYlTYBSBtf+Ye08UUWdkGAgACkjQASoyqQNkbY0AgEuCEAaeOGY7AVSFswE5SAQNQIQNr4Qg1p44ss7IIAAQFIGwEkRlUgbYywoREIcEMA0sYNx2ArkLZgJigBgagRgLTxhRrSxhdZ2AUBAgKQNgJIjKpA2hhhQyMQ4IYApI0bjsFWIG3BTFACAlEjAGnjCzWkjS+ysAsCBAQgbQSQGFWBtDHChkYgwA0BSBs3HIOtQNqCmaAEBKJGANLGF2pIG19kYRcECAhA2gggMaoCaWOEDY1AgBsCkDZuOAZbgbQFM0EJCESNAKSNL9SQNr7Iwi4IEBCAtBFAYlQF0sYIGxqBADcEIG3ccAy2AmkLZoISEIgaAUgbX6ijL227h8cag7lxUJffNvJYMZBW23u3sutGSfvF/OZvc5uuF7ffrezKqOvLbRmu6dPOrVj4ijzO7R7bHHqTpW1UX9iuftI0mF7Xd6/qBOOl/JZvc5uuFbclV3am1fY+aRosUqo1BvOR1R7nEYvTfUgbX3mNgrTtHVq7JuYz6vsuyBSvJxWTLMXgX+eVG4VXi9qKlGrjxk6kFJwu1wWZguQvUssU9Um6uyBTUFgIecjpco3OmXKahy4XtLx3r9wfEeH2BZlC1jREsszFBZniw1T5e/fKE/OatQurL13N79YYPB7PgG4pIVEW0j0UMiMAaWPGjb4Vf9I2ubhW3jV+QaYgvPBIqiWVKVXaBfqo/Gqk1/WRWO4cn/NrxHzT7fG8m1xG2+O59GrCPhZWtxoGdTdLlc9fzqU1S1jhgkzROKjbPTym8EE9azr7oNLj8WgXVhMSZZ9m1Xo8nsS85pev5VO0wqFICUDaIiVGWp9zadvcOyxUqj9IlRNeZgyqfS1rJH9QVWkNJF18m9tEioyynsmyQ9JdVkM/pZmTg3X9k18/aSSxxqzOT++WN4/MhHNDPWv6+Dv91S6svng1//2UirkVyzvJpe8kl4ZrgnIGBCBtDKARNeFQ2maWN26UtDO7zBi0ahqeJolw/8j65u0SEvsk1mjrDM0YSfrqnVwMZ2rn4PixYuAn1wtJ7LCvkyLvCemJetb02aM6713be/fKGwd1abW9TcMzH6XJQ9ZHITMCkDZm3OhbcShtr96M0tXou55b1Hr6CD2eOxWdviYUG+PzKyTWqOvU9k9SdOE7RPEwmFxJ5K3PFPuNpDJlcFBj8ytfyxo9Ho/GYP4yu8Hj8Xh/Zfvqu+3g+ihhRgDSxowbfSsOpS3612RCoozkp7cWtZ7k+k+u7KTnRVfjUWM/SV8UZjrH50gscFunSKmmcAmH+CMAaeOLLYfSFpNrMiFRNjRjpKazvrNPKATUdkiOXi5ooe3r8+8e9MJZ2z+y0lrgowLULVxGeC2HtPGFl0Npi9U1ebWojZbOlcJWEjlYWN2iNUVd4eyDKtqOMuv7qI3QWuCjwtt3Srf2j6gdw1HOCUDaOEf61CCH0ub9OSbcVffevfLLBS05zUNto/qppbWF1a217f39I6vT5frVL/3GjZ3x+ZXOifmaPm16Xe/L1wrC2QlZTnvjVt2rDdkwoPBJ0yAb0HaH89Ql+iEa3jFiFB1RvI15Pan4gkyRUd/XOKjTGMxzK5bVrb3dw2O703lsc5i39iYXV1XahcZBXZFSfeZ+RUCA1Lu4caNICk+HIG08gfVwK20Bj2OnrxfcLu9Qjs3uHVojCsC8tVekVFNfh/5HaW/cDKtb/vXDbb96szAiPwMqL65th7PsX765dxjQMGBXOTbrXz8hUZaY11zbP7myuRtQk3r32GZXDE2Tj+99+04pPlqgRsr5UUgb50ifGuRW2pqHZxISZefSq4s7Rg2sH+40BjPhZXnqUg7FO0dvqL/IbgjQi5C75q09xqz7phZD2vQvPH2tgNa+99H+3eSyzPo+9u9t17b3rxYRPY8nJMpIvlWg9R8VyAlA2shZRVaTW2mL9O6M1tfRORPhKPyuiXlqa8XKUX+JCbdd3aultkNxtLJHE86sr5xwbPCRjctPPncPj89n1vp8oNiQqzQUAeIQ5wQgbZwjfWqQW2njw8uK7gmKS9F36EF16KGnPpcmF9d8lSk2PkxlPiT1ZqmSwrL3UH7riM+laG6oZ020viUkyu6UczACJppxxXtfkDa+Mkj4k1YMn1PsTifJHccXj+tpGX3wkP71ZUKijPGLwjdu0X/83zcV9jsEWv9ZVnhY3UOrbucyalj2guYREYC0RYQrgsrClzaPx5OtGKC9Jn/+sIo27OymQVo7CYky5RiTT+VXNndJjNO+Q6CNgnEFlXaB1sNXbrB6kcLYN8k2hLTxlfq4kLauiXnaa/LN2yW0jAg/8CT8OSygu7bRwNeawT6fSTmZSyNW/1l2D4NdCi45OLbFykMJ9gtp4yvpcSFtcyuW4CswoOSFK3m0jGwO50+uE42YYzAG4mEN/eNeJsGEH7RRsKlwmmDAoMG8yaYLtI2IAKQtIlwRVI4LadvaPwoQspC7JGE/IPi96eTT1MnIZoXzeDxnH1SG9Mq/cHCa5pswkhDY1DmbQu9kDH9XZRNanLaFtPGVuLiQNurvHHzaQcKok+DZNiFRFumn8nuH9B9+/uhijsPpInGSvzokM4NC2vjjH2wZ0hbMhJsSqUnbzsGxTwqpN1xuNzni/u9m1qY2+E1OxJOGkztAWBPSRggqatUgbXyhlpq0eTwektFnCYmyEf0yOfQnBO9eK3smyA3yVBPSxhNYxmYhbYzR0TSUoLQ1Duqob6+8R7MVAzTs/A5/8bie1qZhNfY/z0Pa/JImiE1IG19pkKC0mSxEA9DIP5V3uty0unYmpYKvFEZiF9IWCa1o1IW08UVZINJmszv3j6xbe0fmrb3FtW29aUO7sKoxmH1/tNoR0SJynz+qIzGoWVgl4a4xmGmtPaxRkZhiWcfucB5a7dv7R2vb+8b17dkVy9TSmo+hxmCGtLEkzHlzSBvnSJ8ajJW0GTd22kb1GfV9n2URfbZNqx0RSVtlD9F3qQXtRNNq57eN0LrXSff1PrMEmyy7XRPzsqahCzIFyZg1Wj8x+QezRDBuBWljjI6mYTSlbWF1S67SXJApXr6WT3KNRVqHJlS/w7MEY4ATEmWEn8rTqvPzl3P3jiKbsc7P2cDN5Y2d2r5JDrUsgDMGfwQS53Mf0sYX3ShIW7fGkFnfRzJYNOAai3Q3IkbvECyEnJAom12xUJslGU2SmNdMbYTk6Mjscl7ryPmMmkixRFof0kaSDq7qQNq4Ihloh1dpU8+avs1tivTSYlw/MDbKfZKnyIREWXnXOKUZD8k35+XdNEaou1ha306R03/FxZhbQENIG3U6uD0KaeOW5/fWeJI2k2U3tUYVcM3wvft9VARb4/MrJP541+KksJdaSx+mzrhOYYHikM3uKO0cO0323StJOCR1IG0UGeH8EKSNc6RPDfIhbR3jc68lFZFcRdzWiZQRYe/GjR0Ky7RTnJPMthTS/qzJ8gn/j5/BECBtIdPBUyGkjSewHs6lrWFgKvhqiU5JpIxS5N0kjtX2T4azTDIlyaPGCIb++jqaMJjfSS4lcY/zOpA2XxaisAFp4wsyt9JW3jXO4Eo7m1J5p7yztHOstm+ybVSvmlwYnTP5j8YiGTgW0eAPL02SVVoSEmWXC1rC0SdZA1A9awrXPFz5gG6JwUvkt++UXi1qK1Kqq3u1zcMz3RrDsH45ACPGtYVjHqtySBtf5DmUNuXYHKGunb5W8G2OIr9tRGMwE86MRmI5UkZHVjuJ2YRE2frOfkjj14raqC0weBpdXNt65UYhtVnf0c+y6jLr+/qmFgknPYe0hcxjDAshbXzB50ratvePSCYse/5yrqx50LJ7EGk8vouZYiNSmx6PJzGP6AVu8/B0sPGDYxvtvRWDNZtvlXVQxOg7dKeic2Z5I9gr6hJIGzWf6B+FtPHFnCtpy2zo91114TbeSS6doxsmFi7OcDb9y8O1pShvG9X7Wwi3nVTWEWyEZCKj8XlzcEOKkpaRk4Vcaf+6NTQrE4brAtIWjkysyiFtfJHnRNqG9cu0V+Pzl3NHZiOYJiggYFr7DH5r83g8G7sHJJZ/cr0weInVR400ak74MYMv0t3D45/eLaP1h81SoZA2H22BbEDa+EoEJ9JGMqC0YVDHJgbaC56ZtHk8HsIV/IKnFKdtmNM8FFHIJLMtpday+swe0hZRRqJQGdLGF2T20ma1O2h/crpX1c0yAP6krUpFv+R7QqJM9qxOaRdWaV2KdBQFre6cS68OvnmMCCxtF/g8PiKe7CtD2tgzDG2BvbQ1E/w81K9ju64wrY4wvmtbWt8mMf7VkwZ/grTfaZ1Lr/avT7u9srlH60Ye65XnIW20iYhyBUgbX8DZSxvJ1cJ+aUvay56xtHk8HpIV/F64kmd3OH1p+CyLZsa3/AhliCQRA9NLPgeYbZAkK9KbTWaeoJWXAKSNrzOB5Iqifkih/Rjo9aRi9t7zKm20LwS8vfteg0wvb9D6M7W0FlHUJKsIUn/yRdIdpI2EUjTrQNr4os1e2n52v4L6Oj+fWcvee+ouvEcZ96JbWiOxX/jrmSkrumlmsmQQ8i8JRtgRDm+m4ABpo4ATk0OQNr6ws5e2127SfAnPYER+cLQk0hPciryExP7F/KfTrn2To6Cu7xNBcgdIBjwTfnJA0SmkjQJOTA5B2vjCzl7aTl3Kpb7OExJlAv+tjXAFv1duFP7qh7m5lU3aeKcj/07gxSt5tGaHI1k/MOQZA2kLiSWGhZA2vuCzlzaS3+DHDZENyg+OlvayZ/MawePxDM0YSbpY3tih/ST+80f1wf7Tlrx9h36ejzK6eTFpe4G00SKKcgVIG1/ACaVNuxh2bSfaCcsSEmXyXi2bAFrURJ9DsenC6XKRSJtiSHelsJW6ZjWjYElE50ZJO5sYp5bWSB578YaUDeRI20LaIiVGWr+wXU19oXqP6k1hv8Qmma3/7Tulh1YbqU/P1stWDJB4yPKuzePxkKzgd7u88wXKJ8fT1wuY/SL2kGxS4i6mK2MphqYJMULanj0B+d2DtPHFN1sxSHLGG1a3wnlwtYjmLsZr/2pRWzgL4crnViyJ+c0k7nnrhLNDWN40TH/xv3W7hNqfrIZ+wu4CqtE+53r7ffduWUBD2t2t/aP0ul5qt/2PQtpokXJYAdLGIcxnTBGuYGCy7D7TzG+njHj6ydE50kkZ51YsabURXI3eK9PPKSabu4dW/yuc2TbjZRCmyAagJCTKipREq6N6PJ6t/aMipZrkVzz/YCFtTM4epm0gbUzJ0bVLruj0P63Dba9th56L0ePxjJGtn+K1TLu20+isiYGoeY3TxUp/nHAFv3CUfKND6HsKquFwusiXd7la1La1dxRk4/sCg3mTgah544K0fc+R/y1IG1+MaeeJ9Z7u2/thL6RDqz2i+4JvcxQ1fZMq7cLciuXg2HZsc6xt7+tNliqVgvLpBQAABpZJREFU5uO06nCqQVLOnhHhL4/hnGG5RDzho72397fvlFZ0T3SMz00trW/tHzldrs29Q4N5s3NinuUCiZA29icSuQVIGzmryGoSXgb7x1QvAap6iCbPCKcIXJVHFnmo2qvb+4ydOX29wOVyh7JKWhbR/S9jP2kbQtpIE8ZFPUgbFxRD2SB5LZiQKLP5fRkebMbmcH6czuqGi/Z68/7GRF0t2DEGJdRdUBwl/wmMwiuSme8ofCA5RPvrKqSNIkGcH4K0cY70qcEPU+Uk14PbTXM/0q0xkNhhVuftO6Wd43OqyQXq5pwwIlzBL9gT8+YeewcWViNY8yXYB+qSl67mexcepK4GaWOfR3ILkDZyVpHVJBlw++atEhKjDYM66muG2dEvH9fPLJ+svr68sUNtgcRJ2jraRfo5JoPdYPMCIcAlwiUEg32gLjmfWTs+v+Lti3rqUEhbQEZ43YW08YWXZJn3zx/VEXZPO1Kf+vILPppaq9o/svp6D67gX+KrxnLD3ybhNoPFRimcvF7cTtgvYbXUWtXOwbGvx0+zaikaQtp8oKKwAWnjC/KLV/MpznLvoaRSJXn3XP1adKeiM3jKM+rvhMidpK5JuIKfj9vp6wXUBhkcJf8Gw+dGyI2QGO9WdoWs7C2EtDHIF+MmkDbG6KgaEq4xLGuKbPmStlH9t3TT/lBcWleLWsPdBFEPVaEKNZJjnRPzFO4FH+LkBUKwg6NzpqRSZXB3hCUUGEs7xyiMQNqCc8FfCaSNF7bqWRPFKe47VNc/yaB73dKarGmQdtknXy9JZUrl2Cz16su5LcMXZIpwfwycDNckXBchy9nPEBnODY/HY1jdym0ZJnzbk5Aou5jf3DwyQzHE2uPxqCYXQgbiLYS0UaSD80OQNs6RnhgknPZjQMdqSv5582ZNr/aCTHEuo+a9e+Wv3ChMSJSduV9xqaAlq6G/fmBqRL/scH6/7AAvoca/UePGTsvIzI2S9k+zas+kVLyeVHTqUs7bd0ovyBQPa1RVPZq+qUWW613FP6T4iwDSxkvOLpJ9fE59C8CLZzAKAtIgAGnjPs+La0SL1L2fUsF937AIAiDwHQFIG/cnQhnlb8m+n8BSa1gtV86937AIAiIiAGnjOJl7R9ZzZJ9GKcfnOO4b5kAABH5NANL2axIc/Z98bsL1nQOO+oQZEACBQAKQtkAibPaVY3O+503qjWzFAJuO0BYEQICaAKSNmk8ER1Vamo/MfWL31u0S3LJFQBZVQSByApC2yJmFamGy7PqUi3ajskcTygbKQAAEOCMAaeMAJeFnVV7JO59Z63C6OOgVJkAABMITgLSFZ0N2RGMw096m+Sq8dDV/bsVCZhi1QAAEmBOAtDFn5/F45KrIJvimWFCZlR9oDAIg8CwBSNuzPIj3NAZzpHOo9U0tEptHRRAAAVYEIG0R49vcO8xpGTp1Kcf3mEmyUdY1HnFPaAACIMCUAKSNCTmS5dD99U4xNM2kG7QBARBgSgDSxpBcZkO/v3iF237rTolKu8CwDzQDARBgSgDSxpScx0O70mhSmXJhdYt5B2gJAiDAlACkjSk5j8fhdJ1JqQh5v3bmfkXbqJ65abQEARBgRwDSxorf7Irl+cu5AeqW1dC/vX/Eyi4agwAIsCMAaWPHz+Pp0ny/lEmVSoOJc9kCRXsQ4IIApI0DihXdE3hXwAFHmAAB7ghA2rhjCUsgAAKCIQBpE0wq4AgIgAB3BCBt3LGEJRAAAcEQgLQJJhVwBARAgDsCkDbuWMISCICAYAhA2gSTCjgCAiDAHQFIG3csYQkEQEAwBCBtgkkFHAEBEOCOAKSNO5awBAIgIBgCkDbBpAKOgAAIcEcA0sYdS1gCARAQDAFIm2BSAUdAAAS4IwBp444lLIEACAiGAKRNMKmAIyAAAtwRgLRxxxKWQAAEBEMA0iaYVMAREAAB7ghA2rhjCUsgAAKCIQBpE0wq4AgIgAB3BCBt3LGEJRAAAcEQgLQJJhVwBARAgDsCkDbuWMISCICAYAhA2gSTCjgCAiDAHQFIG3csYQkEQEAwBCBtgkkFHAEBEOCOAKSNO5awBAIgIBgCkDbBpAKOgAAIcEcA0sYdS1gCARAQDAFIm2BSAUdAAAS4IwBp444lLIEACAiGAKRNMKmAIyAAAtwRgLRxxxKWQAAEBEMA0iaYVMAREAAB7ghA2rhjCUsgAAKCIQBpE0wq4AgIgAB3BCBt3LGEJRAAAcEQgLQJJhVwBARAgDsC/x/2Gm07NubrbQAAAABJRU5ErkJggg==;textShadow=0;labelBorderColor=none;shadow=1;imageBorder=default;strokeWidth=1;dashed=1;" vertex="1" parent="1">
          <mxGeometry x="290.91" y="190" width="94.09" height="100" as="geometry" />
        </mxCell>
        <mxCell id="LcjQ42n0fO6VPhbINmEc-4" value="&lt;font style=&quot;font-size: 24px;&quot;&gt;UDF&lt;/font&gt;" style="rounded=1;whiteSpace=wrap;html=1;verticalAlign=bottom;fillColor=#dae8fc;strokeColor=#6c8ebf;" vertex="1" parent="1">
          <mxGeometry x="500" y="210" width="155.91" height="130" as="geometry" />
        </mxCell>
        <mxCell id="LcjQ42n0fO6VPhbINmEc-6" value="" style="shape=image;verticalLabelPosition=bottom;labelBackgroundColor=default;verticalAlign=top;aspect=fixed;imageAspect=0;image=data:image/png,iVBORw0KGgoAAAANSUhEUgAAAdkAAAH0CAIAAAD+F8C9AAAgAElEQVR4Aeydh5tURdb/f3/S7ruiIghKElAx6+oa1qzkJFklSxAxoCtBgiA5Sc5IBlGUHIc0kYFhGJg83V2/p+pUnTpVt2737e5JjuVzn9kLE5iu7v685/2e7/me/8f8f/4E/An4E/An0NQn8P+a+hfw/74/AX8C/gT8CTDPYv8i8CfgT8CfQNOfgGdx0z8H/jfwJ+BPwJ+AZ7F/DfgT8CfgT6DpT8CzuOmfA/8b+BPwJ+BPwLPYvwb8CfgT8CfQ9CfgWdz0z4H/DfwJ+BPwJ+BZ7F8D/gT8CfgTaPoT8Cxu+ufA/wb+BPwJ+BPwLPavAX8C/gT8CTT9CXgWN/1z4H8DfwL+BPwJeBb714A/AX8C/gSa/gQ8i5v+OfC/gT8BfwL+BDyL/WvAn4A/AX8CTX8CnsVN/xz438CfgD8BfwKexf414E/An4A/gaY/Ac/ipn8O/G/gT8CfgD8Bz2L/GvAn4E/An0DTn4BncdM/B/438CfgT8CfgGexfw00xgkkEom6WKyyuq60vDqvpPxCwZ0/r9zad65o8x/XVx/OWbTv4uwdZ6dvPDlx7fHxq/8ctfzYyGXHRi37feTiw0N/OjL0pyP9FxzuM/dA7x/295m7v8/cA33nHew3/9BHCw4MXXT44yWHP13268S1x7/ZfOqHXecW7bu46di1nSfzj14qPpdfmldSXnKvurqmLhaPs0SiMR6q/zf8CWR0Ap7FGR2b/6bwE0gkErF4vLyqtqi0Iqeo7MjFGxt/v75wz/kvNpz4ZNnRgQt/fX/Owde+3fPC9F1Pf76jx5RtT07Z9vikrd0nben22dauE7d0nbjlsYlbukzY3GXCpi7jN8LVedzGTmM3dB63sfO4DZ3Hbeg0dn3HMes7j13faSz/2Hnshs5jNzw2dv1j49Z3Hb+++4SN3Sdu7DFp00tfbH1jxs4PZ+8bueTXqetPLNh9dvXhy/vOFJ68VpJXUn63sqYuFot7QIc/lf4zjXkCnsWNedot6t9KMBbn1W68pi52t7Km8HbFyeslW//MW/DL+Snrjg+Yf/D17/Y+O/2X7lN2dp20TV+fbX1s4paun23tKm66TNj8mIJv5/GbBII3dx6/iV/jNsLHThy+AGLO4k5jN3QcwyksiLyu45j1HUav7zh6XcfRP4uP6zp8+nOHT9c+Sq9P1jz6ydpHP1nzyMerO47+ufv49S9M3fzejG3DFx2csfnE6kMXD50vulp8t6yypqYuHo/78rlFvVD/Kg/Gs/iv8kw1i98zkUjUxuL3qmpvlFXlFJUdunBjzZGrM7acGbn0t/dn73/+q18en7qz2+Tt3SZv7zppW7dJ27tN4jecvIDjAIiBxYjgLhNsEJOKWIIYKAylcccxnMX8IwcxZ7EA8c8uEHMWw/XIx6sf+Xh1+1Gr8GOXMT//e+rGQfP3/2/r6d0n83IK79y6V1VTF/NFc7N42f09fgnP4r/H85zdo4wnEpU1dYWllbzyPZ43Z/f50av+7D334Etf73ni813dp+wU145uk3cgiIHFuhwWRLYqYgpiwLFkMdci5GVVxAhiLIoJiH8GEBtFsayInSCWLG4/alX7kSvbiav9qJXdxq1957tdn63+ff3RK2dzb9+pqPaVcnYvH//dkU7AszjSMf1tv6i6NpZbUn7owo0lB3ImrDnRa97hl7/Z+9S03Yq/QOGdSGGoiFOCGBRhtzqhpAleEQt1WGnEXJqw1ImOXJ2AijhTEI9cCSBur27ajVjRbsSK9iNXPjFh3Yczd3+z8c+9Z/JL7lUlfJH8t30bNMoD9yxulGP+q/0jiUSisrru5LWSJQcufbryj3dnH3rxK1kCPz6VF8LdJu/oPmUHENkCsZYmUJ0Q6jBqxAhiKk1odUKJxVwmVixWioQhEyuN2C0Ty+pYyMQBaUJVxMBfURdbLH54+HKAcqdPV788bfOYZUd2n8orLa/2WvJf7bX8l/l9PYv/Mk9V4/yiiUTiTkXNvnNFX6w//s7sQy9+vafHtN2PT92FF8oRWBqDLiE/okaMIIYb1axTHonNqUGsjBOdxkrjBO3XQZsurF/HQaz6dVFA3M4sioHC7UaseHj48rbDlrUZtqz9yBXPTd4wfuXRo5eKq2tjjfNc+H/lb3UCnsV/q6c7xYMtr67df65wzMo/Xvxm31MCwU98LkHcfcpOqIhVUYzqBO/UoUwsm3WZgVirE4ZxwpQmeKcuuXEiJYh5y07AlyvFo1aBUoz8BQTDHx8evlxdyx4evuyRkctfnLJxwc7TxWWVXrJI8WLyn07zBDyL0zywFvrltbF4TmHZV5tPv/TN3ic+3w0IxhsoilGRcFbEVpsOjRMgTaCDjfbrDBObataBa0317qyKWFgmxgQdbNrERkAs+3XomhDGCa1OtBMgll27ESs4kYVSjOoEFMVtOY45iNsOW9pG1MgdRi0f/uP+Py4X19bFW+jLwT+sJjgBz+ImOPRm9U8mGLtTUbP5z9z+Px55ZvovyF+8CQexdE1gv87AsSiNqXECZeLH+BwH966hTKENxXqmAxxstFmnQBxwsHX4dG2HT7mPLQhi8BRD/auhPHIlL4eTysQcxMOXBUHMiTx0SdthS1/5fMPaI5fuVFT7ArlZvZ7/ur+MZ/Ff97mrh988kUgU3K6YvfP8q9/uA/hGrohtENvqhGklTgFiVRSLZh242WRFbBknOsiZDne/jkvDXClO6mBT/TotTTgrYgliXhS3HbYUimJ5M3RpG34t6Tpmzbeb/rxaXOaH9+rhtfi3/xGexX/fl0A8kbhYeGfahlPPqnIY1WGzUyftw0SaMEBsGyeIawKkCQQxFsJ4IytiMWWn5uv0lLMFYmqccFiJJYUjgFi5icM04rbDoCKmIOY4FkUxB/FDQ5a0GcqvR0et/HjxwdPXbsb8tN7f951UP4/cs7h+zvEv91MSicSlorLP1p547ss9T0775clpXJ1ABKMuofp12sEmendGsy5YEVONGEzEaJ8wpAlo1qUGMU45G4POdLhOqBNRK2JpXwvRiHkhLFt2IBNzH4UC8RIE8UNDlohr8aMjlw+dv+eUx/Ff7j3QzH5hz+Jm9oQ01q9z407l9E2nX/h6L4I4yOKUIDZmOmDQmUgT2K9LCWLSr+MOCnATqxvhmuAacXIQy/lm6mATArFq1sFwHfbrAMSmOiEsE8uoccKUJiiIFwOIHxqy+KEhix8duWzI/D3ncku8WNFYr98W+O94FrfAJzXlQ6qorlt+6PIr3+6zQGzhWIgSfLKZqBMpHGzYrEMQgxyBokRwpoMmTij+rscbkThhg5hXweoi/TqNY2zTPfIxd63BlLPhYAOZghgnAMRthwGLtXEiWBG3GSorYgDxQ0MWt/7op4eHLf1kyaGCknspD99/gT8B5wl4FjuPpSX/ZTyeOHb5Zq95hxsaxMlkYm0lxjBMfkMrYpU4gSDW0T/IYgJiQyZWxgkDxGCckC07syIWnuJlyUEcVCeAxa0/+gmuNkOXfLPhWHlVbUt+9fjH1mAn4FncYEfbXH9wyb3qrzadfma61IihFuYmiql6rAMK4UgVMY51kJYdBk241Qk15UwrYkwlBiIrEKOVOBzEkY0Tcr4jUBHjfB11sJnqhNGvo+pEa1EUcxYPXtT6o586jVq+Yv+F2pj3HTfXV38z/r08i5vxk9MAv1o8kThy4cZb3++HZh2KEkEQY9wEDNrR4brHp+x49otdL321+4Uvdz8/fdeTU3dwZ7FicSQQG/06bSVOYpxQeZhanUjLwZYCxNxNDCN2qk2n+3URQAwsHryo9eBFz05YfTSn2JuOG+DF28J/pGdxC3+CrYdXUV335abTSdQJJQ1T44R2sL301e7+Px6ZtvH0on2X1h29+vPRqyuPXP1u29lRy35/8397H5+8HUFMZWIUi2U8vAFicLChOiET4tWUc2i/TviItUAMMx2qWaf6dWglhkFnoQ4Hh+sCxgk+X0dkYq4OK414idaIaUUsKMxL48GLWg9a2G/uvqLSCuvk/R/9CSQ/Ac/i5OfT0j57seDOmzMPYFGMdTG62VTchN2ve/HL3aNX/L7teN75gjsl96ora+pqY3Gx1CN+p6Lm+q3yA+eLpm869eo3u7tO5Ks6kL94I8eaEcQ8g03Hw7sqYgPEqBHLrh0Z6HCDmBgn5Hyz0ojRVuzu1w1FK7E0EQsQG8YJ6NehNCFvFJEfHbls0e4zXqloaW+eBn48nsUNfMDN7Mev/e1aj2k8bgIvpHAwDBOtxP/9bs+qI5cLSytqw0ca6uLxknvVu07l9553qOtnWxHB0jgBk3UCxEQmpg42vTNJxMPbIIYpZ3PQWdfFakOHqohhvlk5KDh8AzJxGIjbCBaLUQ4+XAcX1YiTg/jBQQsfHLTwjS83n80taWZPvv91mvUJeBY366enfn+5mtrYuFV/AIUfn7rLKorBwWbKxNzB9s6s/btO5VfW1EX5ZWLxxPmCO/0XHImQOEFBrCeeeSobGXSG5XUdR8u1ScQ4YYBYsZhvTkIHGyZOhIG4TVIHGww6O9QJZZyAfh1KE60HL3pw0MIHBv74wMAfO45Y+v3mP6pqfLpmlFeN/xp+Ap7Ff6PXQVFpxRvf8dwJC8QujViurXvt2z3rf7talWZib86Nsvdm7+eLnGF/HXWwKWkCjRNEncD5Orq8TiT+KDex6telAvHIle0wDDNiRSxGnJVMrPt1oiIOkYmxZTdoIYAYWAyl8Xsztl7I96Xx3+j9leVD9SzO8gD/St9+6HyRVQuryToZRqygLEH87PRdM3ecLa2oyeBBHjhX9J+vd9F1zrAzSe2v04UwJsSrfh0FsbFFVErGaoUoysRWGCaPwQSxGARiJRNbYZiB+ToqE8vEiUggFjIx8PeBgT/izWMfL1+271xtnS+NM3j5/B2/xbP47/KsJxhbdeQKVYcBxArH2jgB9rXuU7b3mX/4TO7tzLYKVdXUzdl5tttnW6R3QiyvSwJisbkONGJ3BptSJxwVMW50lkETKUHM84ilgw2DiVVFTAedjfk6y0pMpQmqTqBM0Xrwoo9/OuANFX+XN1jWj9OzOOsj/Iv8gLpYfMamEygWI5QDxgnpYHvy8x1zd5/PeJ9QPJE4lXv7re/3SvvEOFzVQWVi6NehNGH063DKWRkn1oSEYa4GsVg6iJVeLPt1xMcGMx3CwaYHnSEenoAYHWw8aAIvN4iVcQL5C2Ix/zhgwQMDf3xl6vpjOTe81/gv8hZp4l/Ts7iJn4BG++fLq2pHLjlqaRRhIO4+ZcdLX+48drk4m1+v5F715J+Pd1HeiWQONhL9k2EYJhonwFNsGifQUyyqYJ41geWwaSW2jBNSJoYRZ9vBJjRiZ0UMIH5gwILOo5auOXyxxssU2byM/jbf61n8d3mqb9+r7jPvEJbDLgebnunoOml7v/mHb92tyuZ0qmtjq49cfWLyNloaQ+IE9OtE7g/f3IHGCQQxOthUUazjJnBVxyMfBxxskUBMUokNK7FOJaYysQaxGnSGgQ7QKLAixhsE8QMDFrQe9OO0NUfvVFRnc4z+e/8mJ+BZ/Ld4ohOJRGFpxZszDwCLoUcn4ibsmQ5cmDRx1W81adonrKOMxRN7zxa+9OVOqIgt4wSA2OzX/QwONlQnlEYcAcSqXyf315n9OlCHbQebWM+h1AlunCBWYmKccDrYQvp1EsSgUQxY8MCABX1nbi+4XW6djP+jP4HgCXgWB8+kZf7NleK7b/xvP+3X0eif7lNoUbyt66Rt3249naXQmUgk/rhc/NZ3uztzH5thnHCBeJ0F4rCKWA06GzIxWon1LtERK8A4Qdp0OnEiIBPXP4jv7z///v7z/z153fm8ksz6ny3zhegfVcgJeBaHHEyL++tT10pe+Hof1sVmUWyAGPZ0fLv1NEtkxZAEY8evlbzz/R4B4g1cixjDm3WdxI2qiLFfp3c5A4VVUewwTmA8sTZOYOKEqoiJRrxcVcRCnRjO93RYMnFI4oQMw+RyBFqJzYoYTGzYrJM3Axbc33/+A+Jjl09WHrlQlOX/VWtxL0b/gBwn4FnsOJQW+Vcnrpa88NXeoIMtWBEDi7/ceCIezyr7MZHgQclvffcLCSaWIFYaMQVxwErMfcRanUD+WjIxr4hdICZFcYpgYieIHxpigpiwGB3EGsTKOME1CgLiVv3mPTJ8yfY/r4WPjrfI15p/UJmcgGdxJqf2V/yeo5duPvflnjDjBMrEuLzuk2VHI849h51GLB7fc7rg31/uwH6dKI3XqbgJCWLs16FMzG84hcNArKacR66U48440xEoitsSK7GUhtV8HSRO4BZRmjih+3VQEQOIIxgnKIjv7z+/Vb95rQcvWnXoYl12/1ct7IT937ekE/AsbknPZrLH8luOZDFJnDCkCWN53aRt73y/N/dWVhuDqmrqVhy89OSkTTBZp+PhkxsnPlmjWGyoE8ZwHdTC4GMD74QadKbDdcrBRowTOgxTTzlbiRPaSpy+cQKlCQDx/f3nPzhwwU97ztX5dPlkr03/OX4CnsV/l9fBscu3oC5Wg84OEMuiWGwRfWbajt2n8rI5neKyynErf+s8VmjEY9cH+3WOijgiiJVrol0yEC8XO5OklZju6eD3Q0McbJhKTESJ1qQiBu+a7WATGkUQxJzFA+Yv2HHC52dm80L6m3yvZ/Hf5IlmFou7TTZY3G3Sdgrirp9t7T5p65R1J8urI8WzBQ8xnkj8fvnmy1/tolZi1a+jiRNkTwcEABFpwrISG/N1qhAOzteBccJaXgf8RQebKU2omQ4LxAFpIgmIUSkG+wR+fHDA/Pnbj3sWB18h/m+sE/Astg6kxf7RZHFSEE/aBuucX53xy/6zhZl5AO5V1U79+Q/VtVvXcYw96OxwsJnNumQgDk+ccDrYTBCHJsTbMjGMOAcy2OSgs5hypsYJ5O99/ebBfat+8x7wLG6xb6l6fmCexfV8oM32xxEWh4B4ErcVw+Y6YPETU7aPWXnsavHddHFcG4tvOnb1mSmbwcfWccw6XhHbg85GRSwcbLpZZ2awKSsxIFjJxLIiDvTrxIhzaiuxkoll6IQN4kBRDAiW6kQ4iFshiPvPu8+zuNm+H5rfL+ZZ3Pyek4b5jRSLDRBb/ToKYtgl+vwXO2ZuP1NYWhkdxzV1sYPnCt/6bjdVJ5SJzbHOWa3qMIwTisWrLAcb2Nf4QEdI4kTb4drB1lb4iKNZiRdLFlPjRCD6x5aJTQcb9uv4jQCxZ3HDvJZb5k/1LG6Zz2vwUR27fOvZ6b/Qdc6yCla1MMAXKuKun22FLaKPTdzy4pe7Zm4/c7X4bjzV6EeCsbuVtTtO5L4/cw9WxIrC4GCDKWdzrENKE3ZRrIwTwsGGogTKxOqGGicUiB39OjHibPXrVEVMZWKYeBYrRN2JE4K/oA6Dg03KEcLBRmSKuff1g7p4nteLg69G/zfBE/AsDp5Jy/wbymKgMFqJOYUnbQP+IpFhfygQ+blpXKw4eKG4vLourECujcVzbtydu/PMf2fs6jwWJp6pTGykEnNFQlzyhvTrks10YPSPSsK0QSzdxGqLM6+LeUK8C8Sufh16J0zjBB3ukIkT4RUxVMcA4lb95j44wLO4Zb6h6v1ReRbX+5E20x9osdgGsWCxE8SwJ+nxSVtf+3bP1PUn958tLLpTWVNbF4vz/+pisTsVNWfzShfuvdBn7sGnJm8BE1vAwbau42g7cUJNOeuKGEEM8fBonIDhOplQrARiE8TgYONWYp2HSbaIRjJOkGYd7kxygDjgYMNy2AJxq75zH+jvWdxM3xHN7dfyLG5uz0hD/T7IYtCIDQcbKYqhEIYtzlAawz0QuevEzU9P3f7OzL2fLPtt6ro/P99wYtLq33vNPfjvL3d0n7gJymGcslP9OqMixuG6IIjDjBMUxNTBBix2OtjMxAkqTSwOna9T6jB1EzumnAmIUaPQ/bp+81r14+pEq35z+U3fua36zZvnPW0N9aJuUT/Xs7hFPZ1JHsyxy7ee+WJXchCDTGGBuPN4tUIUU+HHb+oko9dgSYdc1aE218mxjuTGCb5FlEgTqlnHFznr6himnC3jhBAoaFGsjBNumZhUxCEgRo3YJRNrBxt4J1TcREoQt+o7974+P3gWJ3lN+k/RE/AspqfRku8pi62undWv6zJhM1bHAGK9zlltdFab6zZCBhvUwqoi5jIxAbFMJe7w6VqdEO/q1/FwCQ5iIyEewzCpcYKC2NGvMxPiIZU4MwebBLEZ/UPHOoIVsSyKBYg5i/vOnbftTz/r0ZLfWvX02DyL6+kgm/2PARZrmVjZJ5KAmKoTfKMzXOM4f8Vlgzhq4kQg+sdSJwDKXB0WAWyRHWyiTacTJ/QWUQVi1a/DeHi8cVXETgcbgriVaZxoJVwTBoihLvYsbvZvjWbyC3oWN5MnosF/DayLwTKBbTq8ocYJKISBxRrBQqPoNG4DCBRWRaxBPNqxMymJTIyKBFTEul8HrrXwxIm2w4P9Oo5jYZwIBzF1sKFGrFgMnbok/Tps07USUfHS0GaBuC9Xiu/r84Ovixv8Zd2C/gHP4hb0ZCZ9KJrFysEGFEYrMZWJDWmCVMQcxGM34BZRMBErmVhIExrE6RknbBCjoRhmOhwa8fK2w+VwnTJOLFUOtiCIQ6zEyOJBC1sPWoiFMN6EOdiQyJZx4r6+P3AKKxB7Fid9SfpPGifgWWwcRwv+g2QxgHjStsc+22pVxFSRcFbEUAiTRaJqT4fKYOtYjyCmLDbdxE7jBK+F3RWxpPBDQ/iNHnRGKzGpiI0pZ1MjNjLY+Fgd3590f//5IEpQ4wQFsWdxC35D1ftD8yyu9yNtpj9Q18XEwRbJOCHtE1gRS5lYjDjjFjuRODEa93SAlVjP1xEHm3QTgzQBigTKFKAR2wnxjqJ4mSAysRILmTgQDx8CYroziYx1GA62gT+igwJADMYJKhMHQCyKYiFNgEDBP/b9wffumulbopn9Wp7FzewJabBfR7NYzDdbRTFaiQ11QrkmOo/bqKQJDWIVN0EdbNRKnAzEpoNNGSegWZfKwcaNE2KgQ0kTcnmdNVyn+nVKncA2XbiDzSETmw42J4glkQPqxH19fvhX7zmexQ32im5pP9izuKU9o2GPBzWKJMYJG8TcMsEvC8SwPNSUiWXchBqu0yAWSzrASuyYr3M62Nrp6J8V7dQ6Z7hxONi0cSKrhHgNYkicAI1CsVjE/fCdSagU28YJUyYGEP9f79mexWEvSP/31gl4FlsH0mL/yFk8bVcSEFO9WIrCYJzgzTrZr+OSMa5zVjKxSIiX8fCKxUYepsBxBBCjZQIE4pFBEGvjhPJLcP6mkThBm3XiPtw4YWwRhR5duiD2LG6xb6cGeGCexQ1wqM3yRwoW7wxKE6BOGBUxCMToYJMs5kQOGifIqg6HcUJROBTEXC8GBCtpgruJwxInlHFCbRHF6B8eD0/m66SPmDfraL8OQaxu0C+BN5ZxQsNXNetSGiewIv6/3rM9i5vlW6GZ/lKexc30ian3X+vY5VtPf74DWYxVML3RAx0BEKsNHcbyOjJc5wCx6tcZK0RVy05pxOCXgF2iylDMR+xIvw7adAEHmwpjGxrqYNPGiaxTidE4IaQJnjWBiROWceJfvef8q/ec/+s9Gz7e18f37ur9tdwyf6Bncct8XoOPClmMbTo0riGONYvFcJ2SiWXcBDTr9KAzd03YMnGUmQ4YdDaG69DBFiiKJYiH2cYJpVGkD2K1M8l2sIFxgoRhSuNEv3kUxCL6B0FsGycoiJHI3kcRfDX6vwmegGdx8Exa5t8AizFoAqUJW50AgcLu14GVWDvYSEXsWNWhKmJjVYccqJOJEyIhPqJxYtgyURS7HWyBjc6RjBMOEKuQeNvBptQJdLDdJzPYUoP4n71m/av3HM/ilvmOqu9H5Vlc3yfaXH+e0It3dJ24BS4O5Qmb8eoyYZO8xm/qMn5j5/EbuozfyC+Zx7a+s1CNwTvBP45Z32nMOnmNhsYd/9hh9NqOo9d2gIuHAa2BS6SyrRauCUj/WfXIqFWPjFrZHq+RK1Q8sRQo2vPe3fJ2I5a1G6FTicVMB6oTQeOEAjHKxEmtxGEysbYSKxALmViu6hBhmPZ8XbAiBr34X308i5vrW6KZ/V6exc3sCWmwX+dMXulHCw/3m3egHq65+/vO2ZPW1WvW7p7pXB/O3NVz5q4Pv9sO1wtTN6KbWKkTEUBMh+vMfp12sCWZrzMcbMlATPt1IE38X+/Z/+w1i6vGnsUN9pJuYT/Ys7iFPaGhD6emLlZYWlFwu/Gu/NvlBbfL4WO0f5d/PVzXb94V31IO3/jj7tMdRq3gCfGhqzoCFTEFsTlcZ8zXqVRiqIXhI7iJtYmCJsSDj5gkToSB+J+9ZgmNYrbXKEJflP4T5AQ8i8lh+Nt6PQG+GS/B/2OplpbKfxa+kn69+sY1R3I6fLxSVcSWg01S2EicsIwTZr9ODjeraQ6MwTTgK9QJGLS7j6/qwH6dEf1jgRiKYqCwZHGvWZ7F9fqyarE/zLO4xT61LemBCRavwDBMZzx8gznY+Dpn5WBL1a/rJaUJieOeM//lWdySXogN+Vg8ixvydP3PrqcTWHMkp+PHKyD6R+ROyNI4dHkdChRmRaxlYiJNQF2M6gStjkVFrEDMg35kKjFE/wT7daAR67q458x/9fYaRT29CFr6j/EsbunPcIt4fIrFul8nKEzm6zD6J2CcQP7iDQawoTohjROkWYfGCVkRA4gJixHEONYBIIauHcdxz5n/9HVxi3j5Nc6D8CxunHP2/0pWJ8A1ilEr0EpsgzjcwYb8xRtLLMZg4lZkpsMCMWx0DhbF0rUmpuwcIBY49hpFVk/83+mbPYub+7OdYMxfwOIUiRNWRUzUCQPERJ1AEAv46vm6+8jOpOCqDqtfB0Q21ImeM6Eu/seH34ezOGe6fXAAACAASURBVMHi91jsTn1cZSx2l8XLWbySJWpYIiZeMs39he1/P+sEPIutA2myPyYSibpYvKK6ruRedWFp5bWb984XlJ7PLz2Ve/vk9ZIT10tO5ZacuFZyKvf28WslTXL9eeXmn1duHr96C24a8+M3m44/MnIZtOzALyFdE1gR01TiJKs6AoPOoA5zv4QyTuB8nerXOYwTON8cNE5waYK72bhAkYzF8SpWtpGVLqiP60dWupiVrWR3N7K7v7DKY6w6h9Xd4KxP1DXZC9r/w2megGdxmgdWr1+eYKw2Fr9TUXOxsOzwhcINv1+d98vF6ZtOj1t9fOTS3wf8eLj/gsM95x768IeDH/xwsOfcg+/POdBz7sH3Zh8wr/3vzTKud2fte3fmPv4RbmaKP4qP73y/952Z4vp+L7//fg+93v7fHvP65e3/6evNGTvfnLHzre92//ebHcHrja+3p7i+2va68/py6+tfbn1NfHxd3m95bfqW174U13R+32PCOjBRUBCHGidIRawVCddMB8rECGKI/jGME+aeDpSJ4Ua36YSbWP5RKMX/+PD7pCyuYCVfsxuD6+n6iN34iN0YwgpHsJuj2a1p7PZsVraaVRxhtddZvKpeX7b+hzXICXgWN8ixpvyhsXi85G7VscvFqw/nTFl/cuCi396ddeCVb/Y888XuJz7f1X3Kju5TdqprR7fJ2+HiK5wnbes2aTvcyI9kTwfuTMLcCdzozHN/YE+HSpwgm+swaILHsPGsCRFSTKJ/fu7wKY+H7/Dpz5j+o/IwZQybCmCDQefVNPpH70wi0T+YxPawvc6ZD3TQmQ7Twebq11lF8eBFONyMN1YYJromqExsxMP3m8vViXAQO6QJwLECcaq6GFgMDK33j4D4Yax4HCv5hkO58iyLV6R8WfovaMIT8Cxu7MOvi8Uv37i77rerE1b/8e7sg//+Zm+Pabsfn7rr8am7AL7dJu+gLA6C2GBxdBAji41VHTyVWEWvaRCTVGKM/tEgJtE/wTxMHoYpY4DMYGKeSmwGE5sZbDx0gsZNiEKYQ1lJEzyhGOtivUWUysQkHh6G6ySLQSNWwx3UtYb39/efByxW0kQyBxsFsTZOKO8EVMTNgMWDWNFAVjSI3RjKbk5kZctZ9RWhJjf2a97/e1FOwLM4yinVz9fE4vGcorI5O868N/vAs1/u6TFt9xOfSwojiLtP2SlYjEXxTsribpO2axCLRc64pwMqYiiHMRXTyGAjRXEnzl/Y1mGAGKDsBDEthwWLdTy8ubzOBnE73NbhAPHyNjIMU4MYKmIc64B+XVbGiRAQEwrPt0EccLAF+3VhxgkEcdOxGIpiAeLCgaxwoCDyQC5i3JzCyg+wWHn9vKD9T6nXE/AsrtfjDPlhtbF47q17P+45/87M/U98biAYK2LAMS2KkcLdJnNRwgbxpG2PCRxjPDwgGEFspBJnCmKxM2kth6+6VFFsV8QildgGsV7S4QJxWwLih4fzFaIhIF5MK2JbJlahP62FNIGihK6IXcYJKIGxcSeMEykS4i0HW5hx4h8ffg/O4iZisQAxL4cJhYsGMLgK+7Oi4ax0Oe/ssXjIq9X/ddOcgGdxw557LB4vKq3ceOz6wB9/ffqLX56c9kuQxd2n7FR1cag6EQQxFMIAYpSJKX8xKp7KxKoittc5a5mYxMPD8jqk8KNcL4ZyWBfFWpHgwcRCJkZpAhLiR6ywpAnYIvow3+W8HGQKS52A+TpVERsg1juTAokT1LiGRE4iE1MQg4NYqRMO40QUEAN8EcSNzmLVBgQQ648CxIUDWGF/VtiPX0UD2a1ZrPqS1ysa9s2f5k/3LE7zwNL58qqa2B9Xbn6+/sQrM/Y+Oc0AMVUnXCAO79d9tpW37EJkYs3f8Zuga6dbdqZMTHYmoUwBezpgVUeSnUkaxKBOQJsOo+J5DLHYmSSL4hQysU6IJ9E/S51WYl0R0ym7dBxsaJywQRwtcQKlYbyRDjbSr2siFhNdQlfEpBxGEAOOC/ux4s9Z1VlvekvnDd2wX+tZ3FDnW1ZRs+HY9f4//vr0dE5hrIiddTGVJrpPsUGsXRNJQYzqBMjEksICwWCZCN+ZtE54J3BnkgYxVSdEHrwNYlEX83h45G/7UavajVola+FkIOYUTlIRwzpRqk7ofl1S4wQvitWSDmvKGREsb8hMRysehpm+cUJQOFgRA5EjeNqyd1A4KTxQiRKqHC7oxwr7irq4Lyvoywr68Kt4Kqs86XHcUAhI8+d6Fqd5YBG+PMFY7q17s3ace+N/XB1GED8+dZcFYpdxwgax0awLr4gRxLQ0luqExPEGQWS9vA7214GDjfbrhH2NO9ioOsHvP7FBDJvr7IpY8VeLxWSXqHKwSQqDWUJVxDpuwgKxliYw9EeVw1QmtqUJZZygDjagMAzawXydkiaSGCf4RmeohfFGVsTCO0H7dY1YF6MoAX4J1aOj6nBhfyYpDCDuJymcL1hc0Jfd/EJUx7EIr2v/JQ17Ap7F9Xy+8UTiQsGdyT+fePFrqUtARQw9OipNKPswd0qoew1iu1+XbkWMDjZxgxVxdAdbdBBTmRj2JMlFzqpf57QSA38tFpvShHSw2SAGHIuBjrRAjBSOAmI0TvxLUBhFCXkjh+t4AFAYiBtYL0YQI4LhJqAOy3JYKMVQDksQ92YFvVlBf3br+0RNfqKe3wf+x6V9Ap7FaR9Zkm9IJBLn8u98vPyPZ7/cA+UwFsXOijjgYNMsto0TYsrDcrBBCYwVsZYmLBDznXUbVVHMt4i6KmIpE8NMhwHiT9YEK2IlTTiME7wcJv06CmLar8NaWN3wjc4ZW4n1qo5wB9t9KoZNJMTznUmyIo7mYDOME2qsIwmIG5LFJoilaw3V4QGMd+r6qYrYpDAHMVBYfMzvxU1vZatY7F6SF7b/VCOcgGdxvR1yPJG4WFg2euWfKBAjiIPqBHGwoZU4BYhpvw75izcOaQIqYglimOmQbTo13LGOSxNjtEzcYbQtTQjjhKFOgHFCbBFVIAa/BGjEkUHMHWzDcIsoBbFpnKBtOpSJSVEMU87awWYmTmAtTEEMqcQ2i8mIHR10titinHUO6dc1vEYhQIw2CQpijmBFYS5NqAvLYQri/F4svxfL68mvouGs4gBL1Nbbm8H/oPRPwLM4/TNzfUciwa7dvDd53clnVKcOQWxVxGgoTt6v0zKxqIgpiNHBRkGsi2JiJe48biOqE8Q4oefrCIjFFmcx6IxFcdDBhsYJYHH6/Tox0wFWYhPEpjqh1ybJfp3lYFPzdUlAjF07UCRks67/fKoRcytb0oR4B4hVsy6sX9fALAYQK4EY5ziKgMIKxJzCQiDGNl1+H0alCQri/J4svycrns5qrvuAN9ebu5H+zrO4fg761t2qGVtOv/h1QJqYyifrqEycnoNNNOuCIHbO13HjBKoTIQ42pU6AUoEVcRogFhR2GCe0NKFk4oeHL0crsRrrcBsnzMSJtEFsFMXCQWGFYdLqWLMYguFJPDxoxJjB5gCxmnKOAuL61ijCKSxBLEQJ3alTfomUFM7/kPGrNytdy+LV9fN+8D8l/RPwLE7/zALfUVUTW7zvwgtfBUBMRpyhHFYg3kkSJwxpwoj+yaBfhzh2VcQKxDz6hxonYKZDRP8Q7wR3TUQwTojJDqNlp1wTAOK2JPpHSsPDlrYZthTjJsyKOKRfB8N1YdKEmcGGrglaEdv9OnCwhYAYzBLAYiSyVfDSP4bd15+njYBYjzVjmy6kHAYKh+kSvBwWFM77gOV9wHI/YAUjuafC/9dEJ+BZnO3Bx+LxHSdyX/9uX7BZZ1XEyixhJE6EDjorENPJOhAlaAabLRNDOUxAjMaJTmO0NOEEcXRpAo0T7UApNhMnoBxWFfHyYEVMZGJrpiMpiNWsM8zX0Sk7OVwniGxUxP3nt8J+nW0ltofriHFijjau9ZolWRzNOGFBuT5YjBRW+RJSKUZRQrjWDHVY2IdTlMNQC3/IKcxB/D6/8j5gt+f4gM1siZDp93sWZ3py6vvO5t3pPe+wBeKggw0rYhr9022yURTrQWcA8aRtgF3QKFAdxhsbxKpZhxqxAPEGXg5LEHNpor5ADGIxzjfrG1EXk/lmrhHjTAdJnKAg1v0628GmENxapRKDImFYiVXiBAUxLYp5MGY/YpzgRbGxRTQMxDqPOJpxor5ZjCAO5EvQNp1THeb9OuWXsNVhsxzO/YDlvc/y3uMfC/qx8mPqpe3/t1FPwLM4q+O+dbdq8roTT0/X6gR26vAGm3XCwYZWYi5TYFFsONgUiKlMjPzFG92sQ40YWMwD2NDBxkFMpAlhnOCJE4aDzRjrcDnYALs6egJ0CVEUWzKxWRTrxAmuSJjGCSJNaBAbU840DDOgTsiQeNPB5u7XmSAW83WhIKZ7OoIVcUSZGImcXV08mN1w9eikOozlcF+jTZeiHBZtunwshz9guQLBAOLc9/gfS77ju5r8f41+Ap7FmR95XSy+5Y9rr35rqxNBBxuZr3M72LRMnArEwGIDxKARu0AM3rVQBxt3TfBseJ0QL0HslIkNBxunM0gTYCUW/ToLxKhOBEGMVmJ7vi6ag01v61AVMVAYlWLtYFMglg62QDmM/Tr0sUEtrGViVRGnC+IseneiHE4JYiyHuZU4ii4hBGJUh3NdIL7+Lsvvzwej/X+NfgKexRkeeSLBLhbeGbbk9x4ifQ0dbC51gvOXShNWRewoikOif5IVxSHGiU5jtUzMa2QVw4aDzgjioJU4mYNNDTpzaUIZJ8hYx7LkICZFsU6IN+ImsCgOVMSGOkHcxAhirRFzBxuXJgwQm6ETiGCoiAHBGsRqi2gGIM6UxeHlMK+IRdaaNksI7xrah5PpEqRTxymMusR7Qix+j+W+y66/y3Lf4Z8qWeRV4wy5kMW3eRZneHgV1XUrDl155dt9VuKE1a97fCoWwnhjSBO6IlY+YipNwH2XCZtpv04XxaBFgEYxbmMnPtZhzHQQdcKQiaODWDnYyM4kZZyQw3UBELuME3KmQ3knlgTn62yZmOZOkGBiG8QqAwhdawhih3Ei3EpsGSc0i5WJjaYSowSR8iZNjcIsh3GaQ0YPWyAGB7FK+aHe4YLeeogDvMPSLyGkCQ7i97VAzHWJd8X1jgCx+Fj4CU/U9P817gl4Fmdy3olE4kL+neFLfntKFcWWg5hqxGZR7ACxHOtQxgkcdEb+4g006+wwzPGbVCoxslhqxJhKTPp1OoMNjRP8JkQmNubrRAkM0gTN/TGlieVtZTAx6dcJBxuA2FkR2zIx9uvEDVombBAr4wTOcYSCmC+vs/t1WBG7QZyRccKiczoshnJYCcRolsAM+AIr5cclSlAK54E0bJXDSOH3eLMOQHz9XXadgPj6OyyvL7uz2Y/hZYKGLL7HsziTw6uoqVt5+MrL34SmEpN4eEOdwGYdRv/g/lC4sVZ1AHypRmyDmJfGsDAJ+3UUxJZxwgHi4HCdmnKWW0QNBxvKxESaABbzADaZDW8aJ8R8HY2HtzXiIYttdQJYnMQ4oaQJyzhBq+Poxgns1+ly2ASxRdjof4zGYrMcpqN0tE1H1eHCVCA2ymGhSFBRIu99QeH3uCghdQnB4uvvcChff5tdf4/dnMHqbmby3vDfk+kJeBZncnK5t+4NX/p7D5JKHKVfZznY7FRiMw8TpWG8AWlCshgGnQ2NWK/qwHFnyMNUGjGCWO9yDoI4dHmdiId3qsPUSixwTCtisU50KI+bIBVx2sYJLI2DVmKQiXncT//5skBW/bqwMEzqYEMQS/saxk2oMMzo5A1+ZQQWExBbFAZ1uAAiftRMM1C4wBxohnIYwyWSgVh417Ac5uqwuiSF32bX3mTX3+JzH5Un/Eh0JnTI9Hs8i9M+uVg8se14LkzZoXENb6g6QcIweXWMRbGmMIw4K6WYqhO0Igb+ajcxkYmVlViC2DJOCEMbONg0iNHBRkCsjRNoXDMSJzAeHtRhpRFTdaIt3+LMKQxWYvBOqAw2vc5ZFcVy0NmoiFEjNvt1hjShjBNQETv6dQrE9/UV++sC0kRqEGfXr6NEjsRirQtnFnop1GEAMaUwGNcsdVhWxGY5nIvl8NucwvLqzUo3soQfiU6bDxl/g2dx2kdXUV03cc0fAF+UifGGzHRoK3EQxIZGHKiIoRZGmdiuiFVRnBrEtpWYx7ChcUJpxAaIlZVYLa+DyTr4qBAMxokUIOYBmKkGndHBhhQ2E+IhCdNgsdKInVZi0a8zjRMBFkMhTMViIwyz/kAcyUdhgJiGXqrddJg+DGYJ+VENcdCKmIIYjWtyiANMxO8Ls4QqhK2K+BpSWNxce4vd/M7LFGnTIYtv8CxO+/AuFJa98b/9YTuTlJVYgzgtBxvyF2/c/To95WxXxMn7dR1Ga4FCtOw0iMMcbO2UcUL26wSRTRDrQWeVOGEYJ4g6QRxsVCZ2OdgAwTaICYtRkaAyccDBZox1CATzDR2Wg00qxSaIM/NOpFcXO3bTqXAJaVwLTx+2p+lImw7GmvkEB1IY/BImiLVAbIH4Ta5UFIxKVJ3zMkXagMj0GzyL0zu5BGMrDl1GEFsOtpDECUOdsAediZUY+Ys3oSDW/TowsdF+nRX9g+oEyf2B/Unh0T/Yr+PL65R9wpkQ73SwkUFnDt+oDjYiTSQBMeoSvApWGrHtYHOFYQp1Qm5LwsQJvOEMVWMdyRPiKW2T3yfTKGL32K0veY47L40x5Qftwxg9TFxr0VN+qGuN6xLv8mYdbdNpXcKk8PW3OIWvvcmu/pdd78Xu7vFuivQAkcVXexand3iVNXWfLP/NUodBI1bqxA461mGpEzqVONzBRvmrNWIcdBY+YqFOZOlgWyM0Cv4RNWKxv07N141cyVeI4hZRlb4GQRO6XxfiYEP+qhudhGk72FCgGLSw9aCFuk0HZglRCOPEMzVOiPUc87A6FmMdQiN2OdioTKz5i506E8TJCRv9s5zFvWcv2HmqNha3X2exUnbzcweF0y6HScqPWx12Uhj8EiaIkcLX3mD8epOVLPT7PuwnrsH+7Fmc3tHmFJW99h2f77AqYgViy8FmV8SWgw0z2HCmIwhibWKTMx3oYKMVsVzYkYFxAkFsW4mFcULrEkosNtQJ3qyL6GDTLE7Sr0NFAm+QwlAOY1GclnECFQmUiR0acX0YJyxM/+PD71v1/WHJ3nN1QRbX3WJFkziLMeWHutaMDPjI6jAvh5UuAeESeppOqRPgl7DVYVULX/uvoDCw+A1WOJHVFqb3DvFfnekJeBand3Jb/rjeY5oEsatft4PKFNQ4YVfEKiQecIzGNbyx+3U4XGdE/4A0wUGMMnHQwZa2cWLkSi5NoJWYLK+zQBzNwaY1YqMixoVJyft1UBer+TpgMQWx1a+7r2+Sdc5z0MGmrcQwWdcAIIbe3QMDFqw/ejkWD+z2rC1iN8aYK5ECq5qTiRIBdViCWExz4DQd1SVQHY4C4quvs6uvs+v9WOVpLxmnx4hMv9qzOI2TiycS0zeeDLMSI4Vh0I6C2GFiSyoT2yAGE5uectZWYphy1iDmiRN8SYeKhwfjBFeKozrYIPEnJYiHL6MgRgcbzHSYbmKZSsxBTPt1VJpQ83UO44SiMKoTVJqAoAns10kQmwFAjWmcCNbFjw776cDZ/HgiwOKaS6x4pNoQquzD3E3ch18ybk1VxHabLjz0UrrW3hFzHKoWluow6BLEuAaiBP9olsMcxK+xK69y1bhsE0vUpfEm8V+a6Ql4FqdxcqUVNYMW/krFYuRvJCsxuomjg1iVw3xzHenXdRqrwzARxGLQ2QYxDDrrnR2kX+dQJwiIZeKPU5qQI3baTczzMKWDzRrrCAExTjmTfp0DxKoodoLYXRG7QBw0TmCbDm+yd01YIIa6+NnxK89cvxVEMav4kxV+pFY1k910ztBLY47DCWIsh9/j4xuOgTqBYJjjAAexBPF/OXClQCykCQ1igeObc1miJo03if/STE/AsziNkzudexvFYhSIAcfYr6PNutBB54lbUJpIZiV29Ot4RcyHnlUqsQlimUqsimJtnCBFsWzZOUBMrMQylZirEyugTUcy2LSDzUqIh6I4knECWawq4hDjxAJLJsYwTNs4AT5iC8R95IYO1IuN4bqG6ddRIv/jw+/f+nrL9VvBdfcJVraLFQ6S0cMYemkN1NnlMNElIGstmD7soLAqh1OCGHSJK6+Kivg1WRrnfcpipWm8SfyXZnoCnsVpnNzmP3Ofmf6L6ZqASPhMZGJqXLNkYmuLKK2I9c4kohGr6B85Yidi2DSIg9E/yUCs1AlM/6EaserUOft1S2GmThkntExsSBOUwmbihJFKzOfrbBBTdaIV3ZnkMk78i4AYZWLN4oYH8T97zvy/XrNGL95fcq/KfpElatntJUIsFknwkXQJAWIc4qD5EsnbdGBTw4E6oxwmFTGWw1yaECAGmeLah6z6gv37+z83wAl4Fkc91LpYfPaOs0+Jxh0ZdE7HwRbSr6PeCUlhUhFzdcLRr4NmHe/dkVRitBJzmRjUCQVi7WCzZjoMK7FyE0MVjLVwUgcbJk64rcQp+3UawSrxh/8NWecc7NcJEM+9r1+ogw39EnijKYw+tobp19G6uPWAeQt3na6qCeitdaWsZAYPI84wA97ll8A5ukjqcAQKX3mVXf4Pu/Iau7st6pvEf10WJ+BZHPXw7pRXj1/9x5Of76IgJuuc7cSJoHEiSQYbJk5YFTEFMSb+KNcEgBhqYUsmlsN1QWkCQSysxKtg4pnHYCrjhEz/ccrEw4x+HVkhyjViXNXx0BCtEWsQw2Sd2a9D4xreUAcbVSf4wjo91jEPEuLDon+Qv3hjONiQxT1nNoRGjCz+x4ffPz56xd7TefGgiaLqEisex0GcWh12lsNUHRbhElboJc9aIz06nOC4BuqwBeLXuSiB5TDcA4gv/4ddfpkVz0k4BO+obxz/dRFPwLM44kGxi4VlveYdITKxVRFvp8YJPVyn+nUWiFEmRvuwMdahWnZqpoOXxkIaBhNb0MFGjRMmiHk2sR50puqEBrEY65A7kwJhmFAUtzVBDLPOIpJYghhkYgFizWJtJcYpZ+VgQ/66hzsGLND9OgPEfLWz3NPBpQnhYCMyMfIX+3U2iHvOBFzW13Adwjd40+u7rZeLygKvsDgrP8CKhrtBnNeT6ehhBWKpDmP6cMrQSxeIr5ptOq0OK0UCRAlN4f+wK69wFuePYfGKwKPwf1HPJ+BZHPVAj1wsfuN/+wmLcU/HTqQwNuvsovizrTjWgTKxpREjlLE0pjJxZBCb0kQ4iLU0QUCMGrHVr1Mg5jIxRq/hTWoHWwDErcWqjqjGCV0Rz4dUYmllC4AYh+ssEGs3McjEoiJu0KL4nz1nth4w75sNx+5V1dqvsHglu7OCFQwS9jXlWqMx8FbKD4CYpvxg6KVtHxblcGiPLmk5bIH4yiscxMDi3A9YbZ79KPyf6/sEPIsjnWg8Hl915MqLX+9RLNZFMQUxv5/EL2O+LsTBhoUw3lCxOC0QZ2Cc0MtDabOODDqjWExBjMYJBeIIDjYKYrMoNipiFYZpSBP9eRWM0T/gI44OYkCwDeJesxqhIv7Hh98/N27FwbP5AV8xY7W57OZ0A8SGZU2tatahl2RVc8rQy5Qg1uWw2aOzymEE8eWXuWpcfijS+8R/URYn4Fkc6fAqquu+3Xb2mS92CwebBrEY67DVCQPEpF+HFTHfXzdhM2rEuiLGMExiJQ4YJ7hMoYwTXJqIDmIhUPAwzEc+Vlucwcem1GFs2YF3Qqzq0FtEEcSgFAccbGTK2TnTYYIYimItEJv9OpkyQdJ/cKxDycShO5PcDrbGkolBqWjVZ/aQubuLSgP/r30ixioOsqJRrEBVxGhcS1kOA4gt15pO+QnRJYJzHFdgjkNJE/BHLg0LUYJWxJf/zXLEdXu5n76LRIosvsizONLh3SyrGrv6+BNTd4kATOpgM0Cs5+sg+oeAmCZOgDqBw3WSxQrEqXYm8Ri2wKCzGKsT3olgvw41YhX9I1p2ol8H1XH4WMcynhAv4uEtdSIJiHW/DuOJwcemHGzAX9SLwTKR0jhh7kyKNOisvRPEwRZUdRvib7qM+OnnwxcdMRSxO+zOT2LcTmXAB2PgeeKluSEUy2GY47AtEyaFZafO2aZ7jfsisE0XpktceZnLxEBhjuMXWeE0P/ERiRRZfJFncaTDu1RYNnDRUSiK6awdChSawqpZ13XSNtzTEQQxFsWoDnfGQWflYMN+HTFOrOs4GkFM+3WmTMybdan6dco4odN/hEBB3MS8IqYgDhonUvTrAokTyF+8QfsaShPSwab6deApzsA4oUHcuBUx2Ir7z9xRcNs14lFzgRV/xvc0h5XDGsQqepiDOGCW0OVwMGvtv2KmmajD197g4RIWhQHEUA5fVuowCMRA4Zx/s8v/Zpdf4tf1j1jd7UhvFf9FmZ6AZ3Gkkzt6qfjd2QeRwlSaAAobMrHAsQViECjc/TpdEfNBZwFlncFGEieoNMFNbDjTAW7iYEWMeZgig4042CAPE6SJgHECBjqoTIxxE0omthxsqYwTgeE6yWLQiIk6gQGY6GALzHSEGifQQQHGCS0TQ/pPAzvYsLj+x4fftxv607ZjVx15QPFKVraBZxYbtbA1TUfMElgO0x6dpvDbzJHy4yqHOYWVIgFzHGBcs3QJLg2TchgonPMir4uvvs+qL0V6q/gvyvQEPItTn1wsntjy5/X/zNiDLLbKYQPEwjKRMYgFi6OAeF0HzmJSDnPLxBpaDiOIwUpsGSekLhHIYIN4YrG5brmC8lKMmxAmNg5id0WMMjHt1ylpAvir+3UhIMZOnbiZZzjY+oSCuDkYJyCA4p89Z45ZcqA8aJ9gCVZzjd2cZILYDJegZokGUodpOYzSMJTDqA5jOQwgznmRXXmd3fPtu9SsyOYr6Ea95wAAIABJREFUPItTn15VbWzx/kvPTYfGHbeyURbbIJ60LYmVGKUJQyMWbmJlnHCCeB1p1ul+nZ6sM2LY7MQJkIkN44TyTiCRiTQB880axMBfVRFr44RlJdYyMQWx6Nchf/FGShOkIgZpAlImEMdUI+b3IcvrKIgNN3EjOtgQxK9+vi7XEUDBeNpZ6c/cU6ztw04Q4xzHu1KaCKrDjnJYbOKgbTrpl4iiDgsTMarDUA5jUXzpBZbzAst5hd1ew/zER2paZP4VnsWpz66soua77ed6TNsFdXFyEIM0TN3EOOIcAcTuMEwFYiP6J0sQc8uEyz4hFjlLEKNxIiWIdeJEOIgjGSdMB5tgcbJBZ9jQAeoECMRamlAgRkqijNBwN+2GLdl7Ot/9kqq5woo+USAmFHbvpktzGQelMKjDUP9isoTRpiPqMBWIsRy+/BLXJXJeZBLEL3DhuHiOb9+5n9l6+lvP4tQHWVhaOX7NCQvEONZhONiIlZj269BBjDeyU2fM122EiWcY68DGHV/VQdY5KwebXiGaSiZejfN1PB6eVsSKxaooNiriJCAWGUDawaYr4ojGCVUO2/26ZA62SMYJG8S9+JRzQ890ANn/0XNm+48W/LD9VHVdzPGSit9lt2Y7QGzMcahpOjBLUI0YlnEkS/lRmzicIKZjzbYuIQRiSmEEMS+H4Xqe3xR8xmLBGULHY/V/ldkJeBanPrerxfeGLfktGIapvRNqeR2WwxTEof26ZMYJ56oOh3EiCYiDiRO4SJRXxC4QK5mYBxPTfh3ETZhhmJrFuiiOYpxQ2fCWlQ11ifv7zw9YidMEsVzVwWedGwfE/+w5s83AeZNXHCoqLXcMdyTqWPlOnsrGHcSkIuYgpmaJ9/gfLdcaLuO4/jZfQOeOW1MgDstawzmOlCBGgdgA8fPs0vMsbxir8/uWUuMi46/wLE59dGdyb/eee5BKE10nbUsyXAcgjmqckA42vsVOVcQkg81wsGnjhBYokvXr9BZRMK5p+5oJYuzX0VUdbYYtbTNsqVInwvt1Vi1sWomT9OsgbsJysDn6deE7k0CggFrYWCfaiIkTgPs2A+d9/OOeiwWljv0dLM6qLvJ1SjaFP2DYqaOhl1gOawoHXWtiEwfNgAd12NIlUpbD3LUmLGuoDlNdIud5lvM8u/Qcvy4+y673YTXnU79b/FdkegKexSlOLp5IHL10463v91IWG/26SducVmI6ZQdjHdpKPH4Tv9dhmHa/DlaIKpmYZrCZxgkzbgKNE9YWUQj9wY9YEeOUM5+vk1tEZeIEN04M09ETZgZb/TjYaLNOO9hEUQx1sWjW2cYJTJygw3UGiMFN3CiJEwDi1v3njlyw50L+bYeJjTFWV8RKZrP83swRPYxtuvd4m87u0akMeKyFadyaYxNHiGvtSsg0HdUlLHWYF8UKxBcFiC89y66+xyp+S/Fu8Z/O4gQ8i1McXl0svuNE3r+/3g0shopYF8UCxFGkCQeIDSuxLoohkliBWPbr0EqsK+LIIG4HqcQjVtDonxQgFguThIMCYtiWQE48zcNMnsGG0xzJrcSgSIBAocY65qkp51AQhxonGh3ED/T94ePFB3MK7ziCMRljsTvs9ioeA5QMxIE5DqkOm9N0mAEf1qZDB3HKcphTmFTENogVhXk5/By79Ky8Lr+ZKNvlUGBSvIH8p6OegGdxipOqroutPXrt6S92YbNOg1jJxOgmxloYNWL0TkAhrIlMEicC6gQ62KhxYi11EyuZWCfE46Az3sg2nZivk7WwkiYoiC3jhFkRUwfbYgPElpUYg4nVWIcx6BywEmNRjDuTLBDzohjcxH1+4DfiwmkOuqdD9+saEcTQEnxwwLzvt54sLa92e73ilax8ByscSkBMUn6kLiF202FFrHWJJOqwGqjLIOVHGteULhGqDitdAkF86VmW86qwtcVTvGH8pzM9Ac/iFCdXUV23cO+FJ6fI6LUkIMZ+HRIZyKutxHq+jqvDMF8XBLGoizEhPo3oH2OmA0J/lHHCcrBh9M/Dw7kWATMdsl9nV8R8c5Iqikm/Dtt0eANKsQrD1A62cBA7Mtj6KgebC8ToYEP+4o2ceBZKcSP06+7rPbvH2FVbf8+JxVyuCca4/av8CCv4RIMY1WE5TSdca6gO02k6GgMvy2FhHw4KxFACo3EN/uicptNzHAEQS+OaWQ7TivjSs+ziM+zSv9nN+SxeneIN4z+d6Ql4Fqc4ubuVtTN3nMOiWHsnIg86Bypi3JlE+3XCOAELk6SJzZCJO3xqJsSTuAmUifVMBxjXkiZOqJk6E8TDeI+OSBN0vi4ViNV8HVbEhjph2iesmY77+3NdQsvELhBDLSxK49m2lVhNOTeCcaJVn9ldRy0e9dOBP6/cdHXqxMspUcsq/2Q3JnAQ2641MK6BLkE0YtQlQs0SZjnM8yXCl3GgXyLJWLMhTYSD+OIzHMQXn2IXn2dF37J4eYo3jP90pifgWZzi5ErLa6ZvPG3LxNEHnVWbThJ5nE6cwIpYJk4IECuZ2AKxbNlJaUKOO9vzdTwJUxXCXBoOtxKbIKb9ujAQk37dkJ+kUkzHOsJADFZiZSjWqzpIPLzbweZa1QEgdhsnGn553f/1mtVx+E/9Zm5ff+Riyd3K0LVDiToO4qIJLO9DFbf2HssT6oQzA96oiIllAgXitMrhyy/LDPiUY804x2G06Z4TJbDSiDmFn+YgvvAUt1IUTPE7oVPwIotPexanOLySu1WfrT1ulcMgR2DLDtRhlCYMjRimOXCmg/fr5EVXddS7cUI7iANWYnSwWdIEVMQw8RzJOKFEidZKI3Y72FRFjA5iuryulW2cSDboTP0SQXWifsc64KfBx/v6zHly9PIhP+xcfuBiTlFZjXOaA15H8Qp27zArGstyP2S5mPIjWCxB/A5z7qajY80Ghc1yGFJ+MPSSihI0fThFOUyHOIhr7aJCMIgSSGEO4qc4lPPHstobKd4w/tOZnoBncYqTKy6r/GT5b8ZwnSuVmIJYD9chiOvFweayEkMhrPt1I1eid42XxoFBZwAx7dfBTAcFsTnTIStiY6CDUlhVxAhi0Cj4KAfudTZxrB1sYnMdShPCxCZadqpZhw42oHCQvzjNTNFZL/f/7DnzX31+6DRi8Qcztnyz/vc9J3PzS+7VxpJ2rupK2d2NrGAUL4ezUoddWWvB0EsKYkuU0Oqw8ktgmy6lOixFiWdELQwU7sEu9uB/zB3O4438fw1zAp7FKc61oLRiyE+/chaTeHhqnADyonEilZVYJk7gWEdUB1sIiB1WYpQmAMSCyKRZZww6SxBrK/ESAmJtnLBBrFwTDwoQQ11sfBy0sLXrenDgfOMaMP9BxzXvwQH8ur+fCGnjsx6Bq88P/+ozB2wVIFz8q9esLK9Wfec80H/uQ4MXdRuz6q3pGz9ZuPfHXacOns2/Vnz3bmWN2zusXzsJVpPHShexgo8IiN/n0gT4JWiPjooSaanDVo8uOE1nl8MCxEhhPcdhqcNWOSzUYVkLP8UpDBrFhSfZtYGs6oJ+0P6uXk/AszjFcV6/da/fgsNaozATJxDElMXauIZisbQSO0EsHGy6X7dOWImDeZhGPDz064LGCT3lTEAMDjZYJyrMErJfFwQxWCZU3ATn8kNDeMtOW4k/+qnN0CWdP1396hebB8/bO37V77O2n16+79z6IxfWH7m44ddLqa6LG35N41r/60V5Hbmw/vB5vNYdPl+/1/ojF7Yeu7LvTP7xqzev3bxXeq+qsqauLhYP7c7RV02ijlWdZMXTWF4foUsodTh1+jCZaTaWcaiZ5tQZ8Bmow2KOA7zDfI7jGe0gxjYdBfEFIRZfeJKdf5Jd7cuqTtOH7u/r8QQ8i1Mc5rWbd/vOP4QaBVbEQQebIRND1oSSidXODts4ATKxSv/BeHgDxKJfFxXEepqDyMTETawdbC4QS9eE5WBrM3Rx++FLu45d2/O7bTM2HNvyx/VLhXdKy6tr62KRUJXigJvTp90+4SS/YZxPc9zdxIqGm+WwSvkJ201H1WGDwkodhrG6oC6RWfowbdPJmWZzjoPqEhrEisIA4gtPsqs9WeUfSY7DfyqbE/AsTnF6V2+U9fphP2gUSUBsWIlRJhZEDlqJwTihQBzcmbQ2goNtFagT2jiRiYNNTjlzLg+VPmIFYl4RPzJi2VMTf+47a9fcHaeOX71ZWlEjzQNpMyvFIf/1Pp2oS9SVssrfWfFXfL6Zt+kC5TBOcMCNnuMgZgljrJmAGNOHUZfIOPTSALHo1OFYM4xyXBT24YtPE4FYSBO8Iu7By+HzT7IL4rryASs/+td7sv4iv7FncYon6nLRnV5z9gWNE9Cso9KEnOlAEEO/TrkmcJ2zArG1zhkz2PR8nRqu05vrlJVYgtha1QFdO+2gGLGCysTBxAnI/XGC+JGRy/89df2E5Ye3/Xk9/3ZFip5ViiNsWZ9O1LK6W6zyKLs1hxUKdVj7JUi+hFsgdlJYBP048iVeZU4QY5tOutZe5gPNdDcdhl5SCvOUn+f5TDMnryUQP809Erochk5dDwlioDCUxpffY/eOtKynsxk9Gs/iFE8GsDhYEXeZsBlBnNQ44XSwhYLYjJvQI85if9Ia8EsE+3UycSIw4qw04uVihahe1WFmsNF+3ZL2I5b9Z9qG6ev/OHg279bdqpamQqR4tkM/zXMY4lWs9jor38NKfmBFI3gYsYPCsIzjHR30k7wcpt5hHT0ckvJDN4SmzICnfgmIW7PKYTSugSLMXWvKL3GhhyyENYifYOcfZ5ffZncPhp6R/0R2J+BZnOL8rtzgdTGyGPmLN9GNE8Y65zEgTciceKtfF1YRY7NOV8RKmsAGHarDARDLVGIohDEME40TbYYueWriuilrfjt8Pl9kLPgcGPHaSNSwuoJE+a/sznJ2cxrPl8jvRdRhFUCc3C8RzFrjFCaihLNN53StYTkc3IpkjNK5stYwXwKGOC7QchjU4WA5/AQ7D5dncQpWZPlpz+IUB8h7d/MOAouRv3gDIA4mTiiNWBsnbBCHGycIiLU6IeE7ypSJFYgtK7Ha08E1irY8FZ5TGOImlCIB83U44syl4d6zdm89dvVmWVUq/1aKE/trfzqR4Ivp4tVciKi+xO7tY6U/sZuTWcFQVtCPj9LBSiQpEBNRgodekplmNK452nTO3XTmYjpDHQ6EXqamcBQQg3dYOYhRHcZamOsSisLnH+d1cc5bvi5uuJe3Z3GKs71+617f+YeoOoxjHQaIwb4GGrHM/dEgJhrxOiv6ByvijqPV2iRpJdYgDnOw4ZSztE8QK7Eqih0gVhWxDMN8aMjiR0et+Gz1seu37tUln2WgR5WIsXglq7vNavM4s6pP/UWu46zadVX9ycN5y/eysq3s9lJWNIMVjmeFQ1hBf96ay++pI35yhUcCZpqNlB9Ll3ib8YgfknuJ03TBctjKgKcgzlwdhqw1EnopO3VirNlWh1WbLhTE3dn57p7F9B1Q7/eexSmONP92xeBFR5C/eAMasd2v03ETHMTYr1NFMQcxTZxwgPhTET0RiP5BdQKNE7JHh8N1DhBjQrxKhVczHVAdC3Vi6TMT164+crmqpi7FQbC4KBjvsurz7N5udvsndutLVjyB3RjObgxrBtdQduMj8xrMbgxmRYNY0UBWCNcAvugIr4J+vNTlV19W0IdfHLu9+AWrmvlHayUSDNTRctgMvcRyOOpKpNd5gw5nmpHCMMcRBLGzR6eHOEg5DMs4UJSg6jCXhlU5zOc4hDqMZgnAMa+IRS3MPwoQA4vveb041Rsl0897Fqc4OT53J1gMzTpLncDEH7xR6oQGsSqKAyAebe9M4uqEKyE+CGJaCHOBONC1I6s69PI6MujM+3WPjFj2zoztB87kxeJJRnsTPP4xVsKqzrA7P7Nb37LiT9mNISb1LAg28h8Fc28I5gJ2iwZy/hYhdvsr5vbh2C3sK+Gb34fJqxcrIBQGEMNuOsiAl3FrgfRhyz6s23TBcjiL0EtbIA4LvYwAYoPCYqw52KazpQkF4nPd2OV3vKctBS+y+LRncYrD43kUy46GgtjhYDMq4jAQq3XO5s4ksxxGB5tgsbG8Ts7Xha/qsFKJzX4dVyc6jloxZN4vf1wuTuaUSNSw2kJWcYDdns+KxwsEA/gambZJ/rnB7MYgfmHxCxSWIO7PCgWIC/txBMNHWQKLQrigN6dwchAboZdqpjk3LH34rfANoaRTF1wSCm26sLFmnS8RBmI61vyssY8D2nQyay1QDlNRIgmFz3VjZ7uyy++yit9TvGH8pzM9Ac/iFCd3627V+FXHIjjYMB5eysRAYRXGRld16Hh4WQjLcnjNoyaL3Q42lYopa2GzItYysWjWqXXO9hbRjqNWfLxo/8lrt8IEYm6hqCtm5fvY7dmseHRzqoKRy+HlMIIYJAhOYQFi0CKgFuZEjkZhOscBZoncd91Zaw51GLzDSSmMugTPgH+FXyhNGPkSUShsTtM5dInkrjXs1Kla+Hx3dq4bv84+xq8rH7DKEyneMP7TmZ6AZ3GKkystr5m2/iTKxEa/Tu/pwHh4CmIRDz92vZivwz0dONOhOnWfiuGOQL8Oo9f0fN3IlbwctqJ/RqwA/qKVTVmJiTQhZGKRNcHn6x4duXzUwv1nrpeEgZjFqxNVp9ntBax4TDOTI0wQoxaMooSlSxgUFqJwfqAczuvJ1eGgLqHLYaoOh5glKIXpKB01rslVza8zXEyHFA4rhy11OHSIQ61Esoc4VPqwrQ6LaTpaERt+CQViSeGu7Jy6rvRmVWdTvGH8pzM9Ac/iFCdXVlk7Y+sZkIkNEIM6oaec9c4kiF6j/TqROEHj4XXiRJiDDUxsBohVPLxVEdsONlIRc2nCBHHbYUsHztl1PmxpMazLvLOF3fxMtOOQfc3nJlo5rEUJ1ZqLVA4Ly5pUhwWCdQa8U5QIX9V81cy91LvpyBxHJPtwWDlM1OHQaTrao4uiDisK63JYURhwfG0gq76c4g3jP53pCXgWpzg5se/u/BOTtoSCWE45y4oYwzDFjdWv0xlskDghQWz266yKGMc6jIpY9etMEINxgliJhy1TO5N4RfzQkMX//Wb7qeu3QnZSxLlBrXQhuzGyWYoSH3FfBL9c6jDVJTSI0SBhlsMgEFvlcD54h8VWJJ0+DAJxFiuR5DRd+iuRaFGMuZd0mi5Zyg8MblB1+Ck5Skf9EknK4XNduSiBFTH/Y1eeX1ybn+IN4z+d6Ql4Fqc4ueq62Oojl5+cvNUx6CwcbEHjBK2IiYNNy8Q46Bw0TqQEMXVQUBCrJR1yYRJUxArE0kr89Pg1B8/muR9wIsZqctjt/zVXUUKBGOSIQnBKCLMEpXAB9OhIm84qhx0UJsY1rksQs0TK0MvgNN21sHKYhEvQcjj6Mg47XELZh5OFXqI6LEBMU36St+ksEINYfLYbyx3L6krcrx//t1mfgGdxiiOsqYttP5H3wvSdTiuxAjGVidc7K+IQ44SjX4cONqMidsnEqBG7HWzKTQzRa10+Xb3qUI7bNZGIsarz3K/WvMxqKIxAOTxYONWEUxjNEghiXgujWaKf9AuDZQLbdNQvwS1rFoXRO0zGmi3XGrUPB0FM1eGw0Eu+JOlVZq1qlq41EfGTrBwWuoSzHJZtOisGXlXHnLwqa01TGB3ESpoAgdgN4s7sXHdW8DmLlaV4w/hPZ3oCnsUpTi4eTxw6X/TqN7uNhHguE9vGCSiHDeOEHHR2VMTCRxwBxOCaECB2ysRyeR3XiGFhBx/raDOM5xTjfN1DQ5a0H7F84qrfyipqXI82zpc13PqqeYPYsg8P4PZhDmLhWjNAnJkuQdRhLIet0EsN4mDcmlkO05Sf4ByHDeKX2eWXedCaQeGXGIZL0IpYg9jKWgunsBvE5hwHpTBKE7Icfoyd7czOdGHnerDiWTwgyf/XMCfgWZziXBOJxPGrt96duVezWPfrNoqQeA5ly8FG4uE1iFM62NTyOh46we+FcULe4HydyzghvBOhxok2Q5d++L+dp6+XBGVi7l2rvsJufdMsQUzUYT3EgRQGEFuiBAWx8g4nKYd1mw7Sh5V9mJfDZKY5JYWDcWtQ/2LoJdUl0LJGs9YMEL+oQZwDe0JxQ6hwraFfQmbAi4gfOtbMJzgC03SGOqym6TSFiUAsKdyFne3CznTmLD7bmZ1/hpUsY4kkY0Ep3kr+08lPwLM4+fnwz14svNN//kHKYlOa4AGYhMUicWL0uo6jLeOENLGlYZygDjayp4PKxG2HLWvLK2IpE4swTKyIoV+3pMfEdT8fyamujQUfaqKukBXPbr4gBteatKyZ6rAc4lDe4UKlSwRdazjT7NAlaDksQBwUJTiIRbKEI+XHVQ7DqmakMBjXoBbORB22dIlgOUyz1sAsocIlHLpEWDlM/BII4jNdJIWBxRdfYGXbgy8h/zf1dQKexalPMq+k4uNlv+kpZ61OcAdxchBbMnEU44QuhJU0Ift1wYrYBLFQJ3gAG7/hezp4DFv7EcvGLTtUcLvckYAZu8vKVrAbI5qZa8KpDlsgttRhBWIpEKuKmIZLUHUYymFtllAO4iCI+VizGfGD9mHpWou8m84qh/UoXdiqZqAwbuIgKT/JViKpNp1tHzYpjK41tzrchYsSgGAuUHTi18VX/QB0alhk8RWexakP73Z59ZcbT3SbuLlzVOOErIgtED9qjHXInHiHcWLkSg5fBWIaN2FUxDwPU1bEmIepQMyNExBM/OLUjXvOFDhadok6dm9v85upc4KY6hKCwtIvAffgVxPhEjjT7PBLmCk/EsSKwjDTbAnEAGJHOewMvRRDHKnV4Vcc6rBjiMOyD5MNoY5pupCVSLpNZ4JY6hJimg5da5Y6bIC4I2fxlfdZjTcXp8ZFxl/hWZz66Mqr637YfeGJyVs7kYq48ziuEVvSRGoHm5yvs0GsEycIiGk5bA3XQcuO9uugFhYfNYgfGblswsqjJfeqrQeZYIlE1SUetNa8jBMCxKhISOMa9Ogg6EfEqslOHQGxNK4FymE5TWdSmM40Y+ilg8JQEQfbdABisxwGIcLSJaRfgsw0U4H4siqHswUxGteST9MFBWJiH5YgFj06pLCsiDuyMx25anx9GM909v812Al4Fqc+2lg8vv73689/sSMoEysrMR90doIY+3VEJjZALOriVVgdy4oYGneufp2isGGcEOqEcFAM1SBuM3TJs5+t23Uq36VOlLGyVSLuEn1jTX4DIHbNcciUSwQxCZfgQZfmHAfqEm4Qg3FNuNZkuIRzoE4ErV17k6FxDdOHg206C8Q05cfWJYRfglM4AGLZo7PKYaJL0HKYtunSCr08D+ESpE0HQxycxaYucbaTQDCAuCP/bOFXPGLf/9dgJ+BZnPpoE4nEgfNFb8zYLVwT4GbTMrGojkW/jjvYrH6d3ugsFtatpek/yF+8AR+FzGBzgRiqY76qgww6o4MNNGKRO7GkzdAlDw9bOvzHfTfLKu1HmKhjlcdZ8aTmJBOroGHtl6ChlypoWOZLmKGXaB+2KUzsw2Ghl7wvR5ZxOEMvUSCWcxyqIg5mrWG+hO1aE7oEGNccFH6RBUEclj4cFnpJ23RSmjB1CSkQmxQGsThIYQvEZzrwobvbq+0Xkv9zvZ6AZ3Gk4zyTe7vn7H2dxnL7Wqp+HaQS68QJYiXWqzqQvyJxQjnYhEzMfcRJQMz7ddy+pjLYqJUYWnYcxG2GLun48cr1v111KMWxO2J1RTB8vUlK44jlsPJL6Nz3QDlspPxYugSWw2qmmWetmcY12aZziRIOCodkwCehMHetqXAJhy5hhl46MuBNv4Qsh526hJPCIvQSvcOSwo/xHh261rg6YZbDXJ3owK/zPVi53wAdiRUZf5FncaSjK7hdMXLJr4+N3xgAsbGngzfrZEJ8+g62KP26oHFiqG2cgCk7Hj3x5ea8korAw0vwVPiiCc2gKEYKK11CKsUkA55Kw9y1prLWqC5hl8OCwhAuwcvh99W2ZtKmcyymS+qXgCE6HKXj9S+J+KHlMBUlaAZ8sBzWExzhrjWqS+isNZXyY9XCKcph4lpzl8Pgl1CiBFL49KPs9KPs0musNjfwWvJ/UZ8n4Fkc6TTvVtZ8seFk94mbrH4d0Yh5GCYYJzBuIrlxAvp1hoMNZWKoi0fw5aFk0Bk0YjJfp0GsZeKHhvCdHQ8NWfztpuPBLaKJeC0rXcWKmnwxB4JYLUDCsWZDHY5QDoN9OC11mHbqtGstuIwD7MNUlFDlMGUxznFQEGP0sFMd1iCm5XBEdVjZh23XWmCmGXSJs9F0CQ5feolymIP4EX5d/5ivN/T/NeQJeBZHOt1YPL5oz/kekzdbxgngr5CJ9XwdsjisX4eJE8lBDBTGeHjStZODzkEHGxbF7UetPHKhyPHYavPFho4mkSPgHxUUdq5EwnCJDDPghUAMW5GslB9o01n2YaoOh7bpVAy8Dr1MN+VH6RKYtdYg6nAAxGBco6JEWDls6xKCwlyaUCA+1Y7dXuR4Lfm/qtcT8CyOepy7T+W9+MU2apxwgdiZEG8YJwwQg4lYhE5ImVhVxKaJDdY5k4qYxE2glViAePFDQ/j19lebSp3pE+V7m1SdICCGfaCoS1AQ65QfOtNMBGJbl7AoDHFrYqw5hVnCnOOgZgnql0gJYrsixpSfAIhlRWyWwxdDKuKgLkFrYds+rCJ+6BwH2oc1iNVMs/SuWQIxgFhRGIriM4/5KY+omMji6zyLox7embzSt777BTQKsapjvWCxbZyAophUxEa/DpwSRr9ODTqH9+s4iMVYh92vw1Ud6J0AELf+6KfP1/waTJ/gwS63vhcRwE1SF5sgphQ2QKx0Cb4kVK0HRbMEDZcwlnEE04eFUsxZLNp0Tl0iYjl81ZU+nMFYswPEz7JkoZc4xKGm6ahGbORLWCA2dQkca6YkPOlcAAAgAElEQVTeYW4fpqKEatNhOQwgPv0Iy3mL1d2M+j7xX5fpCXgWRz25m2VVHy06Inp3YYkTcpFoGIgdqzoUiLmtWMXD2xVxCgebnK9DdeKhIYvbDlu64WiO44HV5jXRoB2hsESwWtWMFLay1gDETvuwIwP+QwYrkfgcx/tML+MQK5Goa02n/BB1GF1r1lhz2uVwMG7NlfKTQ4N+yECdc0moM+UneZsOSmCsiME7DFlrmsUh5XAQxKfas8KpLOEIM3G8wPxfZXECnsVRD6+6NjZt/fEu49Z3HO2oiFEjljd8i6hRETtADN41+jE0cUJWxGKmI8w4wft1cHUevfrEVdeIVOWvjT5ohxRWZgl7mq4/K4BVzRHKYcO1RuzDHMSEwhh6CYowVsTYpqNjzVSXuGapw8IvgWPN2KPjFTGZpsM2XVjWmrsctlJ+nmawqpnPcZBROo5dZ/owGNdUOUzj1gwKi52hGsFB11pAHcZy+HR7dro9N72V7Yz6JvFfl8UJeBZHPbxEIrHy0KVuEzZSaSJonOAsJhR+9JM1YCUGXQLj4WG+WU85K5kYjBPQplPSBMrEcmGSGnSWPmI0TqBA8crnG4tul9sPLBFjd9Y0rkCBIKZmCTPlhydL0Ax4pUsEU34c5bDYh5RLvMM40+xo04E0TMphSeF6CpcIAzHv1KVUh0X6sFaHSQY8FYiTiRLdjH1IqA6fFbmXlMWGLqFAjH4JCuJT7dipdjwSqMa72ew3U0P82bM4jVM9llPcY8pWxeIkxgnZrEMQG/06K3GCSBPEvgb8NaJ/YGGSArGUJgR/dUXcesji1h/9NPiH3feqArHx8UpW8r9GbNwJEIMiYa1E4rpEf47gKCuRkqT8gC6BokReSOilLofDZprNcrgB1eHnGEYPuzdx9FDVcZrlMNbCksLBmeYwdbiDdK1RCp9uzykMV/4472ZLgxFZfKlncRqHd7Os8u1vd6brYFPqxGo54kwS4qlGjDIxJP60GWYkTtA9HaZxQoP4IQHi1h/9NH75EUdacewOuzmtUVgM5bBaiaQFYkz5ESCm5TCmDwfLYSN9mMxxOHUJqxwOU4e5QCy8w9QsAcs4rAx4mONIMU2nBurQtabtwy8w2MTBZ5qfS69NF1oRZ5byQ9t0qhw+kwrEZzqzOz97sTgNRmTxpZ7FaRxebV1s7IrfgMUdPuVTzrDO2TnTYRXFFMQyDxMqYoc6Ed3BJsc6UJ1o/dFPrQcv+nrj8Zq6wP6F2kJW/GnDs9gEsVUR8zmOAIglf4llDaIv0bhmZcAH04edZgkEMVWHZZvOlQHPy2GxjM6KW3OC2FqJhDPNOS8yDeIkPbrASiQUi0EgRhAbuoSiMLrWwCCBRbH0S5hxa3zK2QViXQiLaQ5Qh7Ec5jcPc4Gi8gxjjnSpNN42/kujnYBncbRzUl/1869XeCQbB3EyK3FqEI9cQYtiMl9ngzjYrwMHGwzXAYV5RayK4oeGLJ619XhtkMU1F1jxJw3MYqJL6JQfLIcHSF2CShMA4hShl6RNB2PN3ClBNoTCTDP1S+g5jpB8CWzTJSmHw5aEhoFYUxjGmjEGnrbphIntohUuQcaaQ11rCsTJ04dpBrwRegk4VhVxFBCfas8KJrCYX/ys3vwN/L+exekd8Jnc2098ttEBYt6yiyoTSyuxcE2gNAE3bU1pQqjDqY0TCOLWgxc9NGTxgl2namOBurjmPCse2ZAsHsxwms4BYhSIoVlHNnGkADFN+YFwCQvEIvQSzRJYDmPcJdygX4JSOCWI6RDHlVdYTsC1hhWxBrHq1HFRglBYh0tYIBYzzRfMlB/uncBROkVhLIcdrrWAQHwmSb4EFML4UfglrIr41MPsbHd2exVL+JzM9BCR8Vd7Fqd3dHcrqz+c+Qs62IiV2Ani1YZxgsZNOKQJ3q/DVR2iHLYz2GBVh22cUBVx68GLmojFUA67VjVLUSJEl4hCYUj5keqwRWHnEEe6GfCmLqGNa8S1ljIDnoJYSsNhIH6Kd+f4RYxrDtdaSNYapzBJ+cEhjqjlsDlQ59QlTj0su3Y577KKE16gSA8QWXy1Z3F6hxdPJGZsPoksTupgUyAGBI9apcthF4hVRSyIPGwpphIr4wQ62BZTdYILxHANXgRicePWxagOK/sw79TRlUhCl6BtOgy95OqE2sRBp+mc6jBdxiHHmknuMBTF4JdwqMPRXGsZtOkuvWCowzDEwcth50wzLYfRtWaVw08kK4etlB8AMZeD6W66LmI9XUAghrg1LU0Ea2EhEGN1fLoDy5/sF3mkR4fsvtqzOO3zO3Cu8PEJ6ySOTSsxyMSGg42CGBCM8cREo3h4OC+BwUERqIglhVXchDZO2CAWjbuHPvppwc7G0SiSl8OWOhx9JVJAHZYgxtBLMU1nixLJy2HlWgNRArBr9eiyVIc1iJ26REg5jD06O1xC6RJ6iCO4EsmksFSH6UAdqsNRymFlYgMcn3ua3V7HEnVpvz38N2R6Ap7FaZ/cjTuVH87aIyriNXSsw4yHtx1sOm7CURRrEAOUkzrYAiyGiliAmGsUjcRiAmIr5ccIvVRzHFgOy+hhVRSjWSKt0Mvr7zBkMdqH+cJm1alDdTjoWksCYksdhk0cdIgjiToM0gTNgNcCMQUxVMRmORw20ywFYjNcAuc4aDkc1qZzDHE8or3Dsgp+mFsmsCKGmys9WfWFtN8b/huyOAHP4rQPr6Yu/t3WU0optmViMV9ngBgcbHLEzgHi5VgR46oOGoYpNifx0tiWiVGdQI0C9OLGYHHISiQZLgElMBmoc2bAU13CDWLllMBpOt6XM6UJBHFoyo8rfRgr4ki76cKy1qyBuuTlMAjEKnqYmiXCQCxDL4k6jHMcFoXt0EuV8uMAMRniSALiM51Z0Td+xCNtNGT3DZ7FaZ9fPJ7Yd7bg2albQowTSia25uuINGENOmMwsVAnpGtCyMR8Z1JIv86WiXnjbtBC/pGz+GRD+iiIX4Lah2U5DOESUA6TJaGyTRdWDhNdAqbpcgHEdEmoCWLtWiPlMLUP04o4RcqP2EeHRTHPl0gZekmWcaS7m47qErY0QfMlwsrhKKGXHfgyDq0OOx3ErnKYA/phduHFxN393lScNhqy+wbP4kzOr6Dk3tCFB5DFRJ1wgFirE0ogBvvaw8OXi811ctC5LZeMOXxpUZwGiAWLHxQ4bjAWCwqDcc2hS/TncxxGvoSVPqw6dbYuIUCsM+BJvgS26dIuh5VADBQGXcJK+QkKxBmm/JBOnTNrDXfTRaFwqC4hkiWMiphKw9Q+nJLC0KYL6BJQKZ9uz64PZ3XFmbwx/PdkcQKexZkcXmVN3ZJ9F7qN36Byf7gogURub1XEJoJJ6ITemZSkX6dadjKDzejXCVFCV8SDFz04aOGDgxY2AIvBL2G51pRlAoxrxjKOdFY1UwqjX0JSWHiHoQTWZolAm46qw3Y5DFlrZD2ddq0F49ZSlsPKOyyNay5dQlrWTNdaGhTuxtzLOMxy+IwFYmjTid10wXJYyhHQnQsrh1Xv7sxj7Lafe84EC1l+j2dxJgeYSCROXCt57/tfFIttEOvlSST6hwzXgZU4zDihI4mVTOwCsWrWSWlCgPiBgT82AItBlKCuNZPCshxWoZcp1WHpWrPKYQi9RLNE8gx41aPD6GG5qtkqh9PMgA9uCLVmmnX08LPGHAcvh59hF0XupbYPu4Y4kokSYlUzDjQnU4fDQIzjG05RwnStGYBWID71MMt5l9UWZvKu8N+T3Ql4Fmd4fqXl1TM2nXhs7M9BB1s7sBKbDjYbxNzBZu/pEBox79GRPR06cUIP12HXDjViBeIHBv7YevCi+quLo5XDQftw2uowSR+WFXG9qMPOcviVQPpwOuUwqMN0oM5BYTXT7C6HcaCOqsNOEAdca3abTrnWghnw9hxHqnIYlOLT7VnJMpYIDG1m+C7x35bGCXgWp3FY9EsTCXbkQtHrX2+zjRMgUCi/hJ7vEEoFBhOjlRjUCdCIoV+HLKbGCQPEaqyDVsQPDloIRXH9sZiAWKvDdI7DpQ5bFMaUn0jpwyL0Mhd0CeKXSG2WiFAOp1aHzbg1Pcdh6RKWOiwq4gvCqSan6XCOI60MeGIflhVxZ8bTh4k0YUT8KLNEyqw1gGzQteaoix9mOe+w2hv0de7vG+0EPIszP+qyipov1v3RZcxaOugMYrHlYCMaMTrYlqsenWGcyBLE9adRgH1YbEKiZglciWSow8I1EbabzqCw5ZcgZgm9jINQWIdLBM0SYpqOq8MmiEEOtlxrGeymk9uaLRBbK5Fo3BrONKvddLQoNuLWzHIYyIvShDNrjduHA6N0fFVzqtBLjuCQHp3N4ofZ6Q7s9urM3w/+O7M7Ac/irM7v95ziN7/Z8QgGTeBNQCY2K2I16DzUMk7goLOWJjCVGEac5UelTkCzDhCMpXF2GgWUw+mkD9tzHAG/hDXWbGTAKxNxsBxOBuJA6KUz5Ye26dCyBuES2rVmlsOWQAzpw+6xZgpiMc0B1TFXhJ9kCGKDwmqaLkXKjxl6GQbiYI+OZsCnUQ4rsfhKX68UZ4WD7L7Zszir86uorpu741TX0at5IewCMa2IDQfbMD5rZ87XIYhTJE5ABhB8BP4Cix8Y+GPWdTEph62sNVzGwdVhNU2HG0KtDHg6x+EAMawHJRSG0EscpdOWCbMcpvZhLIf1WHMg5SdYDl95mSWfprNSfoJ+CdmmQ1FCzdRxECdfxqFAnGys+TEjXMKmcFq6RJROnaLwqYfZuR7sziYfG58VDrL7Zs/i7M6PsWvF9wbO2S19bNivU+owsrjtcAgmdm4RXWIO10nXhKMiBu8EzHSQfh1Q+IEBCx4YsCBTHwVRhx0UDmbAW641VQsnoTBkwKNrDVYi5YqsNTrTrMthYpagFKautXTLYYgepmPNsIxDq8NkiAPKYWzTOcwSwrjmXNXsLIc1hc05Dq5LgH2YqsNOs0RwiCOY8hNdl1AsPt2B5Y1jtUXZvhn892dxAp7FWRye+NZ4PHHwbP4Lk9fxNh1eI1ZQ4wQHsXBNwJQz9OhgrENQWJvY3BlsdMrZBDFqFBzHwOKBP6avUUA5rOzDcisSZsCLIQ5ZC4tROlyJJMMlFIhxiIPWwkboJVTEaFxzhl6KJaGOuLWALiE3cRCzBM1au/wfhrpEyiEOqQ5bICb2YQQx39MMF5glwLhGRAnbtRYsh8lYs1SHgcVhIEazRD2qw4rCIGVcfJ3d2++TgLJlQXbf71mc3fmJ766pi/209/xjY9byKliUxiaIl6s8zGWyXzeM3wCFccrZthJjKnF0EAscP5gei9NXh9MCMc5xyA2hRJeIuJsO5jhoj+6aiJjIYCVSsBy21WHcxEHMErgkVJsloBwGv0T26rBpXMtmJVLUNh0FcTueGX/jBxYrq4d3gv8RWZyAZ3EWh0e+tayiZuzyX9uPWmnt6eCDziQMExxsqiLm0kQk4wTM15GKGNt0Wp0QYjHXKNJgcXJ1OM3Qy+CSUAli4h1Gs0RQIAbjmqMcDqQPZ6ZL0DkOiFuzdAkdeknMEo6sNQSxyFpL2aaTuoSYpsOBOiyHjZnmkE0cqc0SSWeabb+ECeLTj7Lrw1jNNZ8ZT97NTXPrWVw/555IsCs37nw0b88jylkMxolgBhtNnHCC2CET46yzmnKWCFb81UROg8XhILZDL6FZp7YipbeMA8MlUJdwrkQKjDXjQF1QHa7n0EtLl0gOYjSuOUMvQ4Y4orrWwgTiwDSdjdeIrjWTwvBDLr2eKD/qY4DqhwLZ/RTP4uzOj3x3XSx+9NKNnjN3PzpqpXSwmf06yzgRFcSkX2eowwjiAQtQLL6///xodTERiK05Dg7i+gq9JCA28iWIg1jOcbzFGiH0Mkn6sNu1JjZxUIEYtjWfd4I4ZCuSvYxDdO3OmrqEPU2n/BLOrDUHiDNj8cPs3DOsdKOXicmbuClvPYvr8/Sra2O/nMz94Lsdj45aaRknLBCTKeekDjYC4tZB4wTgWHXtHhiwQLB4QareXar0YWOOw/JLRAi9lH4JJQ2HpQ9D4g8PgH87GoiFZQ2z1jB6DYxr2KaT9mGxJJTqEuCX4B9fUBed4yBtOtQldMoP0SXQOIw3oUtCTbOEnKYTfgk6TWeDON2Un0xBfP5pdmsxi1fU5xvA/6wsTsCzOIvDc31rVW1s3+m8XjN3t+dWCkyc4PvrcNAukkwcHv2DnmIwTsDH+/vPlyweMH/BzhOh+cVFgxi/xEBd0C9hULgfc6b8gFkC1GFHBjysalYOYhp6SY1rWA7jJg4UJWTKTzADnvglUmbA8zadyoDHcjgNClspPz0Y39OcTjmMc3RwAwIx78sRswSnMNUllF+iYcthIS6ff5GVLGHxe66XsP+7pjkBz+L6P/fautixyzeHLjzUftQqZZzAVGIdD28bJzDxJ7pxQpjYAMHwsRUncnIWB8aa7Qx4VIdF+rCVL4GuNUph7VojooQuh4kiIb3DoA6bcxyYewk2CTRL8PqXUJiWw1eIa41O0wXLYTrBobPW0lzVjIUw3CQrh4lrDcvhqG06V/qwoUtkVggrsfh0e3bpv3yXXexu/b/0/U/M4gQ8i7M4vPBvjcUTeSX3vt30Z4+J64U6wVmczEqcqYONgvj+/vNb9Zv34IB5yepihzrcnwvENAM+5UwzBTG61nIJiGk5TKfpZDkcRmGVLGGA+FXN4pTlMKUwlsNhIKa76SBrTUvDQpQAdZhXxEnsw0nDJdwgprUwyYB3l8PWVqT05zg0x0XixNX+7N4BL02Ev3eb7DOexQ149FXVtTtP5L773c52I5YLgTgdB5vyTkC/zujaQbNOyMQoTXAQSxYnqYtHKHWCzHFoCme0EslQh4VGnDL0MrRNp1icYiXSf1joHIfSJVAddoM4S3U4xC+BljWtS1g9us7MrQ53YKlDL9OaaVZVsASxIPjZbqxgCqu+6Jt1Dfiez+JHexZncXgRvjUeT+TevDtn6/GXpmxoP2JZG5FN/NCQpP26gJuYxk1wdVg5KIIg5r27AfPnbz8eohcDi50gBu+E0iVovoStS1gZ8FgOExBbcxxYDjsojHFrpkCcJG4N23QwTadTfsJATHt0z7GLwTmOoDqccppOlcM05YdqxDDWbKjDYSB2iRJZpvzoWrgd33p39jF2pQ+7u4vFqyK8Zv2XNM0JeBY3xrlX18ZOXr353cY/Xv9yW9fRq9oNXyZwzHMnjJ1J4f06bShWDjYAMcrErfrNQ40ilMU3hrEiADHqEmoZB6b8BMeaIfRS6hIA4g+Zoxx+n/GKOMlY85sMO3WoDtOBOrmbTizjyCz0kuoSsiK2QEzsw46Unx58vjl1yo8Csc6XIOnDdI6DasTu0MsGA/HpDuzs4+ziqyz3U1a2hcXuJBLeRtwYb/aM/w3P4oyPLr1vTDBWUxc7n39n6f4Lnyw59PY3W56ZsLbTKK5duMIw+UZn9EvgjSyKhXcNi+JW/eff128eFyiERvFAkrr4xjAGu+msrLWUIKb5EpLCHzCd8kMoHLYkFCmMfomrkC8RrRzm7bs39HXldXb5NXK9yi7DJeQLjGe7/ArLeYVhHlDOS8y4lL/t4vPMuJ5jF0T5DKbjC8+xC8+q62l2QZmOzz/F+NWDnXsycD2h/uYJDsSz3QJXV8Z9x+A1fozXrdxiIVwWpzuxdC9uxugiftoT7MLz7NLr7Epvlj+eb+io+IPF7jBP4fTerE3z1Z7FjX3usXj81t3KU9dubjt2Zd6OU+OW/zpw7p63Z2x/ZdrG5yaufW7i2qfGrX5y7Ep+jQleK54cw68nRhvX46OXw/XE6OVPjlmxbO/ZulhgTU7NeXZjGCuAZRxmOWyZJSBrLVgOa78EjjW/x3Tc2jvM4Vp7m9Gx5iTl8BVYEvoqg4qYRg9ffoXlD2O3F+mrZBG7tTDytYDdmp/sKp7Hol4/sOK0rjnsxqxIV9H3LOPrxkz+W91cyEpWsrLtifKjrPoSi91OJOoa+8Xt/70sTsCzOIvDy+5b4/FEVU3dzbKqa8X3zuTePpZz49DZ/ANn8vaeyv3l5PVsrqs3yuLBUqjmPCsaRqKHyTIOqg5TEDvLYZryA226MHWYz3Go3EsnhWX08OvcKZFkiOPyy+zmLB5eEy/3V8gJVHAtOFHLWNwrEdm9L5vsuz2Lm+zorX84kUjEE4l4vB4utzJYdZYVDWGFEHopenSwFYmDOBB6SdVhRzksRjnqRR12UtjaTcdZPE+Axjoz/0d/Ai3nBDyLW85zmeKRVJ1hRR+prIk+LAmIrXL4/7d3Jn5NbNm+/8t6Ot23+/Xr2+Pt4fbtvve+924GMhBmGRQREBAUAXECFFTwCCoqiooMKioH9KAiyjzPEJkChIxV+51KkaJSqdpVGQipZOXDRyuVGvb+7V3frKy99tp7DmLGL8Fk+REepmPMYSHvMG+uNXoeB++cZmCxSOvCx7JXAFgs+yaUWgGaxbQ7ghMsIboYB69fgj2Jg1mMg+0d3gOxVw54XhCzHcRM1Bozmw5YLLWZ4Ti5KgAslmvL+VxuhsUiSS9ZSzVTFrE7swSFY3e8BA+FfUl6yfFLsKc1sydx0CCmoyCAxT63N5wgMwWAxTJrMP+LaxlESylIBMQaRHuHaQpTIGaviqSkIoj5o9bcY3S0d2JvpI5OA++OWuM1h9kg5prDf0f0PI7Jfwd/sf/tDmfKRAFgsUwaKvBi0iwWHKZjUZjfHHZRmBu15os5TGFXKF7iP/bXpmObw0x+ia9VrjgBJ7VQsdz++IdSA29QuEJkKQAsjqz2xNSGYnHyXsgEM62Zd5jO2zssNJuOxzsc8JJIk16phyf/huYyqODZ9fu+/N1D63dE/lbrqQPWblPTIqiNBmqb3rnq3l6tp/b483eLShC8Wk9aBhDyCvfGtBR8FJUKAIujptlpFjMU9o5a2/dLuNPAM+HDbAcxkwNeEMSeTgnaC8HMaWY7JYS8w4w5zMxpnvgPNPXf+3+T/4Um/wtNuP8m/xNN/JOahjfxTzTxD/fff6CJv1N/439H4//u9fc3NP43NPYXNP5XNPZX18Zf9mbfjbqm4VHT7f4NjfzJ/fdHNML++4Nr0h099Y5vAh413e43aPhf0fDvKL7DtIuoec78riiw2G/p5HYiw2J6Qh1lEbP8EnMxiJ30cm+YTkF5h9kOYibLD+88jhl3ojVO0kteEGO8w0waeDrdGn+uNc8UP8xiHPt5L+m16eg08N5JL72WRNrL8uO5GMdecgmvdGseOeCxSyINfoO+1kFwtNyelkMoL7D4EEQ/nFtaBtFiEhIEsdsW3s8B7wIx1yKWviTSf1Gzmb1n09HzOLxBTK3EwVqMw4+kl/sUZrIPu1IP82Qf9gIxneVnyDsHvCtThPiSSN8g/uzDrjRpwOLD6fEyuyuwWGYN5n9xKRYnIsZBzM4BP+dKKzEvIekljzkcQNJLJnyYDlzjmMMTf0XeFjGVrweffZi1VDNnJY7R3yJqMQ46+7A71xqvObyfA569JJJQ0kthEH/5MRr4CdjF/nfaaDoTWBw1rb3PYlfGS8o77OmXoL3D9DAdj18Cs1QzyzVB5b30XCSUvRgH20FMZx/eo7CXRTz+FzeI2Ukv/+SRfZhejIPOcrm3Tiid9PJ3CEfh36ARN4h5k14yIMaZw26/hGgOeGBx1DxhAVYUWByggPI5nWaxhznMmsfBDNPxUNjll2CmNbOz/FDZh90jdd4UZqC8l8TSHbgWVjng/V+M42eCfon9VO4/ArtYPk/IIZcUWHzIDRC62zMspsxhehIHM5UOmwOeoTCTXGJvqWY3iPeWRPLRHPbJO8z2S+zlgOcsxkGvxOHL2nR0+mBmMQ5mqWauOcxens69VLOoOfyFXpgOWBy6Di73OwGL5d6CkstvGUQLCS6/hBTvsNdSzeypdFxz2LUSh/cwHW+WH5+XRPqTh4OY8UvsOyV+51qJw8svse8aZjklmCWReIbpvIIlfFqbbt8Wphemo1drBhZL7p9RfyCwOGq6AM3i/XkcKteSSPRsOiVi4iXwUWvsJZH2sw//cz9eQqp32O0g5sZLsL3D/4bGBJZE2guZYC2JRI3LsQLXeEHM6x1mL4nEtog9lkRivMPfUMvHefz9hPJC8IPYBWXwF0fNExZgRYHFAQoon9MpFsdRy3AwWX44scNMrrXZ/0E8i4R6plvb80uwKMz1Dv9jf1oz7zAdl8J/QRPSQExZxEywxO+pYbqRAEH8L641ilghEx4gZvwSoiCm/RLsNZjBLpbPA3LYJQUWH3YLhOz+bBbTKX7Yw3RsEHMdxJ4UZuZxcJNLuPzFIn4JIXPYBeLxf0Pj7oXmxlmBa5Rfgl4S9PfUBs3iUdo1gaEwyzWBs4ilgdjDFv4pZQvjzGEGx8DikPVv2d8IWCz7JpRaAZrF9GIcjEeC2dhzTXinW/MC8V68BN88Di6I/47o5BLseRzU6p9/pf72o9Y4IOZQ2A3iPQq7oSxiDrtBjKPwr9CQJ4g9zGFf/RIMf9kbwGKp3ROOAxZHTR+gWYzxS/CawzzDdFIo/B/7FPYAsYvCnEkcbHOYiZdggiVGXfD1MIddw3SC3mE3hfcncbCmNbO9w9TayW6/BO+c5kHvSRwSzWEGx8DiqHm+Aq4osDhgCeVyAcsgmjfwJ5fgyfLDZw5TTon/3FunmVmtmRM7vDeVzpVrTYTCoubwH6gAiX0K0xax17Rmj2E6N4j3zWHWtGZJySUC8Q4zCGY2gMVyeTwOv5zA4sNvgxCVgGJxLGISEO/HS7D8EnTgGidYApMDnuuUcJnD+1FreO/wn4W9w390hakxIPb0SzBz6ngpzESt0dPnOOHDQ16Bax5+CTeI/fQOMwhmNoDFIerdEXAbYHEENKK0KtAsph3ENIh5zGGv7MPMPA7eXGvsOc28OeCZpJcc7/AEAy7txesAACAASURBVGJW1BpPrjVXyATlpvDJHP41ok1gGsSMX4LrHWYmcfwCDf8WTSrQ3FG0UIDms9FMHBr9Gxr8hSt8zVe/BANiiGmT1jPhKJcCwOKo6QiMXew9TMeex8HMad4LH/b0DnsErrnnNNNJ17yH6dggnvgLov5cUWsTf6bSSlB/eBAzgWv42XTefolfIa457DlGR0HZBeKhX6GJ/4NWKpC5Dzk3SNJJkCRBkojYRbZptPkUzWZQCYgHfsqKIKYncbCBi9kGuzhqnq+AKwosDlhCuVxgj8X/g+ipzMxIHTu/BB7E7Hkcgkkv3X4JBsR7FHaDWDBqzeUdZjuIqTg2r2G6vVxrwkkv2fklaIt4kOOXoM3hf0Fjf6cobJugFm3ie5EIkY5NtNmGpmPR4L+4cOwdQYwBMdjFfLLCPgEFgMUCwkTebssgmtNLAvFe1JrQPA4vc9h7VSRmHoc3iCkWs6LWKL/EH1x/jHeYZQ4zrmFmg/IR84KYFSyx75r4JcVQJliC2qDN4V+iSRXafEzZv+IvgtwdQvM5bhzj4cv5FOxicX3hCFoBYHHU9ASaxcyEOl5zmPYOU44IVryEqDlMxUv8be+PobB36mEeCv+RojA3ao32DvP6JXgp/Ot9j8Q+hX+Fhlgha3sUpi3iX6BJBWlqlwZiqnuQCCHbPJrPQ4M/ZzkrONjlfQssjprnK+CKAosDllAuF2BYLOIdZlGY7R2eYs1pZueA9063tk9hz6g19lQ6nmE6ljnMjh2mLWKcOcyKWmNSD7NjhxnvMB0yMfoXagE657av7UZYptFsErDYV93geIkKAIslCiX/wygW66hEE9QfHT7MTj3M5IB3s1jUHKYo7GUR74OYnVyC45Rwm8PMVDoqvwTGO8z4Jdw54OnANU7SS34Q07bwzymTdvDnaOh/Ud4G+yJt7PrUqCTpRFudaOTPiMqHyWsFe+8Eu9gnjaP6YGBx1DT/Pos953HsRa0JeYf/gdiBax5Zfrz8EpK8wy4Qe1CYlfSSYxF7RBC7QUzP42CP0fFT2O0d3o8g/oZa73nruR8g3usljlW0kC8ZxDB2FzUPVzAqCiwOhoqyuAbFYi3izOMQBTEnXoJeEgnnIGabw67ANbZrgsnyw8ym20v641P2YWnDdPsIpo3ibyi7eCYFOdb8by7STgW6Df9eMo4Zu9jh/03hzOhQAFgcHe2MEKJZPOO5GMe0Kw08M4+D9kvsTWtmOYg9zGG3X4I9TLfnmmCD+E8e4cN7+SXcM+goFtPmcOBJL11jdFwHsdspsUdk14S6oV8i4xVEBoRFKqZiUuUbi9duB3jTqOmjUV1RYHHUNL912OUvdvmI98xhz3kcbBBzzGGp05pZSS/Z8zgoEHvHS/xOOHzYy0FM+SVcY3Rs18TehDrOPA5PB/EgPa35Z9R8jaFfo62OQNvbvoTmjvvC4m/QxgNgcaCyR8H5wOIoaGS6irYZNB+H9insHqNjB0tw8kuwzWHGL8GYw0LeYXb4ME1h2hFB28J75rB7EgfbQYzxDlMeYVa8BDOt2cMc5qXwN4hZm274d2j3U6Dt7dxAS2epVUclDd/9iMpSv9kiNJ0k0MLA+RGkALA4ghoTXxXHGppPp1jMzQHvGrXjUJgdtYZLt8Z2SvB6h11ZfrjeYZdfgpm+sTeVzssW3k96yZrTzAzTUeHDrAhiKUkvR/5AOWoCfDm30fIlyYHGP6Kcy9vdCBEB3hZOj3gFgMUR38TuChIWZCzcX5hOojnMRK0x5jB/1JrnbDq2d5gBMT2nQyQHvGewhCRz+F/24tX2B+sE0q0N/x7t9rvl8Pd/5xZaLkcD30i1i8f+gXaH/I/c8LeYcJ7sFAAWy67J/CwwSZJo/SaXxfzmsLTswx454FlZfkRBLGgR+5flhz1M56YwlQbea5HQoV+j7Td+ysec5viKFvK8Fljyjiym9/wITccj2wJzNmyAAkIKAIuFlInE/dvfoen/3ksGP/VPKnCYHTvMTXrJFy+x5yN2Zbzcy/KDp7ArywTbImZA7OEddlOYyT5Me4Q56dY4WX72DWEmas3FYm8K02vTDfwCrd0J1ES1TaGZRB+meyyeRs6NSOxMUKcgKwAsDrKgYX05+xJaMFCm8R6IvbL80OHDjF+CybW275egpzUz2YdZE+r2zGFXvATjl2BG6nBLNbtBvL8YB8tBvDdMx8m15k56uY9jt0UsBOIvP6YG3OZOIKfJ/zaipt51odF/l+ag+DE13rjWiEir/3eEM6NGAWBx1DQ1leTGjlbP74GYG7X2d2pCM3uYjgfE7pE6KvUwi8Ls5BIeSS/pqDXPLD8UlP/V9Ucn+vF0EHOmNVMgdo3RseMluMN07kVCB1yBax4s/gkXmmP/QOb3fpvGpHMLGSt9SNg2/p9o53sYuIumZ8z/ugKL/ddOlmeae9DU/6BJlkWMzwG/bxEztjAfiEeDYg57R615Jb3kgph2SvyMsnk5FKb9EvuRZ67Uw4O/RMvn/TWNSXL3C7X8h8R8FAM/c+W+WJZlP4FCh1wBYHHIJT/UG5KOdbSYSy3SvBe15hqm887yI7gkEq85/Af3CqFs7zDHHGbbwm6nxL532HNaM69fgqIwXwSxOIVdeSH2oPwTNP5fVIof0u5zOzg30UIRGpCcNnP492j9HiJtPt8ITohKBYDFUdbslMezHc38PwrHEr3D+2vT8YKYyQHPTGt2UVhwEocbxMHxDksxhz2DHAZ+RmWlsIz65qkgHWi1jpq5J9Uo/gmainXdJco6GFTXXwWAxf4qJ9vzSPsSWjrpg3eYjpdgp/ihHcQYvwQTLMFdEskNYr+TXlKDdYxfwitqbd8j4Q4p40UnNYh3HFlnpOKYtKGNu2joN1JB/OXHaOh/o6+1YBTL9ik5hIIDiw9B9EO+JWlHWy/RjCbQxTj2giWEzWEuiL2G6ZiQNWY2HSdqjV4SaT9YQjqI6YXphBMND/wETeqogTXCKkxkksojYV+kXMxDv/IBxF9+QoUV22cOuaHh9rJSAFgsq+YKVmEda1Q8wNR/UjjmnVDHnsfBtojp/BLcYAl3GniuOcz2EbNB7Okd3gcx39p0+yBmotY4fomfUjMvPEbqpKwQ6jpm5I9opRSZP5B2IyJ2KDOWtFP8Ja3IuYmsk2j9AZrSu3zEwlj3NsaHf4dMbZCDIli9NUquAyyOkobmVJNAu4NoIQtN/H2PxfxJL/8NMSCmKbyf5cdlDu8txhFg9mGvqDUhc5jJ8rMfMsGhMD1M5ws3B36KRv+K5jKRsZoi72YLlaF47S5aKkVTWpeD2NPdzCWv16cDP6fsaMLMURzeggJ4BYDFeH0i91PSirbeoNlEF4tdMzjoMbq92XQsCrPDh70ncbBtYZEsP7+mfunz+CXY5rBAsARFYY45HCCFGYa6jeiBn1PkHf4tGv4NlVyNMrTdH4nylzlg4GdoNtO1hlPk9hyo2cEoACw+GF1lcVViF20+QdP/F024J3HQSzWz53Ews+m8vcOjnlFrQiDeWxKJFTu875TgzKbjC1mjRuo4FPZ2SrCj1hjIHsYGFTsxIovGh0KGmwLA4nBrkdCWx2lGm3epqR97DuI/eUyoY/wSUs1hr7yXeBAPcSxi3iw/oiD23XplzNjgbkyq0c57cBOHtgdHzt2AxZHTlv7UhCQRZR03UhOjuStx/NG1NjMTPkwv1UwvkvRbJBg+7B6jY+ZxsJ0SjEXMTj08JDnpJXeMzlfv8EFayhMKtN3jzxQSf5oNzolABYDFEdioPleJsKP1JjSlcFnHrnXqKIvYhV3GImbnWhMFMW4eB2dJJA6I3cESvEkvfQ6WOEj4Mjb1wM/QpNYF4oBW0vO51eCEyFIAWBxZ7elvbUjCQq0FN5OIxv+yR+H9wDX3gqGUR/i3iBms80jx4zmJg2KxZ+Da3rRmTxDvx6tJS3rJ4M+PUbX9c4MIaNcSSrMp1NJNpNNf7eE8UIBSAFgM/cCtAGlFO71UtoqJv+/nl5BkDrtBjDOHf0UFJ3ikW2N7h92TOMTNYZqk0qPWgkher0uN/AktlVBhyLCEkrsTwf9+KwAs9lu6SDyRdCLrOFqtQVNKRKUe/h2iWBywOUxRmDVMx83y4/ZLHFTUmhdDA7WRf0RVZ0qH1h8ix3ok9gOo0yEoACw+BNHD+5YkNeVs+w1aPIHG/rrvkaBdE7x+CcYcZg/T8eZao4bp2IFrbgqLm8NhEizxI/TlJ2j0L2i5nNwdgHQT4d2TZVY6YLHMGixExaXyMMyh9TtoWuc2jekJzQJRa/zeYY5T4peei4S6Qbw/iY7J9cPJAR8OIHaVYfCXaCadSrnpWEckLO0cos4YJbcBFkdJQ/tRTZKy+6wTaKUSTfw3NWo3Qq/EwfEOu2bTMRPq2GN0Ht5htjksL++wi8IDP0VTarTxADm+wjCdH50JThFVAFgsKlHUH0Da0O4XtHQGTfzDTeT/jRi/BEPhvdjhXyHKEfFL6l/mz8MvgQUx15N72GN0Az9xuYZV1E8EyhYmo743gAAHpQCw+KCUjbTrEhZk7kMrF6mMOWN/pRas465N5wpiG/L0Swhl+eEO07mmNfOA+PBYPPhLNPo3NHcUbTQh+yIJHolI69BhVx9gcdg1SVgXiLAi6whav4vmT6CJ/4tGfr+X64dyTbgo7GER8/olvLP8eIP4sBzEP0ID36CRP1ExEsvnqQFM5xrEq4V1h4ygwgGLI6gxQ1MV0uVHti9Qad6M1ZTlOP5PNPyvLhYzfglOujVmmI4vucRhmsM09H9EJYEb/j1l8i+eRRtPqLWRiB2gcGg6FNyFVgBYDD3BbwUI5NxBthm0/R21ntB8Jpr4Py7fhcC0Zm+/xBfveImgxwLzXtBtdw/8DI38kcoWv1SGNp8hy7DLKQxTmf3uEnCi/woAi/3XDs7cU4AkqNTp9mVqiG/9IVo8gyYUaOi31KgXbm06bxAfnHfYbf9++RGVmHjwl2jsn1T++NVv0c5bZJulQqqplaFhaA469aEpACw+NOkj8cbUAnEkYUX2FbTzAa3WUrwb+weVo93DKOakgXdbqVxnBa9JK30ni79ffkx9MYz+Gc0kUX6V7W5kW0BOM7WcEkxfjsSOKMc6AYvl2GqyKTNJ2Cl7eaeXskDn89GkmgIiheZfUKNkAz9Fe/wNHMdum5qaOfIz6vqD/4uaIDepQfMn0VoDMvcixzIibBCXJpveE2UFBRZHWYMfUnVJasTPgZzr1OSR7TdovYFaUG72GJrWo4n/h8b+jkb+TI2eDf2GIvXgr6ip0gM/d/1942Lrz1zs/sY1c+8XLu/Hr6h174d/Szl8R/9KWd+TCjQdh+Zz0fIFtH4f7XQj2yRyrJOU8QsvUCDcFQAWh3sLRWj5CArNxA5lNVvH0W4fBeiNJ2jtDlqtQytVFKkXz6DFIrRQQBm28yfRQj5aOEXtXCqlAs6MV9Dqt+T6fWTqQDvvkGWQcvs6VinPNbWQM3h+I7TjRG61gMWR27ZyqZmbmxQ+SRejSRuFVGIHObeQ00QNrO39bSFi2/WRhRpqI52UuU2dRQJ85dLaUE4hBYDFQsrAflAAFAAFQqcAsDh0WsOdQAFQABQQUgBYLKQM7AcFQAFQIHQKAItDpzXcCRQABUABIQWAxULKwH5QABQABUKnALA4dFrDnUABUAAUEFIAWCykDOwHBUABUCB0CgCLQ6c13AkUAAVAASEFgMVCysB+UAAUAAVCpwCwOHRaw51AAVAAFBBSAFgspAzsBwVAAVAgdAoAi0OnNdwJFAAFQAEhBYDFQsrAflAAFAAFQqcAsDh0WsOdQAFQABQQUgBYLKQM7AcFQAFQIHQKAItDpzXcCRQABUABIQWAxULKwH5QABQABUKnALA4dFrDnaglOBAiSDJkf3sLf4D0oEDYKwAsDvsmCu8Cki68Uv+6CeskCPafw+n0/rM7HHt/dofd689mt0v88z53b4/7+t63djid7OI5CYL5YqDrEt56Q+kiVgFgccQ2bYAV24csTVuSetHYYrOMgd0+Xt0cpHhq4/+z2mxWq+ifFfsSPZ06QKgANrudU2CmIuzaMaSmKs9867g3AlQYTgcF2AoAi9lqRPW2C7b7/3CQxKDK4XQyFGNbrxReOX9etLVYrNL/drEvC/WSejUe7nOKanNRm2WPM3VkKs4RhNiXam8rqnsPVD5gBYDFAUsozwvQXgU2TwiSZOOGYRBDJTZ5bTY7nrwCoLRgAevxodm8i/nzOBT7BkNtLqM9Ae1RX5YdTSvD1srDfHZrKs9+AaU+NAWAxYcm/WHdmHGPSnE4cHjEhRfL8nUhz+MfXkJi8Ep/tLNj9ulP9IJmM09BPApK05pyiPD7PTgisP0bzDcWg2aOvATl24AXKCCuALBYXKOIOYKDCQYfDFBo/wMXPTY7L6Rcli+XaRzs8YJSFLXbkl+il+ItAKeQ9FtOTXir7PI/e4wrMj8avI1ljtoR04ugIgekALD4gIQNo8syY24MHWgKcxBsdzg4FObnkdXKxhaba7zg48Xl9vaOZN76fyDvrXkLya4Fu3aUT5rPXqaGBFnOZdpSZuvJfM8xmtMbYdQtoChhpgCwOMwaJNjF4cTzMoxgwEFbdhyy8FKYDSk2vHZ3uY5dbwhigLoV1BfmRtvb294F46CZUy92lXk14ehGi8loy6jNJjKEPAe7j0fI9YDFEdKQ3tUQorCTIGhY8FCYxx1BxyrsQ4mhFYdiLMzt0C9eLAYVvFIvxleSvUIyxeZUh6nm7u7ufuWFzGQJNjLg2LuLwh62AsBithqRs80GMWOd4Shsd8VFeA5esT3CDJs4zGJY5trY4TgfMLA0SX5tsl6STzJhbu2JZhrKHgOG7DoyFWcT2cVkz4E+Kihu33HBMZCZCSYMkcE6jpyHLUg1ARYHSchwugzbQcyAmPnhzGMOe4HYHZFG8YeBEZtQZvOuJ4XNEimMgelmAC/MZYWgHDCReeIu2DjmOJGZhgAch9OzEkZlARaHUWMEqyjM086EDIuAOFBz2MzmmhD7hHC5GewX742ESsUuuctC9s1A9nYiA46D1Y2j7TrA4khrcV+NYm+asH+M00axmEXMBto2L/V4+RhsCHtcj/eOvGVjl55j7HMqzvxEYEvEEdCbxXaHg/kupK1j9pdlpPU/qI+/CgCL/VUuXM8LkMVsHzHjoOAgiQMsNst4Ybe1teVNxs0Dfnnf0WTidyKzy8+p2s6OmV13YHG49vpIKBewOBJakV0Hn1nslaaHbfQx9GEjiQMsNsu2t8PCLpYO4q2tLXb5OVVj15o9f48lEddr7G0XM0ax9wgezMpjd90o3wYWR2AHYP8EZoaMaCJIHrjbp400N4XH3A1e65iXjyaTaTOoL6G78BYp6CDmnZjHsJhpC6aBIJoiAh8/f6sELPZXuTA+LxgBbfthxYxpzJnTwTEhIyyOwg+LGEAcxs+EDIoGLJZBI/lRRDyOefNO8OUU5p/uzOGUJ5SpYAT2r34hrwXHUBWyZ33dz7ks5y2nYK6ZeB7xxZyqsb+H9n8p0POiPYNPOLOi2fHFjDnMpHOj7WI/mhVOiWAFgMUR27hsHDPBbTQXpPsrrFYb72ieFMeFN5RpFHL4KPqWjWPRg70P8OavG8GC4WsCrmGKxpyoCfot20fMpjDjIOZQGFK3RexTF0DFgMUBiCeHU4WIzDgx+T3InkYfTRyWYbg/AYTjuKDtSk9LmUIeLxA5O70x6usezgU5b71LxbGC2QjmTH3mpTAbwUwiTUZYQRBDFk05PDihLyOwOPSaH8Id2cEVbBuZAQcvkW12oWyZbCyLcNl7hp6LiVw/BoebwXi74w1fTowazWK2I4KDYN4kbXtLN7FmPHOm2DEUZsbo6A0YqTuEri+fWwKL5dNWAZdUlMjM+kkci4/PlUxlY+C4L5h4ZIZu3oankOHMy02xnfy0ZZ/FWwCmeMyGx3eLgCOC+nHgmXTC2xYWcg1D7FrAnTfyLwAsjvw25tSQXgOIMdnY+OCYyd7Gsse6Sp5+DHcKC2YNOopvDOzYG7x8FNrJBiuzLXSw9372fdnbLvgyRaU2eExg95JLnG8mWhbv2XS0koywtM4c8eEtKCCkALBYSJkI38+sd8ewg+27YDK6MZayN5e5S96JoJkBHz+g2aDkbLMJy/lI9K3b4GXuvr/BMwrnhi9l/3pmi/fmL/29xXyTMTLuLXcX4d0Hqhd8BYDFwddUXlf0WGqeJBmm0BsMa9h05gB6b0EQm53il+cfD+9oA1Tyv95uEMmnsg/0zG9Jexs8i0obvwxz6Q3mhwJbB45E9FtGRnm1PpQ2fBQAFodPW4RXSXiJw0YSns7eKzaxf+kLOaD52O2FUU8DHHMK+47e20LY5Ri8dJV51YDQtPDqsjIvDbBY5g0YkuJzBv3YYMLQmYYaB3n0W28yHsQe3luz/by82OXEArMrGxKx4SZRqgCwOEobPpBqc2KW2bSitzmApt8yv/d5N4S4KX0/72WZnbxF8i45Zw9YvoH0EzjXJwWAxT7JBQcLKiAKaDbmeMl4EDvZN8VsQ+SvYLvCB6FSAFgcKqWj+D5MzMZejMEh/RfFLQBVl4ECwGIZNBIUERQABSJeAWBxxDcxVBAUAAVkoACwWAaNBEUEBUCBiFcAWBzxTQwVBAVAARkoACyWQSNBEUEBUCDiFQAWR3wTQwVBAVBABgoAi2XQSFBEUAAUiHgFgMUR38RQQVAAFJCBAsBiGTQSFBEUAAUiXgFgccQ3MVQQFAAFZKAAsFgGjQRFBAVAgYhXAFgc8U0MFQQFQAEZKAAslkEjQRFBAVAg4hUAFkd8E0MFQQFQQAYKAItl0EhQRFAAFIh4BYDFEd/EUEFQABSQgQLAYhk0EhQRowBBkjs7O1NTU8vLywQJiyJhpIKPwloBYHFYNw8UTkgBkiStVuvMzMyzZ8+Ki4uPHz/+8mWn0+kUOh72gwJhrgCwOMwbCIq3rwBJkg6HY5uygqdbW1tLSkri4+OVSqVCoYiPj+/o6HA4gMX7csGWvBQAFsurvaK0tARBrK2vj4yMtLS0lJeXHzlyJCYmRsl6AYujtGdEULWBxRHUmJFblc3NzatXr6alpWs0GhaB9zeBxZHb+NFSM2BxtLS0rOu5tLSUmpq6j16vLWCxrNsXCo8QAhZDN5CBAsBiGTQSFDEwBYDFgekHZ4dEAWBxSGSGmxymAsDiw1Qf7i1RAWCxRKHgMPkqACyWb9tFUcmBxVHU2NFaVWBxtLa8rOoNLJZVc0Fh/VEAWOyPanBOiBUAFodYcLhd6BUAFodec7ijzwoAi32WDE6QmwLAYrm1WFSWF1gclc0eXZUGFkdXe8u0tsBimTYcFFu6AsBi6VrBkYemALD40KSHG4dKAWBxqJSOpvsQrlcQawwsDqKYcCmJCiwvL9fX118Tft29e3d6enp3d7ejo+P69et3795dXV3lXJwkycXFxTt37tTV1U1PT3M+Zb8FFrPVgO2AFHA6nWazeWl5+f379/39/QRBBHQ51snAYpYYsBkiBcbHx3Nyco66XhkZGfHx8SqVKi4uLiMjg95ZVFTU//mzyWQqLS1VqVQ6na67u5uznIHT6Wxra9NqtTqd7v3795iiA4sx4sBHkhQgSXJ3d3dxcfHDx4/3798vLi6Oj4+vra0FFkuSDw4KVwUsFsvU1NSE6zUyMlJXV6fT6a5duzY6OkrvnJmZ2dnZoVkc43rV1dXZbDZ2hba3t8vKymhSA4vZysB20BQgEbLb7V+/fu379OnBgwdlZWXp6Xs5LRUKBbA4aELDhcJAAZvN9vjx49jY2KamJofDwS6RyWQqKSlJTExMTk4uKChYWlpifzoyMpKRkZGSkgJ2MVsW2A6OAgRBmkymL1++PHz48Ny5c0ePHtXr9SqVislkCSwOjtBwlbBRAM9iepWvioqKlJSU9+/fM24KgiQbGxtPnjxZXFwMLA6bxoyggphMpgcPHhw9ejQ2NlatVjMIZjaAxRHU2lAVSgFRFp84ceLVq1dJSUn37t1j3BQbGxu5ubm1tbVVVVXAYuhJwVdgdXW1oqKCbQgzFKY3gMXBFx2ueKgKSGHx7Oxsbm5uWVmZ0WikC/vu3bukpKR3797V1NRotVrwFx9qG0bizVdXVy9fvgwsjsS2hTrxKyCFxZubprq6uszMzC9fvlCmtN1eUVGRl5e3sLBw9epVYDG/srA3EAWAxYGoB+fKUQEpLN7e3unp6UlLS2ttbbXb7bOzs0eOHLl//77JZAIWy7HRZVBmYLEMGgmKGFQFpLB4Z8c8NzeXl5dXXV29trbW1taekJAwPDwMLA5qU8DFWAoAi1liwGZUKCCNxTtbW1vXr18vKCjo6+srLy8vLCzcdgUgg10cFb0k9JUEFodec7jj4SogkcV2u72zszMzM7Oqqio1NfXhw4ckSQWAAosPt/ki9u7A4ohtWqiYgAISWUyS5MTERH5+fmxsbFJS0vDwMEIIWCwgKuwOWAFgccASwgVkpoBEFiOENjY2qqur1Wr1mTNntra3gcUya2l5FRdYLK/2gtIGroDT6Zyamnr58uX4+Dgn0YrNZn///n13d7fNZkcIOZ3OiYnJFy9eDA4O0kfabLaBgYEXL16srKxgSgK5gTDiwEf8CgCL+XWBvaBAAAoAiwMQL1pPBRZHa8tDvQ9QAWDxAYobqZcGFkdqy0K9DlEBYPEhii/XWwOL5dpyUO4wVgBYHMaNE65FAxaHa8tAuWSsALBYxo13WEUHFh+W8nDfCFZA9iwmESJJkl7s0ul6OVgvp9NJEATpekVwK4a4asDiEAuOuR3dtzn/Yo6Hj8JWAfmxmCRJu91uNps3NjdXjMaZmZnh4eEPHz50dXW1t7e3tLQ8fvz44cOHTU1Nzc3Nra2tXV1d/f39U9PTxq9fd3Z2nE4nk3U/lK1CkKTVal1bW1tee9o02AAAIABJREFUXuHEJ4ayGEG5V3iy+Pnz506nMygVDNuLkCTpcDgsFovJZFoxGmfn5iYmJoaGhvr7+z+5XoODg+Pj47Ozc8srKxsbG2az2eFwkOShdHk/VaRNK4fDYbPZLBbLrvtlsVhsNpvD4aCtKz+vHsanyYPFJEIOh2Nra2thYeHLl4GXL1/evXu3qqqquLj4xIkTR44ciYuL0+l0arVa5flSq9U6nS4xMTErK6usrOz27dvd3d0zs7Nmszk0HZQkqRUBVldXBweHWltbL1y44FqdkIoJP9AXSZIWi8Us/Nrd3bXb7aIPqd3h2N3d5Vxmfn7+woUL+PzFNTU129vbnBO930qkp+g60AkJCb6ymCRJp9NpsVi2trbW1taMRuPS0tLi4uLCwsLy8vLXr19NJpPVanUGbzVrv1uc7v8bGxvjExPd3d0PHz6srq4+c+ZMdnb20aNHU1JSEhMTE1yv5OTkjIyMEydOnD59urKysrGx8dWrV8PDw1+/frVaraHp875WkyBJm822vb1tNBqnZ2YGh4Z6e3tfvXrV2tr68OHDe+7Xw4cPW1tbX79+3dvbOzA4ODk1ZTQazWaz3C0bRq5wZ7GTIEwm0+jo6MuXL2/evFlSUnLs2DGDwUAv7aNwvTiLSmDeqtXqxMTE06dP37t3b2BgYHtn5+B6p5MgNjc3h4YoBFdWVmZlZcXGxiqVyvPnz9Pzc5g2OIgNm83e3t7e0NBwW+DV2Ng4PDzMWUWRUxKn0zk6OtrY2Mi5xo0bN44ePYbRWalUZmdnY+5OX7CxsXFx0WOhRk4BmLfBYjFJkja7fWNjY3p6+mNf34sXLx48eFBXV1dZWXn+/PnS0tKzZ88WFxeXlZVdvHjx+vXrTU1NXV1dY2NjJpOJEP3iYoobvA0SIXo14hcvXtTU1OTl5SUmJmo0Gmb9FN5WYJ4LtTomLi4uKyvr4sWLjx8/HhgYoCoSDt8urp+Jq6urY2Njb9++a2lp+fbbWxcvXjx16lRmZmZKSorBYNDpdBqNRu1+aTQanU4XFxeXnJx87NixvLy8CxcuNDY29rx9Oz8/b7V6rL4cvBYI3ZXCl8UOh2NxcbGzs/PKlSu5ublJSUlMF+Ttfz7t1Ov12dnZd+7cmZqawvPI16YgSHJ7Z2diYqK1ra2ysvLEiRPx8fHMonAKhSI0LDabdwsKCjTCr7i4uPb2dmZhLt5q2my2jo6OuLg478tgjGK6IdRqtfdZnD1xcXH0Cgi8d2fvDJzFToJYW1vr6+t78ODB5cuXCwoKMjIyEhIS9Hp9TEwMb3XUarVer09OTs7Nzb169WrXd9+trq6GEmRWq3V0dPTu3bsFBQWJiYkxMTE+dXL2wSqVymAwnDhx4vr16x8/ftzZ2WHLG7JtkiTNu7szMzNdXV137tw5f/58bm4u/btWo9HwtgK7FpxteqH71NTU4uLiBw8ejI6O2u0H/ovz4LQKRxY7HI6Zmdmmpqa8vPyEhIQgIpjdliqVKjY29tSpU11dXVZbcL5U7XZ7f3//lStXsrKy4uLivB+eULI4NzeXXV/Otk6na21tFWVxa2urTqfjnBust1qtrr+/X0rn9pvFlF1ptY6Pjzc1NRUXF6empsbGxnq3i2iNNBpNUlJSaWnpd93d1M8pKYUO4BiSJI1GY3Nzc05OTmxsrK+QwlRHq9Wmp6dfu3ZtcnIylJY+4fou7O7urq6uzs7OTkxM1Ov1jI2CKbCUj+hnOTMzs7GxcWFhIZTflwE0MvfU8GIxSZIrK8ampqZjx4758T0ppdk4x6hUqvj4+Hv37u3uWrja+P5+a2vr5s1vtVot5y7MW2AxI4VSqTxoFlut1sHBwerq6iNHjggZv+zyiG6rVKqEhIS6urqlpeWD824RBDEyMlJaWnpw34JqtTojI6OtrW13d9f3bu7zGRsbG+3t7adOnRJaOFxUeYkHaDSa/Pz89+/f440MnysQkhPChcX0j5d3797l5xf4YbZIbCqhw9Rq9fXr1zc2NgJ8wLa2tmpra9Vqwd+SwGJ2ExwQi0mStNps4+Pj1dXVCQkJ7DsGZZtOhzg6Oipx4NGnB9lqs7158yY9PV2hUASltJiLaDSa6urqhYWFAxqfdDqda2trHR0dOTk5KpUqBDWiK5uamtre3n5Yfhifmpt9cFiw2OFwLCws3Lp1Kz4+3u8GU6lUbi8/FU2B6YK8H2k0mpqampUVYyA4lheL29ra8OaDzWaTi48iPj6ejqOw2WwzM7N37949cuQIb0MHZadKpcrJyfn06VMQBxtIklxdXWtsbDQYDNKfArVardVq9Xp9bGwsPdjlU+ePiYkpKSkZHBzE9wQ2MqRsO53O1dXV169fFxUV+WpaBfgg0+2blJTU1NS0sbEhpbRhcszhs9hisXz69Km4uNhX55FGo0lISEhPT8/JySkqKqLHvi9dunTx4sWysnNFRUXZ2dnJyckYjwHnsYyNja2vr19dXfMbxzJisV6vlzJ29/z586SkJIPnS4rLVaPRxMbGep7n8c618EHywMCAlCdBir+4vb19xWh8+fJlXl6er32J0xOkvFUoFFlZWX19fUGxjkmSXFpaqq2tleKXoN2jGRkZp06dunjxYl1d3b1795qamu7cuVNTU1NaWpqdnS19rFutVhcWFn74+DFYoybb29t9nz5duXJFyo8SevwtKSmJDo0oLi4uLS27cOGC+0EuKywszMzMZEePSGkdpVIZHx/f1NQkI+v4kFm8s7Pz6tUr+ieMRIl1Ol16evrZs2e//fbb9vb2Dx8+jI6Ozs/Pf/36dX19fcP1Wl1dnZ+fHx4ZoYdrCwsLDQaDlOsnJyc/efLU7/aTF4s7Ojrw485Op3NyaurZs2dPWK+nT582NjaeOHECr2dBQcGTJ0+ePn3KOpW7+ezZsxWjMSgsNhgM1dXV165dS05OxheM/pRGQHJyclpaWqbrlZqaysRKSrkCfUx+fv74+ITfX9503WkQ37hxg456xNxdpVIlJyeXlpY+fPjww8ePs7Oz6+vrdKg4PTmCjtIdHR3t7Oysra3NycmRAne1Wp2fn//h40dHYJNlCIKYn5+/d+9eVlaWqDms0WjS09PLysru3LnT2dlJTciamqIju5kH2Wg0zs3Nffny5eXLl3V1dSdPnhSViK1eUlJSZ2fnAXlgpPRbn445TBabzeYfflceO3ZMyq8qjUaTkZFx8eLFp0+f9vf3z8/Pb29v2+24OUUkQk6C2NnZmZqaevLkSXZ2tqi5pFKpjh8/3tvb699vzwhjMbVIAUHY7XYb62W325eXly9duoRpNYVCcf36davVyjmXdRlq0263SxzyFrWL1Wp1fHw8njsKhSImJiYlJaW4uPjWrVutra3ff/99f//nwaGhwcGhjx8/vnz5sqGh4dSpU3q9XqKXICYmpurKldW1NZ+eOvbBJEKrq6v19fVxcXFsjnhvx8XFXbx48c2bNwsLCxaLBf8F4HA4TCbT8PDI3buNGRkZ3lfj7FGr1SdPnvzy5Qv+suySc7bNZnPP27clJSWido9Op8vPz793715fX9/i4qLZbKZmwwqHb5MkNdXLZDKNjY01Nzfn5uZi+h6nXsePZ01MTnKKGp5vD43FVqu1s7Pz6NGjorJqNJq8vLxHjx6NjIysra1ZrVaJDzCjOEmSu7u7Q0ND586dE8WxWq3+4bClJUlzEJhb0BuRx2JOBem3YTgHmvMEct4qFAqtlnr+m5qaPn/+sry8sr29bbPZaASQrhfh+tbZ2dlZXFp68eKF9N9qiYmJbW1t+F8YvDLSO3fM5ubm5sTERE6Z2W8VCkVaWlpbW5vR+NWnGxEEubOzMzg4WFpaKtrzVSpVfn7+/Pw8prS8H5Ekubyycvv27SNHjuDvotFoTp061d7ePjc/78eUOfpBHh8fr6qqkhjqqlKprl27ZrVaeUseVjsPjcULCwvp6ensDue9rVAoUlNTW1pajEajPeBp9XTM5qVLl7xvxNmj1WofPXrkh2kMLKaVVCgUtbW1vn5lYh4MUbuY04LstzqdrqSk5O3btxsbGxKTMzidztnZ2UuXLkkZbFCpVEVFRTMzM5jyC31EEERPTw/er6JQKDIzMwcHB+0Oh9B18Ptdo4KrPwxNazSC0ZaMYpcvX952rZiJvybzKYnQzMxMeXk5/keJSqWi16hfWVmhWoE53/cNkiS3t3cePnyo1+uZYmM2EhMT6fWYfb9VSM84NBZPT0+Lun4KCwvHxsaCG5G+trZ25swZTMsplUqFQpGenu7H0wUspoUNExbrdLrCwqKuri56OV6fHizK1ltedtlf4vyKj49vaWnxIxRheno6KysL7w/Jzc2dmpryqfC8B6+tr0sZG9Rqta2trdINEYIgurq6UlJSMM+USqUqLi4eHByUflneKrB32uz2p0+fijp2lEplTEzMnTt3/P4mY9/0QLfDl8WxsbGfPn06iMpPTExkZWVhuo5SqVSpVNevX/fp9yBCCFgcJizW6XQ5OTlPnjwxGo1+m+ckSU5OTkmM8CkrK1v00a+1tb19/vwFDIhVKtWJEyf6+/v9rgL78SFJcnFpqaKiAm/s0zcdHh7GOHDZl5XC4vj4eIkBM+wri26btrZu374tah2rVKrCwkKjtFFi0Zse3AHhy2KDwTA2NnYQNXc4HHSaBTyOExIShoaGfCqAvFj8/PlzX79saDXC2V9M/xaura0dGx/3r3bsFnc4nD09PWlpafiuolQq09PTP3z8KD2+zeFwtLW14Z2eR44cefnyZRB9nQRBDA8PFxQU4L26Wq2WnvrElkJoWwqLExMTfzCAhK7g936SJGdmZqS4wtPT0w/iy8DvkvOeGI0sRgitrKyUl5eLDhtWV1dbLD7MjZYRi2NjYzs7O/2jVdiyWK/XFxcXf/fdd1tbW4F4JNmPyvb29o0bN/Dwcs3n1jY1NUmfUjw5OXn8+HEM4nU6XW1t7dr6OrswgW/bbLYXL17gPdRKpTIjI+Pdu3dSvloOkcUIIbvd3tnZifeQKJXKxMTE169fS7T0AxfZvytEKYvtdvvr169Fe2RKSopPXn8ZsdhgMEQYi1NSUhoaGiaDnXiPRGhoaEj0aVcqlRcuXJCIzt3d3fr6eoxRrFKpsrOzv3z5EhTvBAcN6+vrFRUV+G8Xenr0moRYvcNlMUJocXGxpKQEXx2DwfDkyROnk+BIEVZvo5TFCKGFhYWSkhKMYUJ7/RsaGqSnGwYW03qGfuwuNjb29u3b6+vrwR3ppZ9Vi8VSWVmJcezS473Z2dlzc5ICwoaHhzMzMzF9T6fT3bp1y+85R3jEkCTZ19cnOimO8rp8+CBqGh86i202W1NTEz4QQK/X37t3z79fgXgxg/hp9LLYYrE8ePAA7/hXqVQnT+YtLCxIVBxYfFgsTkhI6OjoEAWHxHb0Pqy7uxtveSmVypSUlKGhIdEfwlar9c6dO/iOl5aWJjGzs3dRpeyxWCwXL17Ef7uo1epbt26JxrcdOosRQh8/fsT/cNHpdC6jKjipcaUo7Mcx0ctikiQ/9vWJTklKSEh49eqV6ANGSw8sPiwWx8fHd3R0OBwHtd7dyspKamoqxpJVKpWxsbHv3r0T9SrMzMycOnUKcym1Wn3+/PmtrS0/nmfpp7x//x7jJKGLl52dPTMzg+/84cDihYUF0WzdDQ0NQRwFla6z9COjl8W0p6m4uBg/gqfRaK5fvy7x1yKwOFJZbLc7RD1aGo2Wyn6ATengdDpfv3mDH6jQaDRtbW0H4Wxhc2F7ezs/Px/zlaBUKnU6nWiNwoHFJpPph5hCzINM28XAYnYH2N8WnetxcDFtTCF2d3fr6urw4ZZKpfLUqVMS533Ii8WvXr3yL/Y+DOMoaLsYz0Gm3f3buH37tuiP+vb2dnwZtra26urq8AZpcnLyQUSAcWpNkuS9e/cw/KKd4FVVVfhQonBgsdVqvXr1KsaJpNPp6uvrgcWcPrD3NhxYTBBEe3t7fHw83jpIS0v7/vvvRX97ymuuh8FgeP36NbCYv3fy7e3o6MD3E5VK9ezZMzyLZ2Zni4qK8Nc5c+bM1tY2XxGCvG9wcFB03toPqbsWFxcxNw4HFtsdjps3b2JYrNVqb926BSzmb8dwYDFCqL+/X4of8NGjR3jrgK6kvOxiYDF/1xTY++7dO7w9q1arW1tbMSwmCOLDhw/4/qZQKBoaGqR88QsU04fda+vreDcrHTf99u1bzEXDgcUOp7OhoQGTpZNmsZRHGFPTg/4oqv3FCKHZ2dns7Gy8naJWq69evbouIeoeWEwrGfqYthD4KL58+YIPfoiJicGz2Gq1trS04C+iUqm6uroO+rGnr2+1Wq9cuYJ3vCiVyoaGBkx5woHFTqfz9u3bwGJMM+E+ChO7eH19/ezZs3ivmVKpPHPmjJRcgjJicVxcXOTZxQcXR4EQGh4exmfmjYmJwcfV0d0D39kMBsNkqPLtOhyOR48e4cujVCpPnz6NCbGXC4tv3rwJdjE/kcOExXQYP8bTRBt6x48fH5KQLQVYfLh28YGyeGxsLEAWr66ulpSU4O3QtLS01dVV/mcm2HsJgnj79i1+loRSqcQXKXxYjHmKtVotsFiw+4QJix0OytOEaUUaLklJSW/fvsW4Aul6AosPl8WiDSTYHSV8EDiLZ+fmRB1i+fn5u7s+pECRUHDBQ0iSHB4eFl2kNTY2dnx8XOgq4cNivI8CWCzUgihMWEySZHNzM6YVabjo9frWVpFVk+UVRxEfH//mzRuIoxDsoF4fSGExvRa116nUDpIkR0ZG8SnfFApFWVlZKDPtzs7Oii5dqFKpMMN3wGLe5vZjZ7SP3SGEOjs78ePjSqVSrVbfv39fNAuXjOzi+Pj47777zj9DMjrji0VZrNFoXrx4ISQpQRAfP34UDaCsrq7Gz3Pz4yHHnLK8slJUVIR3mygUio6ODqGLyIXFdXV14C/mb8QwsYsRQm/fvhWd7qFUKuvq6kTn5gOLo9lHIcri7u5u/EJEdEAb/wNzMHtXV1fLyspEWXz//n2h+8uFxbW1taK2lFAdQ7Mf7GL06dMnfJgRzZeqqqrNzU18qwCLo5vFWoxd7HQ6X7x4gfeGKRSKBw8e4PtYcD/d2Ni4fPmyKIvr6uqE5mTLiMVmszm46gX3asBiNDAwgB8fpyeDlpeXi4YYA4sPi8UJCQkYX21QnhlRH4VWq3316pWQj8LpdLa2toqyuLm5OSillXiRzc3NqqoqURZfu3bNSfAn/wUWS5Ra9DBgMRodHRWdCapQKIqLi79+/YoXVEYsTkhI6O7uFgIHvpph6y8+3Jg2F4tfC0nqdDqfPXsmGswbYhabTKbq6mr6G1ToX4VCUVVV5RDIeRQ+LMZEQ9EZvsAu5n+uw8dfPDY2JppXW6FQFBUVLa+s8FfGvRdYfFh28UHnzEQISbGLX7/Gsbi1tRXDC/rnV1NTk7s3heJ/k8l07do1IQozrXn58mWh6I7wYTHmNwfNYonZFkOhO989wC5GU1NTSUlJot2xoKBAdKFfYDHz9NbW1gYxqcLS0hI+jUMI5kBLYLGuq6tLqNZOp7OtrQ3DC5rFIfYXm0ymmpoa0c5fUVEhFP4YDix2iM2BBhbzwd+9L3zs4unp6eTkFHx3VCqVeXniC3zIi8U9PT1CP6jdrcT/f9j6KPyrDn8lvfaKslinE2Hxy5cv8dGTCoXi9u3bXnc+wB2bm5tXr17Fd36FQlFTUyNrfzGwGNeHwofFUuxipVKZm5s7L7bYkoxYnJiYKGUmIW8ThiGLw2HsDs9igiDevHkjGtN28+ZNXs0PaKfEOIr6+npZx1FoNJpr166Bj4K/F4UPiycnJ0X9xUqlMj8/H5/IVV7z7iTO6uZtvDBksctH8fzQ7eLu7m4hHwVBEL29vfiIHYVCcfXq1VDO9VhfXz9//rxoHAXGix0OPgrRPG0ajaampkZ0fgBvbw/ZTvAXS42jiLCxu6SkpHfv3vkHr3Bl8QGudydl7E6n0/X09AixmCTJz58/JyYmYhwCCoXi4sWLQp7Zg4DC6urq2bNnRVn8/PlzobvLhcXV1dUHvYSgkEQS9wOLqXTyeGuFHlQ5e/asaAItGfkoIpHFzw83pk2UxRMTE6Jr3RYWFlqtoVuueGl5+dSpU3gWq1Sq77//XggowGIhZXzdDyym5kDjvXg0iy9cuBBJcz0ijMVh4i/G2MUIoYWFhby8PDz4MjMzTSaTr4+x38fPzM5mZWXhi6TX6+Wepy0mJubq1atgF/P3k/DxF7948QI/uk3/qKyurhZ9SMAuprU6rHU9Dtcu1uv17969E/JRIIRW19bOnTuHB19iYqKUVQv4Hyof95IkOTo6ig8WVCqVqampmF+E4WMXY2K3gcW4rhEmLCZIsqmpCR/1qVQqVSpVQ0OD6DgssDiaWRwbG4tfo3Z7e7u2thY/9U6j0Xz+/Bn35ATvM3r9PdHUcUVFRZgMZ+HDYsxTDCzG9ZowYbHdbr9x4wbmG5WGi06ne/r0qeg6svJiMR4cmMaDsTu6V3D+FWWx1Wp9+vSpqEOsra0NI34QP6LTFeF/FCoUCkxiIISQXFh85coV8FHwd54wYfH29nZ5ebkoixMTE7/77jvRAW4ZsTglJaW39z3mBzV/s7n2Aos5FKbfxsbG9vb2YiR1Op3ff/99SgpuYpFCobh27ZpQ8gdMo/jxkd1uv3PnDm9dmJ1qtfr169eYi8uFxVVVVaI+Rkw1Q/BRtI/dLSwsnDx5Ev+zUalUHj169MvAgGjgp7xY/P595LA4HMbu4uLi8JKSCE1OTv4wgZMhHe9Gfn5+aKhhsVovXLiA918nJSVNT09jSAQsxojj00fRzuLPnz+Ljl0olcqioqK5uTlRZaWwuLy8HLOqrugtJB5gNu/m5ubyPur0zpSUFDw4MDcCu5hX2Li4uA8fPmDsYoTQ2tpaZWUl/rs/MTFxbGwMo3+wPlpdXcMvsKRQKM6cObO1vY25o1xYXFlZGZpvOIxW+I+imsVOgmhvbxcdu1Cr1VevXhUNaJMy706pVJaUlGBGQvCtJf1TaSwWAYfQ7YDFfrPYarU+fvwYH8+u0Wja29tFf4QJtY70/QMDA/hssSqV6t69e3jXHLBYuuD4I6OaxTs7O9evX8ePXSiVSoPB8PjxEykR+KJ2MT2XOgRzMaWwWNSIE+o6wGK/WUySZH9/f2ZmJu8V6J1qtbqiouKgOwlJko8ePcJb6MnJyR8/fsRb+rJgMS2p6Lo8Qh0+NPujmsUzMzOFhYX47kg7i/v6+qTYKVJYnJGRsby8fNCtG20sTkhI6Og45HwU8fHxUr7evn79euHCBUwAllKpzMzMHBkZOdBOsmuxnDlzBvOVoFQqS0tLV8RydsuFxZcuXdrY2DhQSQO8ePSy2Okkenp6jhw5gu+OKpWqpKRkaWlJitDb29s3b97EP2YGQ9zAwICUqwVyDLA4EPV4zxXNmZmQkCCFxXaH41lrK94zZjAYmpub7XY7b0mCsnN0dBRfBr1e//jxY1F/GrA4KM2BEIpeFptMpps3b4o6KPR6/f379202SSkCzGZzQ0MD/poajebJ06dC2WCD1a5SWCz681OoMGHoowiHOIqEhIRPnz7hf9HTkk5PT+fk5GB+kKnVaukWgFAzYfY7CeLu3bt4KyQ7O3tkZET05yCwGKOzTx9FKYtJkhweHsnOzsZ3R6VSmZGRMTg4KFFTi8XS1NSEX1VapVKdO3fuoF1XoixOTU3t6+uTAg7vukthMWa1Su8Liu4RXdcjfFgsCi+EkN1ub2xsxP9+Sk5OfvXqFX7cTFQ3oQMWFxePHTuG6fxarfbWrVv4CAr64nJh8cWLF6UMvwspFoL9UcrinZ2dxsZGrVaL6Y5KpVKtVldVVYlOfWbaiZ7IJJoN+ciRI+/fv5fy0DJX9nXjQFm8vr5+5coVjFmnUCgwK6T5WheEkCiL6fzFh5uPIiEhob+/X2KzTk1NpaenY7qfSqX6YRaSROeYT5I6nM7m5mb8N0FmZqbEuoQPizEzttRqNbBYsJMc4rw7kiQHBwfxY9n0QxIfH//x40fBOnh9QJJkX1/f0aNHMc+YUqnUaDRVVVWYfCteF/Z5x4Gy2GQy3bhxA/8wnz592mze9bncAieIsjgc7OLExESJ/EIIOZzOBw8eYPChVCrpSonOvBfQjH83SZJTU1N5eXmYr1KdTldXVycxkCN8WIzpkMBi/t5A75XCYunOAdydvD5bX1+vqKjA9EWGpJWVldKNYvo+8/Pzp0+fFr14cnJyW1vb7m7QaMWuJUmSS0tL+C+bQHwUu7u7jY2N+LwKx44dEx2CZ5cZvy3K4nBYezQpKenLly8S7WKEkNFoLCgoYDob78apU6fGx8elXxMvI0LIZDLV19fj3WjZ2dlDw8MSbyoXFp8/L57zVlS9Az0gfH0UGo2mrq5uZmYmuC6z7e3te/fu4fsi/VSkpaUNDw/7qr7ZvFtfX4/nFJ34LScnp7e3V+KooMRikAhZLJahoaFr167h6xgIix0OR0dHB94VYzDEffr0SWKxRQ8TZXE42MW+sphESDQ9hUajqa6uDpaj02q1vn79Gp/PXq+Pffz4sXRjHFgs2nslHhC+LFYqlbGxsadPn+7s7FxbWxNa+lBiPenDdnZ2mpub8aE8NIi1Wu3jx4/9CCoiSfLDhw9S5lWr1eq8vLyenh4ps0ikVNPpdM7Pzz969OjkyZOirvC0tDTXoD8p5cqcY+gJC/jBn5iYmPr6eumPNOcWnLdyYfGAhKQl7KqZzeY7d+7gv7ljY2MbGxvNZjP7RD+2HQ5HX19fXl4e3jFy8eKl1bU16deXC4vLy8+v+VIv6QoE68iwZjFtPyYlJV28eLG3t3d7e1vi7yZvdUiENjY27t+/j19wjPmdWF5evra+7n0dKXtMJtPly5dF3RT02GB6evrDhw8DDKtfn/ctAAAQSElEQVQgSXJtbe358+enT5+Oi4uTcuu0tLQfJoARhD8spgfTzp49i7mRSqXKysoaHh728waeQsuCxcnJyYODgz51UZIkFxYXL1y4gOejwWB48OBBIDgmCGJwcLCwsBDjVFUoFFlZWVNTUz5VQUYsPtARGs8O68+7cGcxDUe1Wp2YmHjp0qUPHz7s7lp8rajT6ZyamqqsrMT/bGdAfOzYsYGBAf/ivRBCtNmYmJjEXBC/odFoiouLP3365IcVSbgo3NnZWVhYqNfrMXDklCFAFtvt9gcPHuD11Gq1VVVVQfEaRyqLEUJOipJDOTk5nAbivNXr9fX19f45K5xO54cPH7KzszHdQ6FQJCcnS5xfyn4AgcVsNQLZlgeL6X6pUCj0ev3Zs2dfvXq1uLhosVicTqfQdzhJkgRB2O32paWlp0+fZmZmYjoiu98nJiZ2dHT4gUV2M9jtjjt37ki8I72eXlxc3OXLl9+9e2c0ft21WBwOB0EQpPtFI56ulNPptNlsGxsbg4ODd+/ezczMVKvV+MyH7ArS2wGyGCE0Pj6Oz/KlVCp1Ol1lZeXExITNZhNqKbZuQtuyYHFKSsrQ0JAf1bTb7W/evElLS/NuJvYejUZTXl4+PDxstVql3IUkSbvDsbS09APEDQYDpoeoVKqkpKSXL1/6sS44sFio0/q6X04spvulQqGIiYk5duxYdXX18+fPBwYG5ufn19bWTCbTluu1ublpNBqnpqbfvXtXX19//PjxmBgNu09jtuPi4m/fvh2gx4Bug83NTdG0A94l0el0WVlZV65caWlp6e3tHR4enpiYnJ6enpmZnZqaGhkZ6e3tbWtru3HjRkFBQXx8vHTcc+4VOIttNvvDh4/wvk7ay3Ts2LH79++PjY2vr6/jv0GFuq9cWEz5ZEh/vDJms7mlpUXKjPz09PSGhobBwaG19fXd3V3OdzZJkg6Hw2KxrK+vj46NNTc34yf40Q2Umpr67Nkz/3wgwGKhTuvrfvmxmM0UrVabkpKSm5t77ty56urqGzduXL9+vaqqqri4ODMz02AwqFQqjDnAvpQrH1vcjRu1y8vL/j1O3tLPzs7+kF0FPyWaUwbmrUqliouLS0lJycjIyMzMPH78+LFjx1JTUw0GA8blx5wuupGent7f/9lvfzFdWaPReP78ebyvky5JTEzM0aNHL1++/Pjx4+97e0fHxubn579+/SoxjEQWLD5y5IiUScPe/YTes729LQXH9DBDWlra5cuXHz58+ObNm0+fPg0NDY2NjY2MjPT3f+7q6nr06FFFRUVmZqboEK5KpTp69GjLs2d+rz8kCxarVOpz58rBX8zf90Tji2NiYnJzc6XEPNC/8dn0Ubhe7D2i2waDobaubnFpKVggppcCGx0bO3/+vKjxKFq8oB9w9OjRz5+/BMhiEqGJyckzZ85IwTFdBa1Wl5KSkp2dfebMmcuXK2ZmZvj7h+deWbA4NTU1EBYjhMxm88uXL7OysiT+3NFoNPHx8WlpaZmZmdnZ2VlZWWlpafHx8RK//tVqdX5+/qtXryRO6/Bsk713MmGxqqyszGg08lYhTHaGr12s1+vfvHnz8uXLM2fOHCjLFApFYmLiw4cPv379GkQQ0w3scDqnp6dv3LiBT9odXNRqtdqcnJysrCzMbwJq1ShfJiYI9VeCIMZc3zeiJph3HbVaXV9fn9CV2fvlwuLR0dEAu5DNZuvv7y8rKzvoPq/T6S5fvjw4OBjg0AiwmN1RA9kOXxbHxsYODw/bbLa5ubnm5ubs7Oyg/DbnEEGlUuXk5PyQPHN3d9cfP58E7QmCMBqN0sPpOCX06a3BYDh9+vTTp09nZmdv376NYTEVK+JjAJZQXZ1OYn5hob6+XmK8IFMjrVYncYp59LCYiqxwxYnfuXMHv0opI6OvGyqVKjMz84cVqb+urvoxWMfpBsBijiB+vw13FtPxAza7fW5+/v79+8eOHZP4801KB42Pj79+/frs7FzgPRLfACRJ7u5aenp6pGSGk1Jy9jEKhUKtVqenp9fU1Hz48GFjY8PhcJAk2dTUhGFxZmamr8GwmDqSJGk2m9+9e1dYWCjxB7JSqYw8Fo+NjQVoF9MikyRpsVj6+/vLy8v1ej2mHdk9Qcp2QkLCjRs3pqengzWdVS4sLikpAR8F/yMs6i+m7WL2yU6CWFpefvLkycmTJ2NjY9VqtR9cVqlUarU6ISGhvLz8/fv3B5QRgl1sZpskyZWVlfv372dkZGg0Gj8KTz9sdBViYmIMBsPx48erq6vfvHmzYjRyFnLHs5iaiCEhOy1TeCkb1JST9fWOjo6CggIpDSQvFo+MjCQkJKiFX+np6cFiMa026fIgf/jw4fz58wkJCTExMf71GbVardFo0tLSampqBgYGRNPDS2lr5phwYLHD6bxz545WqxVqnJiYGPAXM03G3fCDxfQlSJLc3Nx8//79t99+W1hYSA9W6HQ6ITSrVKqYmBitVmswGFJTU0+dOvXtt9/2f/68s7MTFBOGWzGx9w6nc2Zm5vHjx6WlpRkZR+Pj46UUXq/Xx8XFJScnHz16tLCwsLKy8tGjR319fUaj0e5w8N6zsbERY09lZ2ePjY/znhjgToIkTSZTX19ffX19cXHx8ePHU1JS4uPjY2NjdTqdVqvVuF8GQ5xEf7HRaCwpKTkh/CosLHz79u2B/r5ZXFy8efPm1avVvK+rV6sbGhqCGITDbgWLxTo8PPygqamsrCwzMzMpKSk2NpZGjzed2R3eNUyac/ny5Y6OjtnZWavNFnRHHEEQb9+9O3HiRKLwKzMzc3p6ml2j4G47CaK7u6empoa3aVw7a1paWmAdaH7Z/WYxfTkSIZvNZjQav3z50tHRUV9fX1FRcfbs2YKCgpMnT+bm5ubl5eXn5xcVFZWUlFRWVt66daul5dmnT58oeNnth0JhthAOp3N9fX1gYKC9o+PWrVsVFRWlpaWFhYX5rtepU6cKCwuLi4vPnTtXWVl548aNxsbGtra23t7esbExo9FoNu86nQT7gt7beBbn5eVNTk15nxXEPXa7fX19fWJiore39/nz501NTQ0NDXV1ddfdr7q6utm5OSl3tNvti4uLc8KvhYWFQKbISykDQRA2kZfd77maUgrgcDo3NjbGx8e7u7ubm5tra2svXbp09uzZwsLCgoICuucUFhaWlpZWVFTcvHnzyZMn33///dzcnNlsDko6F95CUkkBl5d7eno6OztfvXq19++rV9Qb99vu7m6/Y+Z4b8rZSSLkcFAToDAvu51y3HFODKu3MvAX4/UiESIIwmq1bm5uLi8vz8zMTE5Ojo+PT01NzczMLCwsrKysbG5uUlMMCBF44W90EJ+SrimwFovFZDKtrKzMz8/PzMxMT0/Pzs7Oz88vLy+vrq6aTCaz2Wy3+/yc48fuTp06NTs7exCV8r4m1UauOQhWq9VisZjN5h3Xy2w2H6gl612SyNhDkqTT6dzd3d3Y2FheXp6fn5+dnZ2mJgTNzM/PG41Gk8lETQNxOkPDHtL9okZ3XBKTrA16yCc0JZF1+8qexbJW/0ALX19fj/FRnD17dmFh4UALABcHBUAB6QoAi6VrJbMjr1+/jmFxeXl5ULL2yEwUKC4oEK4KAIvDtWUCK5eTIK5cuSLEYpVKVVVV5V/Sr8DKBWeDAqAAvwLAYn5d5L7X4XReuHBBiMUxMTE3btwI82FluTcBlB8U8EkBYLFPcsnmYJvdfubMGSEWa7Xau3fvhjK2WjbCQUFBgUNSAFh8SMIf8G3NZvPJkyeFJmIZDIYnT55KzJF2wCWFy4MCoAClALA4MvvBxsYGZonJpKSkV69eiUYoR6Y0UCtQICwVABaHZbMEXKj5+XnMOs0ZGRkfP34M89D3gDWAC4ACclIAWCyn1pJe1v7+fkxau5ycnPGDmQAtvYRwJCgACrAVABaz1Yic7Y6ODqGBO5VKVVxcvLS0FDm1hZqAAvJXAFgs/zb0qoGTIDATPTQaTXV1dSBLOXjdEHaAAqBAoAoAiwNVMAzP39zcPHkyDxNE0dzcHKz0tWFYfSgSKCBHBYDFcmw1kTIPDAzExycIsTglJaW3txdytYiICB+DAqFVAFgcWr0P/m42m+327dtCA3cqlSo3N3d+fv7gCwJ3AAVAAR8UABb7IFb4H0oiND4xkZOT451inDaT1Wp1TU0NzLgL/6aEEkabAsDiiGrx7e3t+vp6zBLCer2+p6cHIosjqtWhMhGhALA4IprRVQm73f7mzZvU1FQhT7FSqczJyVldXY2cOkNNQIFIUQBYHCEt6XA4Pn3qx68zrVar29rawCiOkCaHakSWAsDiSGhPi8Xy/v37kydPCrmJlUqlSqU6d+4c5MmMhPaGOkSiAsBiebcqQRBGo7G1tTUzMxPjmlAqldnZ2aOjo/KuLZQeFIhcBYDFcm1bgiQ3Nzffv39fUVFhMBjwIM7IyOjq6oL5HXJtbCh3FCgALJZfI5MkubW19fHjx+vXrx89elStVuNBnJqa2tbWtrOzI7+qQolBgahRAFgsm6YmSdJud6ysrHR3d1dWVqanp2u1WjyFlUplSkpKS0vL1tYWDNnJpqWhoFGpALA4rJudIAiL1Wo0Gj9//tzc3HzhwsXjx4/r9XpRW5hmdFpaWmdnJ8zsCOs2hsKBAi4FgMVh0RFIknQ6nXa73WK1mra2FhYWPn/+3NbWVltbW1RUlJqaSpvAQmkwva1jtVqdm5vb39/vcDrDooZQCFAAFMAqACzGyhOqD+fm5trb2+/evVtRUZGfn5+amqrT6VUqlcL18kYtZo9arU5JSampqZmfnwe/RKgaEO4DCgSqALA4UAWDcn5PT49eH6tUKv2AL8NllUqVkJBQWlra1dUFI3VBaRe4CCgQMgWAxSGTGnejubm5tLQ0hqp+bBgMhtOnT7e0tMzNzdkdDtzN4DNQABQIPwUOjcUrKytnzpyJi4ujf4l70yc2NnZ4eDj8FDuQEpnN5vLycunuYLZc8fHxZ8+ebWtvn56etlgs4Jc4kBaCi4ICB6zAobHY4XAsLC6+ffu2trb2+PHjMTExHBJFFYsdDkdzc7PE6AjalaHVao8fP15bW9vb27uysmK12YDCB/ywwOVBgQNU4NBYTNeJIAirzba8vNzV1XXx4sWkpCQmo0JUsZgkyf7+/qSkJLbBy9mmv6u0Wu2xY8eqq6u7u7uXlpasVitBEAfYQeDSoAAoEBIFDpnF7Dra7PaZmZmWlpbTp08nJCTExcVFj48CIbS0vFxUVETzV6VSqV2vmJgYvV6fnJycm5t76dKlx48fDwwMrG9sQKQau+fANigQAQqEEYtpNQmC2Nzc/PjxY0NDw+zsbARILLEKOzs7jx49KigoKCoqOnv27OXLl7/99tvHjx/39PSMjY2tra3ZbDaChGXqJMoJh4ECMlMg7FgsM/2guKAAKAAKBEMBYHEwVIRrgAKgACgQmALA4sD0g7NBAVAAFAiGAsDiYKgI1wAFQAFQIDAFgMWB6QdngwKgACgQDAWAxcFQEa4BCoACoEBgCgCLA9MPzgYFQAFQIBgK/H/OYSQYI5ToGwAAAABJRU5ErkJggg==;shadow=1;imageBorder=default;dashed=1;" vertex="1" parent="1">
          <mxGeometry x="530.6500000000001" y="190" width="94.6" height="100" as="geometry" />
        </mxCell>
        <mxCell id="LcjQ42n0fO6VPhbINmEc-8" value="" style="shape=flexArrow;endArrow=classic;startArrow=classic;html=1;rounded=0;exitX=1;exitY=0.5;exitDx=0;exitDy=0;entryX=0;entryY=0.5;entryDx=0;entryDy=0;fillColor=#f5f5f5;strokeColor=#666666;endWidth=16.04700854700855;endSize=5.118666666666667;startWidth=16.04700854700855;startSize=5.118666666666667;width=8.981481481481481;" edge="1" parent="1" source="LcjQ42n0fO6VPhbINmEc-3" target="LcjQ42n0fO6VPhbINmEc-4">
          <mxGeometry width="100" height="100" relative="1" as="geometry">
            <mxPoint x="430.65" y="310" as="sourcePoint" />
            <mxPoint x="530.65" y="210" as="targetPoint" />
          </mxGeometry>
        </mxCell>
      </root>
    </mxGraphModel>
  </diagram>
  <diagram id="mA8EzmX1W03iKXp3YoPy" name="旧数据处理过程">
    <mxGraphModel dx="783" dy="428" grid="1" gridSize="10" guides="1" tooltips="1" connect="1" arrows="1" fold="1" page="1" pageScale="1" pageWidth="3300" pageHeight="4681" math="0" shadow="0">
      <root>
        <mxCell id="0" />
        <mxCell id="1" parent="0" />
        <mxCell id="u0TRHwq-SfVegYRTHKIy-6" style="edgeStyle=orthogonalEdgeStyle;rounded=0;orthogonalLoop=1;jettySize=auto;html=1;exitX=0.5;exitY=1;exitDx=0;exitDy=0;" edge="1" parent="1" source="u0TRHwq-SfVegYRTHKIy-1" target="u0TRHwq-SfVegYRTHKIy-2">
          <mxGeometry relative="1" as="geometry" />
        </mxCell>
        <mxCell id="u0TRHwq-SfVegYRTHKIy-8" style="edgeStyle=orthogonalEdgeStyle;rounded=0;orthogonalLoop=1;jettySize=auto;html=1;exitX=0.5;exitY=0;exitDx=0;exitDy=0;entryX=0.5;entryY=0;entryDx=0;entryDy=0;" edge="1" parent="1" source="u0TRHwq-SfVegYRTHKIy-1" target="u0TRHwq-SfVegYRTHKIy-3">
          <mxGeometry relative="1" as="geometry" />
        </mxCell>
        <mxCell id="u0TRHwq-SfVegYRTHKIy-10" value="&lt;font&gt;数据库连接&lt;/font&gt;" style="edgeLabel;html=1;align=center;verticalAlign=middle;resizable=0;points=[];fontSize=16;" vertex="1" connectable="0" parent="u0TRHwq-SfVegYRTHKIy-8">
          <mxGeometry x="0.043" y="-2" relative="1" as="geometry">
            <mxPoint x="-9" y="-16" as="offset" />
          </mxGeometry>
        </mxCell>
        <mxCell id="u0TRHwq-SfVegYRTHKIy-1" value="&lt;font&gt;DBMS&lt;/font&gt;" style="rounded=1;whiteSpace=wrap;html=1;fontSize=20;fillColor=#ffe6cc;strokeColor=#d79b00;" vertex="1" parent="1">
          <mxGeometry x="120" y="140" width="120" height="60" as="geometry" />
        </mxCell>
        <mxCell id="u0TRHwq-SfVegYRTHKIy-9" style="edgeStyle=orthogonalEdgeStyle;rounded=0;orthogonalLoop=1;jettySize=auto;html=1;exitX=1;exitY=0.5;exitDx=0;exitDy=0;entryX=0.5;entryY=1;entryDx=0;entryDy=0;" edge="1" parent="1" source="u0TRHwq-SfVegYRTHKIy-2" target="u0TRHwq-SfVegYRTHKIy-3">
          <mxGeometry relative="1" as="geometry" />
        </mxCell>
        <mxCell id="u0TRHwq-SfVegYRTHKIy-2" value="&lt;font&gt;中间存储&lt;/font&gt;&lt;div&gt;&lt;font style=&quot;font-size: 10px;&quot;&gt;(文件/对象存储/消息队列)&lt;/font&gt;&lt;/div&gt;&lt;div&gt;&lt;font style=&quot;font-size: 10px;&quot;&gt;(分布式存储)&lt;/font&gt;&lt;/div&gt;" style="rounded=1;whiteSpace=wrap;html=1;fontSize=18;dashed=1;" vertex="1" parent="1">
          <mxGeometry x="270" y="190" width="120" height="80" as="geometry" />
        </mxCell>
        <mxCell id="u0TRHwq-SfVegYRTHKIy-12" style="edgeStyle=orthogonalEdgeStyle;rounded=0;orthogonalLoop=1;jettySize=auto;html=1;exitX=1;exitY=0.5;exitDx=0;exitDy=0;entryX=0;entryY=0.5;entryDx=0;entryDy=0;" edge="1" parent="1" source="u0TRHwq-SfVegYRTHKIy-3" target="u0TRHwq-SfVegYRTHKIy-11">
          <mxGeometry relative="1" as="geometry" />
        </mxCell>
        <mxCell id="u0TRHwq-SfVegYRTHKIy-3" value="&lt;font&gt;Python AI&lt;/font&gt;" style="rounded=1;whiteSpace=wrap;html=1;fontSize=20;fillColor=#fff2cc;strokeColor=#d6b656;" vertex="1" parent="1">
          <mxGeometry x="420" y="140" width="120" height="60" as="geometry" />
        </mxCell>
        <mxCell id="u0TRHwq-SfVegYRTHKIy-11" value="存储数据" style="rounded=1;whiteSpace=wrap;html=1;fontSize=18;dashed=1;" vertex="1" parent="1">
          <mxGeometry x="600" y="140" width="120" height="60" as="geometry" />
        </mxCell>
        <mxCell id="u0TRHwq-SfVegYRTHKIy-14" value="DBMS" style="rounded=1;whiteSpace=wrap;html=1;fontSize=22;verticalAlign=top;fillColor=#ffe6cc;strokeColor=#d79b00;" vertex="1" parent="1">
          <mxGeometry x="120" y="310" width="610" height="130" as="geometry" />
        </mxCell>
        <mxCell id="u0TRHwq-SfVegYRTHKIy-18" style="edgeStyle=orthogonalEdgeStyle;rounded=0;orthogonalLoop=1;jettySize=auto;html=1;entryX=0;entryY=0.5;entryDx=0;entryDy=0;" edge="1" parent="1" source="u0TRHwq-SfVegYRTHKIy-15" target="u0TRHwq-SfVegYRTHKIy-17">
          <mxGeometry relative="1" as="geometry" />
        </mxCell>
        <mxCell id="u0TRHwq-SfVegYRTHKIy-15" value="查询数据" style="rounded=1;whiteSpace=wrap;html=1;fontSize=17;" vertex="1" parent="1">
          <mxGeometry x="150" y="355" width="100" height="50" as="geometry" />
        </mxCell>
        <mxCell id="u0TRHwq-SfVegYRTHKIy-16" value="数据格式转换" style="rounded=1;whiteSpace=wrap;html=1;fontSize=13;dashed=1;" vertex="1" parent="1">
          <mxGeometry x="280" y="366.25" width="100" height="27.5" as="geometry" />
        </mxCell>
        <mxCell id="u0TRHwq-SfVegYRTHKIy-21" style="edgeStyle=orthogonalEdgeStyle;rounded=0;orthogonalLoop=1;jettySize=auto;html=1;exitX=1;exitY=0.5;exitDx=0;exitDy=0;entryX=0;entryY=0.5;entryDx=0;entryDy=0;" edge="1" parent="1" source="u0TRHwq-SfVegYRTHKIy-17" target="u0TRHwq-SfVegYRTHKIy-20">
          <mxGeometry relative="1" as="geometry" />
        </mxCell>
        <mxCell id="u0TRHwq-SfVegYRTHKIy-17" value="Python AI" style="rounded=1;whiteSpace=wrap;html=1;fontSize=17;fillColor=#fff2cc;strokeColor=#d6b656;" vertex="1" parent="1">
          <mxGeometry x="430" y="355" width="110" height="50" as="geometry" />
        </mxCell>
        <mxCell id="u0TRHwq-SfVegYRTHKIy-19" value="目前缺乏对复杂库的支持" style="text;html=1;align=center;verticalAlign=middle;whiteSpace=wrap;rounded=0;" vertex="1" parent="1">
          <mxGeometry x="420" y="420" width="140" as="geometry" />
        </mxCell>
        <mxCell id="u0TRHwq-SfVegYRTHKIy-20" value="存储数据" style="rounded=1;whiteSpace=wrap;html=1;fontSize=17;dashed=1;" vertex="1" parent="1">
          <mxGeometry x="590" y="360" width="100" height="40" as="geometry" />
        </mxCell>
      </root>
    </mxGraphModel>
  </diagram>
  <diagram id="h4kxg645GIOKNuY5v9qP" name="ai_in_model">
    <mxGraphModel dx="783" dy="428" grid="1" gridSize="10" guides="1" tooltips="1" connect="1" arrows="1" fold="1" page="1" pageScale="1" pageWidth="3300" pageHeight="4681" math="0" shadow="0">
      <root>
        <mxCell id="0" />
        <mxCell id="1" parent="0" />
        <mxCell id="oiRu_DFsEv9GOwhKvBuQ-1" value="DBMS" style="rounded=1;whiteSpace=wrap;html=1;fontSize=22;verticalAlign=top;fillColor=#ffe6cc;strokeColor=#d79b00;" vertex="1" parent="1">
          <mxGeometry x="120" y="310" width="610" height="130" as="geometry" />
        </mxCell>
        <mxCell id="oiRu_DFsEv9GOwhKvBuQ-2" style="edgeStyle=orthogonalEdgeStyle;rounded=0;orthogonalLoop=1;jettySize=auto;html=1;entryX=0;entryY=0.5;entryDx=0;entryDy=0;" edge="1" parent="1" source="oiRu_DFsEv9GOwhKvBuQ-3" target="oiRu_DFsEv9GOwhKvBuQ-6">
          <mxGeometry relative="1" as="geometry" />
        </mxCell>
        <mxCell id="oiRu_DFsEv9GOwhKvBuQ-3" value="查询数据" style="rounded=1;whiteSpace=wrap;html=1;fontSize=17;" vertex="1" parent="1">
          <mxGeometry x="150" y="355" width="100" height="50" as="geometry" />
        </mxCell>
        <mxCell id="oiRu_DFsEv9GOwhKvBuQ-4" value="数据格式转换" style="rounded=1;whiteSpace=wrap;html=1;fontSize=13;dashed=1;" vertex="1" parent="1">
          <mxGeometry x="280" y="366.25" width="100" height="27.5" as="geometry" />
        </mxCell>
        <mxCell id="oiRu_DFsEv9GOwhKvBuQ-5" style="edgeStyle=orthogonalEdgeStyle;rounded=0;orthogonalLoop=1;jettySize=auto;html=1;exitX=1;exitY=0.5;exitDx=0;exitDy=0;entryX=0;entryY=0.5;entryDx=0;entryDy=0;" edge="1" parent="1" source="oiRu_DFsEv9GOwhKvBuQ-6" target="oiRu_DFsEv9GOwhKvBuQ-8">
          <mxGeometry relative="1" as="geometry" />
        </mxCell>
        <mxCell id="oiRu_DFsEv9GOwhKvBuQ-6" value="Python AI" style="rounded=1;whiteSpace=wrap;html=1;fontSize=17;fillColor=#fff2cc;strokeColor=#d6b656;" vertex="1" parent="1">
          <mxGeometry x="430" y="355" width="110" height="50" as="geometry" />
        </mxCell>
        <mxCell id="oiRu_DFsEv9GOwhKvBuQ-8" value="存储数据" style="rounded=1;whiteSpace=wrap;html=1;fontSize=17;dashed=1;" vertex="1" parent="1">
          <mxGeometry x="590" y="360" width="100" height="40" as="geometry" />
        </mxCell>
      </root>
    </mxGraphModel>
  </diagram>
</mxfile>
